solid exported
	facet normal 1 0 0
		outer loop
			vertex 1.2500000238418578 1.469999978542328 0.15000000074505807
			vertex 1.2500000238418578 1.3699999785423278 0.15000000074505807
			vertex 1.2500000238418578 1.469999978542328 0.05000000074505806
		endloop
	endfacet
	facet normal 1 0 0
		outer loop
			vertex 1.2500000238418578 1.3699999785423278 0.15000000074505807
			vertex 1.2500000238418578 1.3699999785423278 0.05000000074505806
			vertex 1.2500000238418578 1.469999978542328 0.05000000074505806
		endloop
	endfacet
	facet normal -1 0 0
		outer loop
			vertex 1.1500000238418577 1.469999978542328 0.05000000074505806
			vertex 1.1500000238418577 1.3699999785423278 0.05000000074505806
			vertex 1.1500000238418577 1.469999978542328 0.15000000074505807
		endloop
	endfacet
	facet normal -1 0 0
		outer loop
			vertex 1.1500000238418577 1.3699999785423278 0.05000000074505806
			vertex 1.1500000238418577 1.3699999785423278 0.15000000074505807
			vertex 1.1500000238418577 1.469999978542328 0.15000000074505807
		endloop
	endfacet
	facet normal 0 1 0
		outer loop
			vertex 1.1500000238418577 1.469999978542328 0.05000000074505806
			vertex 1.1500000238418577 1.469999978542328 0.15000000074505807
			vertex 1.2500000238418578 1.469999978542328 0.05000000074505806
		endloop
	endfacet
	facet normal 0 1 0
		outer loop
			vertex 1.1500000238418577 1.469999978542328 0.15000000074505807
			vertex 1.2500000238418578 1.469999978542328 0.15000000074505807
			vertex 1.2500000238418578 1.469999978542328 0.05000000074505806
		endloop
	endfacet
	facet normal 0 -1 0
		outer loop
			vertex 1.1500000238418577 1.3699999785423278 0.15000000074505807
			vertex 1.1500000238418577 1.3699999785423278 0.05000000074505806
			vertex 1.2500000238418578 1.3699999785423278 0.15000000074505807
		endloop
	endfacet
	facet normal 0 -1 0
		outer loop
			vertex 1.1500000238418577 1.3699999785423278 0.05000000074505806
			vertex 1.2500000238418578 1.3699999785423278 0.05000000074505806
			vertex 1.2500000238418578 1.3699999785423278 0.15000000074505807
		endloop
	endfacet
	facet normal 0 0 1
		outer loop
			vertex 1.1500000238418577 1.469999978542328 0.15000000074505807
			vertex 1.1500000238418577 1.3699999785423278 0.15000000074505807
			vertex 1.2500000238418578 1.469999978542328 0.15000000074505807
		endloop
	endfacet
	facet normal 0 0 1
		outer loop
			vertex 1.1500000238418577 1.3699999785423278 0.15000000074505807
			vertex 1.2500000238418578 1.3699999785423278 0.15000000074505807
			vertex 1.2500000238418578 1.469999978542328 0.15000000074505807
		endloop
	endfacet
	facet normal 0 0 -1
		outer loop
			vertex 1.2500000238418578 1.469999978542328 0.05000000074505806
			vertex 1.2500000238418578 1.3699999785423278 0.05000000074505806
			vertex 1.1500000238418577 1.469999978542328 0.05000000074505806
		endloop
	endfacet
	facet normal 0 0 -1
		outer loop
			vertex 1.2500000238418578 1.3699999785423278 0.05000000074505806
			vertex 1.1500000238418577 1.3699999785423278 0.05000000074505806
			vertex 1.1500000238418577 1.469999978542328 0.05000000074505806
		endloop
	endfacet
	facet normal 1 0 0
		outer loop
			vertex 0.7100000131130219 1.6700000023841859 0.5900000107288361
			vertex 0.7100000131130219 1.5700000023841858 0.5900000107288361
			vertex 0.7100000131130219 1.6700000023841859 0.4900000107288361
		endloop
	endfacet
	facet normal 1 0 0
		outer loop
			vertex 0.7100000131130219 1.5700000023841858 0.5900000107288361
			vertex 0.7100000131130219 1.5700000023841858 0.4900000107288361
			vertex 0.7100000131130219 1.6700000023841859 0.4900000107288361
		endloop
	endfacet
	facet normal -1 0 0
		outer loop
			vertex 0.6100000131130219 1.6700000023841859 0.4900000107288361
			vertex 0.6100000131130219 1.5700000023841858 0.4900000107288361
			vertex 0.6100000131130219 1.6700000023841859 0.5900000107288361
		endloop
	endfacet
	facet normal -1 0 0
		outer loop
			vertex 0.6100000131130219 1.5700000023841858 0.4900000107288361
			vertex 0.6100000131130219 1.5700000023841858 0.5900000107288361
			vertex 0.6100000131130219 1.6700000023841859 0.5900000107288361
		endloop
	endfacet
	facet normal 0 1 0
		outer loop
			vertex 0.6100000131130219 1.6700000023841859 0.4900000107288361
			vertex 0.6100000131130219 1.6700000023841859 0.5900000107288361
			vertex 0.7100000131130219 1.6700000023841859 0.4900000107288361
		endloop
	endfacet
	facet normal 0 1 0
		outer loop
			vertex 0.6100000131130219 1.6700000023841859 0.5900000107288361
			vertex 0.7100000131130219 1.6700000023841859 0.5900000107288361
			vertex 0.7100000131130219 1.6700000023841859 0.4900000107288361
		endloop
	endfacet
	facet normal 0 -1 0
		outer loop
			vertex 0.6100000131130219 1.5700000023841858 0.5900000107288361
			vertex 0.6100000131130219 1.5700000023841858 0.4900000107288361
			vertex 0.7100000131130219 1.5700000023841858 0.5900000107288361
		endloop
	endfacet
	facet normal 0 -1 0
		outer loop
			vertex 0.6100000131130219 1.5700000023841858 0.4900000107288361
			vertex 0.7100000131130219 1.5700000023841858 0.4900000107288361
			vertex 0.7100000131130219 1.5700000023841858 0.5900000107288361
		endloop
	endfacet
	facet normal 0 0 1
		outer loop
			vertex 0.6100000131130219 1.6700000023841859 0.5900000107288361
			vertex 0.6100000131130219 1.5700000023841858 0.5900000107288361
			vertex 0.7100000131130219 1.6700000023841859 0.5900000107288361
		endloop
	endfacet
	facet normal 0 0 1
		outer loop
			vertex 0.6100000131130219 1.5700000023841858 0.5900000107288361
			vertex 0.7100000131130219 1.5700000023841858 0.5900000107288361
			vertex 0.7100000131130219 1.6700000023841859 0.5900000107288361
		endloop
	endfacet
	facet normal 0 0 -1
		outer loop
			vertex 0.7100000131130219 1.6700000023841859 0.4900000107288361
			vertex 0.7100000131130219 1.5700000023841858 0.4900000107288361
			vertex 0.6100000131130219 1.6700000023841859 0.4900000107288361
		endloop
	endfacet
	facet normal 0 0 -1
		outer loop
			vertex 0.7100000131130219 1.5700000023841858 0.4900000107288361
			vertex 0.6100000131130219 1.5700000023841858 0.4900000107288361
			vertex 0.6100000131130219 1.6700000023841859 0.4900000107288361
		endloop
	endfacet
	facet normal 0 0 0
		outer loop
			vertex 0.8799999976158142 0.35500000059604647 1.9600000190734863
			vertex 0.8799999976158142 0.20500000059604645 2.110000019073486
			vertex 0.8799999976158142 0.35500000059604647 1.9600000190734863
		endloop
	endfacet
	facet normal 0.5773502691896257 0.5773502691896257 0.5773502691896257
		outer loop
			vertex 0.8799999976158142 0.20500000059604645 2.110000019073486
			vertex 1.0299999976158143 0.20500000059604645 1.9600000190734863
			vertex 0.8799999976158142 0.35500000059604647 1.9600000190734863
		endloop
	endfacet
	facet normal 0 0 0
		outer loop
			vertex 0.8799999976158142 0.35500000059604647 1.9600000190734863
			vertex 1.0299999976158143 0.20500000059604645 1.9600000190734863
			vertex 0.8799999976158142 0.35500000059604647 1.9600000190734863
		endloop
	endfacet
	facet normal 0.5773502691896258 0.5773502691896258 -0.5773502691896257
		outer loop
			vertex 1.0299999976158143 0.20500000059604645 1.9600000190734863
			vertex 0.8799999976158142 0.20500000059604645 1.8100000190734864
			vertex 0.8799999976158142 0.35500000059604647 1.9600000190734863
		endloop
	endfacet
	facet normal 0 0 0
		outer loop
			vertex 0.8799999976158142 0.35500000059604647 1.9600000190734863
			vertex 0.8799999976158142 0.20500000059604645 1.8100000190734864
			vertex 0.8799999976158142 0.35500000059604647 1.9600000190734863
		endloop
	endfacet
	facet normal -0.5773502691896257 0.5773502691896258 -0.577350269189626
		outer loop
			vertex 0.8799999976158142 0.20500000059604645 1.8100000190734864
			vertex 0.7299999976158142 0.20500000059604645 1.9600000190734863
			vertex 0.8799999976158142 0.35500000059604647 1.9600000190734863
		endloop
	endfacet
	facet normal 0 0 0
		outer loop
			vertex 0.8799999976158142 0.35500000059604647 1.9600000190734863
			vertex 0.7299999976158142 0.20500000059604645 1.9600000190734863
			vertex 0.8799999976158142 0.35500000059604647 1.9600000190734863
		endloop
	endfacet
	facet normal -0.5773502691896258 0.5773502691896258 0.5773502691896257
		outer loop
			vertex 0.7299999976158142 0.20500000059604645 1.9600000190734863
			vertex 0.8799999976158142 0.20500000059604645 2.110000019073486
			vertex 0.8799999976158142 0.35500000059604647 1.9600000190734863
		endloop
	endfacet
	facet normal 0 -0.9999999999999999 0
		outer loop
			vertex 1.0299999976158143 0.20500000059604645 1.9600000190734863
			vertex 0.8799999976158142 0.20500000059604645 2.110000019073486
			vertex 0.8799999976158142 0.20500000059604645 1.9600000190734863
		endloop
	endfacet
	facet normal 0 -0.9999999999999999 0
		outer loop
			vertex 0.8799999976158142 0.20500000059604645 1.8100000190734864
			vertex 1.0299999976158143 0.20500000059604645 1.9600000190734863
			vertex 0.8799999976158142 0.20500000059604645 1.9600000190734863
		endloop
	endfacet
	facet normal 0 -0.9999999999999999 0
		outer loop
			vertex 0.7299999976158142 0.20500000059604645 1.9600000190734863
			vertex 0.8799999976158142 0.20500000059604645 1.8100000190734864
			vertex 0.8799999976158142 0.20500000059604645 1.9600000190734863
		endloop
	endfacet
	facet normal 0 -0.9999999999999999 0
		outer loop
			vertex 0.8799999976158142 0.20500000059604645 2.110000019073486
			vertex 0.7299999976158142 0.20500000059604645 1.9600000190734863
			vertex 0.8799999976158142 0.20500000059604645 1.9600000190734863
		endloop
	endfacet
	facet normal 0 0 0
		outer loop
			vertex 0.6999999940395355 1.8349999952316285 1.6200000023841858
			vertex 0.6999999940395355 1.6849999952316286 1.7700000023841858
			vertex 0.6999999940395355 1.8349999952316285 1.6200000023841858
		endloop
	endfacet
	facet normal 0.5773502691896257 0.5773502691896257 0.5773502691896257
		outer loop
			vertex 0.6999999940395355 1.6849999952316286 1.7700000023841858
			vertex 0.8499999940395355 1.6849999952316286 1.6200000023841858
			vertex 0.6999999940395355 1.8349999952316285 1.6200000023841858
		endloop
	endfacet
	facet normal 0 0 0
		outer loop
			vertex 0.6999999940395355 1.8349999952316285 1.6200000023841858
			vertex 0.8499999940395355 1.6849999952316286 1.6200000023841858
			vertex 0.6999999940395355 1.8349999952316285 1.6200000023841858
		endloop
	endfacet
	facet normal 0.5773502691896258 0.5773502691896258 -0.5773502691896257
		outer loop
			vertex 0.8499999940395355 1.6849999952316286 1.6200000023841858
			vertex 0.6999999940395355 1.6849999952316286 1.470000002384186
			vertex 0.6999999940395355 1.8349999952316285 1.6200000023841858
		endloop
	endfacet
	facet normal 0 0 0
		outer loop
			vertex 0.6999999940395355 1.8349999952316285 1.6200000023841858
			vertex 0.6999999940395355 1.6849999952316286 1.470000002384186
			vertex 0.6999999940395355 1.8349999952316285 1.6200000023841858
		endloop
	endfacet
	facet normal -0.5773502691896257 0.5773502691896258 -0.577350269189626
		outer loop
			vertex 0.6999999940395355 1.6849999952316286 1.470000002384186
			vertex 0.5499999940395355 1.6849999952316286 1.6200000023841858
			vertex 0.6999999940395355 1.8349999952316285 1.6200000023841858
		endloop
	endfacet
	facet normal 0 0 0
		outer loop
			vertex 0.6999999940395355 1.8349999952316285 1.6200000023841858
			vertex 0.5499999940395355 1.6849999952316286 1.6200000023841858
			vertex 0.6999999940395355 1.8349999952316285 1.6200000023841858
		endloop
	endfacet
	facet normal -0.5773502691896258 0.5773502691896258 0.5773502691896257
		outer loop
			vertex 0.5499999940395355 1.6849999952316286 1.6200000023841858
			vertex 0.6999999940395354 1.6849999952316286 1.7700000023841858
			vertex 0.6999999940395355 1.8349999952316285 1.6200000023841858
		endloop
	endfacet
	facet normal 0 -0.9999999999999999 0
		outer loop
			vertex 0.8499999940395355 1.6849999952316286 1.6200000023841858
			vertex 0.6999999940395355 1.6849999952316286 1.7700000023841858
			vertex 0.6999999940395355 1.6849999952316286 1.6200000023841858
		endloop
	endfacet
	facet normal 0 -0.9999999999999999 0
		outer loop
			vertex 0.6999999940395355 1.6849999952316286 1.470000002384186
			vertex 0.8499999940395355 1.6849999952316286 1.6200000023841858
			vertex 0.6999999940395355 1.6849999952316286 1.6200000023841858
		endloop
	endfacet
	facet normal 0 -0.9999999999999999 0
		outer loop
			vertex 0.5499999940395355 1.6849999952316286 1.6200000023841858
			vertex 0.6999999940395355 1.6849999952316286 1.470000002384186
			vertex 0.6999999940395355 1.6849999952316286 1.6200000023841858
		endloop
	endfacet
	facet normal 0 -0.9999999999999999 0
		outer loop
			vertex 0.6999999940395354 1.6849999952316286 1.7700000023841858
			vertex 0.5499999940395355 1.6849999952316286 1.6200000023841858
			vertex 0.6999999940395355 1.6849999952316286 1.6200000023841858
		endloop
	endfacet
	facet normal 0 0 0
		outer loop
			vertex 1.4199999785423278 0.13499999932944773 1.200000023841858
			vertex 1.4199999785423278 -0.015000000670552252 1.350000023841858
			vertex 1.4199999785423278 0.13499999932944773 1.200000023841858
		endloop
	endfacet
	facet normal 0.5773502691896257 0.5773502691896257 0.5773502691896257
		outer loop
			vertex 1.4199999785423278 -0.015000000670552252 1.350000023841858
			vertex 1.5699999785423278 -0.015000000670552252 1.200000023841858
			vertex 1.4199999785423278 0.13499999932944773 1.200000023841858
		endloop
	endfacet
	facet normal 0 0 0
		outer loop
			vertex 1.4199999785423278 0.13499999932944773 1.200000023841858
			vertex 1.5699999785423278 -0.015000000670552252 1.200000023841858
			vertex 1.4199999785423278 0.13499999932944773 1.200000023841858
		endloop
	endfacet
	facet normal 0.5773502691896258 0.5773502691896258 -0.5773502691896257
		outer loop
			vertex 1.5699999785423278 -0.015000000670552252 1.200000023841858
			vertex 1.4199999785423278 -0.015000000670552252 1.0500000238418579
			vertex 1.4199999785423278 0.13499999932944773 1.200000023841858
		endloop
	endfacet
	facet normal 0 0 0
		outer loop
			vertex 1.4199999785423278 0.13499999932944773 1.200000023841858
			vertex 1.4199999785423278 -0.015000000670552252 1.0500000238418579
			vertex 1.4199999785423278 0.13499999932944773 1.200000023841858
		endloop
	endfacet
	facet normal -0.5773502691896257 0.5773502691896258 -0.577350269189626
		outer loop
			vertex 1.4199999785423278 -0.015000000670552252 1.0500000238418579
			vertex 1.269999978542328 -0.015000000670552252 1.200000023841858
			vertex 1.4199999785423278 0.13499999932944773 1.200000023841858
		endloop
	endfacet
	facet normal 0 0 0
		outer loop
			vertex 1.4199999785423278 0.13499999932944773 1.200000023841858
			vertex 1.269999978542328 -0.015000000670552252 1.200000023841858
			vertex 1.4199999785423278 0.13499999932944773 1.200000023841858
		endloop
	endfacet
	facet normal -0.5773502691896258 0.5773502691896258 0.5773502691896257
		outer loop
			vertex 1.269999978542328 -0.015000000670552252 1.200000023841858
			vertex 1.4199999785423278 -0.015000000670552252 1.350000023841858
			vertex 1.4199999785423278 0.13499999932944773 1.200000023841858
		endloop
	endfacet
	facet normal 0 -0.9999999999999999 0
		outer loop
			vertex 1.5699999785423278 -0.015000000670552252 1.200000023841858
			vertex 1.4199999785423278 -0.015000000670552252 1.350000023841858
			vertex 1.4199999785423278 -0.015000000670552252 1.200000023841858
		endloop
	endfacet
	facet normal 0 -0.9999999999999999 0
		outer loop
			vertex 1.4199999785423278 -0.015000000670552252 1.0500000238418579
			vertex 1.5699999785423278 -0.015000000670552252 1.200000023841858
			vertex 1.4199999785423278 -0.015000000670552252 1.200000023841858
		endloop
	endfacet
	facet normal 0 -0.9999999999999999 0
		outer loop
			vertex 1.269999978542328 -0.015000000670552252 1.200000023841858
			vertex 1.4199999785423278 -0.015000000670552252 1.0500000238418579
			vertex 1.4199999785423278 -0.015000000670552252 1.200000023841858
		endloop
	endfacet
	facet normal 0 -0.9999999999999999 0
		outer loop
			vertex 1.4199999785423278 -0.015000000670552252 1.350000023841858
			vertex 1.269999978542328 -0.015000000670552252 1.200000023841858
			vertex 1.4199999785423278 -0.015000000670552252 1.200000023841858
		endloop
	endfacet
endsolid exported
