solid exported
	facet normal 1 0 0
		outer loop
			vertex 1.949999988079071 1.5300000095367432 1.3099999952316286
			vertex 1.949999988079071 1.430000009536743 1.3099999952316286
			vertex 1.949999988079071 1.5300000095367432 1.2099999952316285
		endloop
	endfacet
	facet normal 1 0 0
		outer loop
			vertex 1.949999988079071 1.430000009536743 1.3099999952316286
			vertex 1.949999988079071 1.430000009536743 1.2099999952316285
			vertex 1.949999988079071 1.5300000095367432 1.2099999952316285
		endloop
	endfacet
	facet normal -1 0 0
		outer loop
			vertex 1.849999988079071 1.5300000095367432 1.2099999952316285
			vertex 1.849999988079071 1.430000009536743 1.2099999952316285
			vertex 1.849999988079071 1.5300000095367432 1.3099999952316286
		endloop
	endfacet
	facet normal -1 0 0
		outer loop
			vertex 1.849999988079071 1.430000009536743 1.2099999952316285
			vertex 1.849999988079071 1.430000009536743 1.3099999952316286
			vertex 1.849999988079071 1.5300000095367432 1.3099999952316286
		endloop
	endfacet
	facet normal 0 1 0
		outer loop
			vertex 1.849999988079071 1.5300000095367432 1.2099999952316285
			vertex 1.849999988079071 1.5300000095367432 1.3099999952316286
			vertex 1.949999988079071 1.5300000095367432 1.2099999952316285
		endloop
	endfacet
	facet normal 0 1 0
		outer loop
			vertex 1.849999988079071 1.5300000095367432 1.3099999952316286
			vertex 1.949999988079071 1.5300000095367432 1.3099999952316286
			vertex 1.949999988079071 1.5300000095367432 1.2099999952316285
		endloop
	endfacet
	facet normal 0 -1 0
		outer loop
			vertex 1.849999988079071 1.430000009536743 1.3099999952316286
			vertex 1.849999988079071 1.430000009536743 1.2099999952316285
			vertex 1.949999988079071 1.430000009536743 1.3099999952316286
		endloop
	endfacet
	facet normal 0 -1 0
		outer loop
			vertex 1.849999988079071 1.430000009536743 1.2099999952316285
			vertex 1.949999988079071 1.430000009536743 1.2099999952316285
			vertex 1.949999988079071 1.430000009536743 1.3099999952316286
		endloop
	endfacet
	facet normal 0 0 1
		outer loop
			vertex 1.849999988079071 1.5300000095367432 1.3099999952316286
			vertex 1.849999988079071 1.430000009536743 1.3099999952316286
			vertex 1.949999988079071 1.5300000095367432 1.3099999952316286
		endloop
	endfacet
	facet normal 0 0 1
		outer loop
			vertex 1.849999988079071 1.430000009536743 1.3099999952316286
			vertex 1.949999988079071 1.430000009536743 1.3099999952316286
			vertex 1.949999988079071 1.5300000095367432 1.3099999952316286
		endloop
	endfacet
	facet normal 0 0 -1
		outer loop
			vertex 1.949999988079071 1.5300000095367432 1.2099999952316285
			vertex 1.949999988079071 1.430000009536743 1.2099999952316285
			vertex 1.849999988079071 1.5300000095367432 1.2099999952316285
		endloop
	endfacet
	facet normal 0 0 -1
		outer loop
			vertex 1.949999988079071 1.430000009536743 1.2099999952316285
			vertex 1.849999988079071 1.430000009536743 1.2099999952316285
			vertex 1.849999988079071 1.5300000095367432 1.2099999952316285
		endloop
	endfacet
	facet normal 1 0 0
		outer loop
			vertex 0.6700000023841858 0.6299999916553497 0.05
			vertex 0.6700000023841858 0.5299999916553497 0.05
			vertex 0.6700000023841858 0.6299999916553497 -0.05
		endloop
	endfacet
	facet normal 1 0 0
		outer loop
			vertex 0.6700000023841858 0.5299999916553497 0.05
			vertex 0.6700000023841858 0.5299999916553497 -0.05
			vertex 0.6700000023841858 0.6299999916553497 -0.05
		endloop
	endfacet
	facet normal -1 0 0
		outer loop
			vertex 0.5700000023841858 0.6299999916553497 -0.05
			vertex 0.5700000023841858 0.5299999916553497 -0.05
			vertex 0.5700000023841858 0.6299999916553497 0.05
		endloop
	endfacet
	facet normal -1 0 0
		outer loop
			vertex 0.5700000023841858 0.5299999916553497 -0.05
			vertex 0.5700000023841858 0.5299999916553497 0.05
			vertex 0.5700000023841858 0.6299999916553497 0.05
		endloop
	endfacet
	facet normal 0 1 0
		outer loop
			vertex 0.5700000023841858 0.6299999916553497 -0.05
			vertex 0.5700000023841858 0.6299999916553497 0.05
			vertex 0.6700000023841858 0.6299999916553497 -0.05
		endloop
	endfacet
	facet normal 0 1 0
		outer loop
			vertex 0.5700000023841858 0.6299999916553497 0.05
			vertex 0.6700000023841858 0.6299999916553497 0.05
			vertex 0.6700000023841858 0.6299999916553497 -0.05
		endloop
	endfacet
	facet normal 0 -1 0
		outer loop
			vertex 0.5700000023841858 0.5299999916553497 0.05
			vertex 0.5700000023841858 0.5299999916553497 -0.05
			vertex 0.6700000023841858 0.5299999916553497 0.05
		endloop
	endfacet
	facet normal 0 -1 0
		outer loop
			vertex 0.5700000023841858 0.5299999916553497 -0.05
			vertex 0.6700000023841858 0.5299999916553497 -0.05
			vertex 0.6700000023841858 0.5299999916553497 0.05
		endloop
	endfacet
	facet normal 0 0 1
		outer loop
			vertex 0.5700000023841858 0.6299999916553497 0.05
			vertex 0.5700000023841858 0.5299999916553497 0.05
			vertex 0.6700000023841858 0.6299999916553497 0.05
		endloop
	endfacet
	facet normal 0 0 1
		outer loop
			vertex 0.5700000023841858 0.5299999916553497 0.05
			vertex 0.6700000023841858 0.5299999916553497 0.05
			vertex 0.6700000023841858 0.6299999916553497 0.05
		endloop
	endfacet
	facet normal 0 0 -1
		outer loop
			vertex 0.6700000023841858 0.6299999916553497 -0.05
			vertex 0.6700000023841858 0.5299999916553497 -0.05
			vertex 0.5700000023841858 0.6299999916553497 -0.05
		endloop
	endfacet
	facet normal 0 0 -1
		outer loop
			vertex 0.6700000023841858 0.5299999916553497 -0.05
			vertex 0.5700000023841858 0.5299999916553497 -0.05
			vertex 0.5700000023841858 0.6299999916553497 -0.05
		endloop
	endfacet
	facet normal 1 0 0
		outer loop
			vertex 0.3699999964237213 0.5900000107288361 1.7500000238418578
			vertex 0.3699999964237213 0.4900000107288361 1.7500000238418578
			vertex 0.3699999964237213 0.5900000107288361 1.6500000238418577
		endloop
	endfacet
	facet normal 1 0 0
		outer loop
			vertex 0.3699999964237213 0.4900000107288361 1.7500000238418578
			vertex 0.3699999964237213 0.4900000107288361 1.6500000238418577
			vertex 0.3699999964237213 0.5900000107288361 1.6500000238418577
		endloop
	endfacet
	facet normal -1 0 0
		outer loop
			vertex 0.2699999964237213 0.5900000107288361 1.6500000238418577
			vertex 0.2699999964237213 0.4900000107288361 1.6500000238418577
			vertex 0.2699999964237213 0.5900000107288361 1.7500000238418578
		endloop
	endfacet
	facet normal -1 0 0
		outer loop
			vertex 0.2699999964237213 0.4900000107288361 1.6500000238418577
			vertex 0.2699999964237213 0.4900000107288361 1.7500000238418578
			vertex 0.2699999964237213 0.5900000107288361 1.7500000238418578
		endloop
	endfacet
	facet normal 0 1 0
		outer loop
			vertex 0.2699999964237213 0.5900000107288361 1.6500000238418577
			vertex 0.2699999964237213 0.5900000107288361 1.7500000238418578
			vertex 0.3699999964237213 0.5900000107288361 1.6500000238418577
		endloop
	endfacet
	facet normal 0 1 0
		outer loop
			vertex 0.2699999964237213 0.5900000107288361 1.7500000238418578
			vertex 0.3699999964237213 0.5900000107288361 1.7500000238418578
			vertex 0.3699999964237213 0.5900000107288361 1.6500000238418577
		endloop
	endfacet
	facet normal 0 -1 0
		outer loop
			vertex 0.2699999964237213 0.4900000107288361 1.7500000238418578
			vertex 0.2699999964237213 0.4900000107288361 1.6500000238418577
			vertex 0.3699999964237213 0.4900000107288361 1.7500000238418578
		endloop
	endfacet
	facet normal 0 -1 0
		outer loop
			vertex 0.2699999964237213 0.4900000107288361 1.6500000238418577
			vertex 0.3699999964237213 0.4900000107288361 1.6500000238418577
			vertex 0.3699999964237213 0.4900000107288361 1.7500000238418578
		endloop
	endfacet
	facet normal 0 0 1
		outer loop
			vertex 0.2699999964237213 0.5900000107288361 1.7500000238418578
			vertex 0.2699999964237213 0.4900000107288361 1.7500000238418578
			vertex 0.3699999964237213 0.5900000107288361 1.7500000238418578
		endloop
	endfacet
	facet normal 0 0 1
		outer loop
			vertex 0.2699999964237213 0.4900000107288361 1.7500000238418578
			vertex 0.3699999964237213 0.4900000107288361 1.7500000238418578
			vertex 0.3699999964237213 0.5900000107288361 1.7500000238418578
		endloop
	endfacet
	facet normal 0 0 -1
		outer loop
			vertex 0.3699999964237213 0.5900000107288361 1.6500000238418577
			vertex 0.3699999964237213 0.4900000107288361 1.6500000238418577
			vertex 0.2699999964237213 0.5900000107288361 1.6500000238418577
		endloop
	endfacet
	facet normal 0 0 -1
		outer loop
			vertex 0.3699999964237213 0.4900000107288361 1.6500000238418577
			vertex 0.2699999964237213 0.4900000107288361 1.6500000238418577
			vertex 0.2699999964237213 0.5900000107288361 1.6500000238418577
		endloop
	endfacet
	facet normal 1 0 0
		outer loop
			vertex 0.7300000035762787 1.1899999928474427 0.7499999940395354
			vertex 0.7300000035762787 1.0899999928474426 0.7499999940395354
			vertex 0.7300000035762787 1.1899999928474427 0.6499999940395356
		endloop
	endfacet
	facet normal 1 0 0
		outer loop
			vertex 0.7300000035762787 1.0899999928474426 0.7499999940395354
			vertex 0.7300000035762787 1.0899999928474426 0.6499999940395356
			vertex 0.7300000035762787 1.1899999928474427 0.6499999940395356
		endloop
	endfacet
	facet normal -1 0 0
		outer loop
			vertex 0.6300000035762787 1.1899999928474427 0.6499999940395356
			vertex 0.6300000035762787 1.0899999928474426 0.6499999940395356
			vertex 0.6300000035762787 1.1899999928474427 0.7499999940395354
		endloop
	endfacet
	facet normal -1 0 0
		outer loop
			vertex 0.6300000035762787 1.0899999928474426 0.6499999940395356
			vertex 0.6300000035762787 1.0899999928474426 0.7499999940395354
			vertex 0.6300000035762787 1.1899999928474427 0.7499999940395354
		endloop
	endfacet
	facet normal 0 1 0
		outer loop
			vertex 0.6300000035762787 1.1899999928474427 0.6499999940395356
			vertex 0.6300000035762787 1.1899999928474427 0.7499999940395354
			vertex 0.7300000035762787 1.1899999928474427 0.6499999940395356
		endloop
	endfacet
	facet normal 0 1 0
		outer loop
			vertex 0.6300000035762787 1.1899999928474427 0.7499999940395354
			vertex 0.7300000035762787 1.1899999928474427 0.7499999940395354
			vertex 0.7300000035762787 1.1899999928474427 0.6499999940395356
		endloop
	endfacet
	facet normal 0 -1 0
		outer loop
			vertex 0.6300000035762787 1.0899999928474426 0.7499999940395354
			vertex 0.6300000035762787 1.0899999928474426 0.6499999940395356
			vertex 0.7300000035762787 1.0899999928474426 0.7499999940395354
		endloop
	endfacet
	facet normal 0 -1 0
		outer loop
			vertex 0.6300000035762787 1.0899999928474426 0.6499999940395356
			vertex 0.7300000035762787 1.0899999928474426 0.6499999940395356
			vertex 0.7300000035762787 1.0899999928474426 0.7499999940395354
		endloop
	endfacet
	facet normal 0 0 1
		outer loop
			vertex 0.6300000035762787 1.1899999928474427 0.7499999940395354
			vertex 0.6300000035762787 1.0899999928474426 0.7499999940395354
			vertex 0.7300000035762787 1.1899999928474427 0.7499999940395354
		endloop
	endfacet
	facet normal 0 0 1
		outer loop
			vertex 0.6300000035762787 1.0899999928474426 0.7499999940395354
			vertex 0.7300000035762787 1.0899999928474426 0.7499999940395354
			vertex 0.7300000035762787 1.1899999928474427 0.7499999940395354
		endloop
	endfacet
	facet normal 0 0 -1
		outer loop
			vertex 0.7300000035762787 1.1899999928474427 0.6499999940395356
			vertex 0.7300000035762787 1.0899999928474426 0.6499999940395356
			vertex 0.6300000035762787 1.1899999928474427 0.6499999940395356
		endloop
	endfacet
	facet normal 0 0 -1
		outer loop
			vertex 0.7300000035762787 1.0899999928474426 0.6499999940395356
			vertex 0.6300000035762787 1.0899999928474426 0.6499999940395356
			vertex 0.6300000035762787 1.1899999928474427 0.6499999940395356
		endloop
	endfacet
	facet normal 1 0 0
		outer loop
			vertex 1.9100000071525574 1.3499999761581423 1.1899999928474427
			vertex 1.9100000071525574 1.2499999761581422 1.1899999928474427
			vertex 1.9100000071525574 1.3499999761581423 1.0899999928474426
		endloop
	endfacet
	facet normal 1 0 0
		outer loop
			vertex 1.9100000071525574 1.2499999761581422 1.1899999928474427
			vertex 1.9100000071525574 1.2499999761581422 1.0899999928474426
			vertex 1.9100000071525574 1.3499999761581423 1.0899999928474426
		endloop
	endfacet
	facet normal -1 0 0
		outer loop
			vertex 1.8100000071525573 1.3499999761581423 1.0899999928474426
			vertex 1.8100000071525573 1.2499999761581422 1.0899999928474426
			vertex 1.8100000071525573 1.3499999761581423 1.1899999928474427
		endloop
	endfacet
	facet normal -1 0 0
		outer loop
			vertex 1.8100000071525573 1.2499999761581422 1.0899999928474426
			vertex 1.8100000071525573 1.2499999761581422 1.1899999928474427
			vertex 1.8100000071525573 1.3499999761581423 1.1899999928474427
		endloop
	endfacet
	facet normal 0 1 0
		outer loop
			vertex 1.8100000071525573 1.3499999761581423 1.0899999928474426
			vertex 1.8100000071525573 1.3499999761581423 1.1899999928474427
			vertex 1.9100000071525574 1.3499999761581423 1.0899999928474426
		endloop
	endfacet
	facet normal 0 1 0
		outer loop
			vertex 1.8100000071525573 1.3499999761581423 1.1899999928474427
			vertex 1.9100000071525574 1.3499999761581423 1.1899999928474427
			vertex 1.9100000071525574 1.3499999761581423 1.0899999928474426
		endloop
	endfacet
	facet normal 0 -1 0
		outer loop
			vertex 1.8100000071525573 1.2499999761581422 1.1899999928474427
			vertex 1.8100000071525573 1.2499999761581422 1.0899999928474426
			vertex 1.9100000071525574 1.2499999761581422 1.1899999928474427
		endloop
	endfacet
	facet normal 0 -1 0
		outer loop
			vertex 1.8100000071525573 1.2499999761581422 1.0899999928474426
			vertex 1.9100000071525574 1.2499999761581422 1.0899999928474426
			vertex 1.9100000071525574 1.2499999761581422 1.1899999928474427
		endloop
	endfacet
	facet normal 0 0 1
		outer loop
			vertex 1.8100000071525573 1.3499999761581423 1.1899999928474427
			vertex 1.8100000071525573 1.2499999761581422 1.1899999928474427
			vertex 1.9100000071525574 1.3499999761581423 1.1899999928474427
		endloop
	endfacet
	facet normal 0 0 1
		outer loop
			vertex 1.8100000071525573 1.2499999761581422 1.1899999928474427
			vertex 1.9100000071525574 1.2499999761581422 1.1899999928474427
			vertex 1.9100000071525574 1.3499999761581423 1.1899999928474427
		endloop
	endfacet
	facet normal 0 0 -1
		outer loop
			vertex 1.9100000071525574 1.3499999761581423 1.0899999928474426
			vertex 1.9100000071525574 1.2499999761581422 1.0899999928474426
			vertex 1.8100000071525573 1.3499999761581423 1.0899999928474426
		endloop
	endfacet
	facet normal 0 0 -1
		outer loop
			vertex 1.9100000071525574 1.2499999761581422 1.0899999928474426
			vertex 1.8100000071525573 1.2499999761581422 1.0899999928474426
			vertex 1.8100000071525573 1.3499999761581423 1.0899999928474426
		endloop
	endfacet
endsolid exported
