solid exported
	facet normal 1 0 0
		outer loop
			vertex 0.15000000074505807 0.9700000083446503 0.6500000119209289
			vertex 0.15000000074505807 0.8700000083446503 0.6500000119209289
			vertex 0.15000000074505807 0.9700000083446503 0.550000011920929
		endloop
	endfacet
	facet normal 1 0 0
		outer loop
			vertex 0.15000000074505807 0.8700000083446503 0.6500000119209289
			vertex 0.15000000074505807 0.8700000083446503 0.550000011920929
			vertex 0.15000000074505807 0.9700000083446503 0.550000011920929
		endloop
	endfacet
	facet normal -1 0 0
		outer loop
			vertex 0.05000000074505806 0.9700000083446503 0.550000011920929
			vertex 0.05000000074505806 0.8700000083446503 0.550000011920929
			vertex 0.05000000074505806 0.9700000083446503 0.6500000119209289
		endloop
	endfacet
	facet normal -1 0 0
		outer loop
			vertex 0.05000000074505806 0.8700000083446503 0.550000011920929
			vertex 0.05000000074505806 0.8700000083446503 0.6500000119209289
			vertex 0.05000000074505806 0.9700000083446503 0.6500000119209289
		endloop
	endfacet
	facet normal 0 1 0
		outer loop
			vertex 0.05000000074505806 0.9700000083446503 0.550000011920929
			vertex 0.05000000074505806 0.9700000083446503 0.6500000119209289
			vertex 0.15000000074505807 0.9700000083446503 0.550000011920929
		endloop
	endfacet
	facet normal 0 1 0
		outer loop
			vertex 0.05000000074505806 0.9700000083446503 0.6500000119209289
			vertex 0.15000000074505807 0.9700000083446503 0.6500000119209289
			vertex 0.15000000074505807 0.9700000083446503 0.550000011920929
		endloop
	endfacet
	facet normal 0 -1 0
		outer loop
			vertex 0.05000000074505806 0.8700000083446503 0.6500000119209289
			vertex 0.05000000074505806 0.8700000083446503 0.550000011920929
			vertex 0.15000000074505807 0.8700000083446503 0.6500000119209289
		endloop
	endfacet
	facet normal 0 -1 0
		outer loop
			vertex 0.05000000074505806 0.8700000083446503 0.550000011920929
			vertex 0.15000000074505807 0.8700000083446503 0.550000011920929
			vertex 0.15000000074505807 0.8700000083446503 0.6500000119209289
		endloop
	endfacet
	facet normal 0 0 1
		outer loop
			vertex 0.05000000074505806 0.9700000083446503 0.6500000119209289
			vertex 0.05000000074505806 0.8700000083446503 0.6500000119209289
			vertex 0.15000000074505807 0.9700000083446503 0.6500000119209289
		endloop
	endfacet
	facet normal 0 0 1
		outer loop
			vertex 0.05000000074505806 0.8700000083446503 0.6500000119209289
			vertex 0.15000000074505807 0.8700000083446503 0.6500000119209289
			vertex 0.15000000074505807 0.9700000083446503 0.6500000119209289
		endloop
	endfacet
	facet normal 0 0 -1
		outer loop
			vertex 0.15000000074505807 0.9700000083446503 0.550000011920929
			vertex 0.15000000074505807 0.8700000083446503 0.550000011920929
			vertex 0.05000000074505806 0.9700000083446503 0.550000011920929
		endloop
	endfacet
	facet normal 0 0 -1
		outer loop
			vertex 0.15000000074505807 0.8700000083446503 0.550000011920929
			vertex 0.05000000074505806 0.8700000083446503 0.550000011920929
			vertex 0.05000000074505806 0.9700000083446503 0.550000011920929
		endloop
	endfacet
	facet normal 1 0 0
		outer loop
			vertex 0.8299999856948852 0.8500000059604644 0.3099999952316284
			vertex 0.8299999856948852 0.7500000059604646 0.3099999952316284
			vertex 0.8299999856948852 0.8500000059604644 0.20999999523162843
		endloop
	endfacet
	facet normal 1 0 0
		outer loop
			vertex 0.8299999856948852 0.7500000059604646 0.3099999952316284
			vertex 0.8299999856948852 0.7500000059604646 0.20999999523162843
			vertex 0.8299999856948852 0.8500000059604644 0.20999999523162843
		endloop
	endfacet
	facet normal -1 0 0
		outer loop
			vertex 0.7299999856948853 0.8500000059604644 0.20999999523162843
			vertex 0.7299999856948853 0.7500000059604646 0.20999999523162843
			vertex 0.7299999856948853 0.8500000059604644 0.3099999952316284
		endloop
	endfacet
	facet normal -1 0 0
		outer loop
			vertex 0.7299999856948853 0.7500000059604646 0.20999999523162843
			vertex 0.7299999856948853 0.7500000059604646 0.3099999952316284
			vertex 0.7299999856948853 0.8500000059604644 0.3099999952316284
		endloop
	endfacet
	facet normal 0 1 0
		outer loop
			vertex 0.7299999856948853 0.8500000059604644 0.20999999523162843
			vertex 0.7299999856948853 0.8500000059604644 0.3099999952316284
			vertex 0.8299999856948852 0.8500000059604644 0.20999999523162843
		endloop
	endfacet
	facet normal 0 1 0
		outer loop
			vertex 0.7299999856948853 0.8500000059604644 0.3099999952316284
			vertex 0.8299999856948852 0.8500000059604644 0.3099999952316284
			vertex 0.8299999856948852 0.8500000059604644 0.20999999523162843
		endloop
	endfacet
	facet normal 0 -1 0
		outer loop
			vertex 0.7299999856948853 0.7500000059604646 0.3099999952316284
			vertex 0.7299999856948853 0.7500000059604646 0.20999999523162843
			vertex 0.8299999856948852 0.7500000059604646 0.3099999952316284
		endloop
	endfacet
	facet normal 0 -1 0
		outer loop
			vertex 0.7299999856948853 0.7500000059604646 0.20999999523162843
			vertex 0.8299999856948852 0.7500000059604646 0.20999999523162843
			vertex 0.8299999856948852 0.7500000059604646 0.3099999952316284
		endloop
	endfacet
	facet normal 0 0 1
		outer loop
			vertex 0.7299999856948853 0.8500000059604644 0.3099999952316284
			vertex 0.7299999856948853 0.7500000059604646 0.3099999952316284
			vertex 0.8299999856948852 0.8500000059604644 0.3099999952316284
		endloop
	endfacet
	facet normal 0 0 1
		outer loop
			vertex 0.7299999856948853 0.7500000059604646 0.3099999952316284
			vertex 0.8299999856948852 0.7500000059604646 0.3099999952316284
			vertex 0.8299999856948852 0.8500000059604644 0.3099999952316284
		endloop
	endfacet
	facet normal 0 0 -1
		outer loop
			vertex 0.8299999856948852 0.8500000059604644 0.20999999523162843
			vertex 0.8299999856948852 0.7500000059604646 0.20999999523162843
			vertex 0.7299999856948853 0.8500000059604644 0.20999999523162843
		endloop
	endfacet
	facet normal 0 0 -1
		outer loop
			vertex 0.8299999856948852 0.7500000059604646 0.20999999523162843
			vertex 0.7299999856948853 0.7500000059604646 0.20999999523162843
			vertex 0.7299999856948853 0.8500000059604644 0.20999999523162843
		endloop
	endfacet
	facet normal 1 0 0
		outer loop
			vertex 0.55 1.05 1.2700000143051149
			vertex 0.55 0.95 1.2700000143051149
			vertex 0.55 1.05 1.1700000143051148
		endloop
	endfacet
	facet normal 1 0 0
		outer loop
			vertex 0.55 0.95 1.2700000143051149
			vertex 0.55 0.95 1.1700000143051148
			vertex 0.55 1.05 1.1700000143051148
		endloop
	endfacet
	facet normal -1 0 0
		outer loop
			vertex 0.45 1.05 1.1700000143051148
			vertex 0.45 0.95 1.1700000143051148
			vertex 0.45 1.05 1.2700000143051149
		endloop
	endfacet
	facet normal -1 0 0
		outer loop
			vertex 0.45 0.95 1.1700000143051148
			vertex 0.45 0.95 1.2700000143051149
			vertex 0.45 1.05 1.2700000143051149
		endloop
	endfacet
	facet normal 0 1 0
		outer loop
			vertex 0.45 1.05 1.1700000143051148
			vertex 0.45 1.05 1.2700000143051149
			vertex 0.55 1.05 1.1700000143051148
		endloop
	endfacet
	facet normal 0 1 0
		outer loop
			vertex 0.45 1.05 1.2700000143051149
			vertex 0.55 1.05 1.2700000143051149
			vertex 0.55 1.05 1.1700000143051148
		endloop
	endfacet
	facet normal 0 -1 0
		outer loop
			vertex 0.45 0.95 1.2700000143051149
			vertex 0.45 0.95 1.1700000143051148
			vertex 0.55 0.95 1.2700000143051149
		endloop
	endfacet
	facet normal 0 -1 0
		outer loop
			vertex 0.45 0.95 1.1700000143051148
			vertex 0.55 0.95 1.1700000143051148
			vertex 0.55 0.95 1.2700000143051149
		endloop
	endfacet
	facet normal 0 0 1
		outer loop
			vertex 0.45 1.05 1.2700000143051149
			vertex 0.45 0.95 1.2700000143051149
			vertex 0.55 1.05 1.2700000143051149
		endloop
	endfacet
	facet normal 0 0 1
		outer loop
			vertex 0.45 0.95 1.2700000143051149
			vertex 0.55 0.95 1.2700000143051149
			vertex 0.55 1.05 1.2700000143051149
		endloop
	endfacet
	facet normal 0 0 -1
		outer loop
			vertex 0.55 1.05 1.1700000143051148
			vertex 0.55 0.95 1.1700000143051148
			vertex 0.45 1.05 1.1700000143051148
		endloop
	endfacet
	facet normal 0 0 -1
		outer loop
			vertex 0.55 0.95 1.1700000143051148
			vertex 0.45 0.95 1.1700000143051148
			vertex 0.45 1.05 1.1700000143051148
		endloop
	endfacet
	facet normal 1 0 0
		outer loop
			vertex 1.150000011920929 1.9299999976158142 1.7299999737739564
			vertex 1.150000011920929 1.8299999976158141 1.7299999737739564
			vertex 1.150000011920929 1.9299999976158142 1.6299999737739563
		endloop
	endfacet
	facet normal 1 0 0
		outer loop
			vertex 1.150000011920929 1.8299999976158141 1.7299999737739564
			vertex 1.150000011920929 1.8299999976158141 1.6299999737739563
			vertex 1.150000011920929 1.9299999976158142 1.6299999737739563
		endloop
	endfacet
	facet normal -1 0 0
		outer loop
			vertex 1.050000011920929 1.9299999976158142 1.6299999737739563
			vertex 1.050000011920929 1.8299999976158141 1.6299999737739563
			vertex 1.050000011920929 1.9299999976158142 1.7299999737739564
		endloop
	endfacet
	facet normal -1 0 0
		outer loop
			vertex 1.050000011920929 1.8299999976158141 1.6299999737739563
			vertex 1.050000011920929 1.8299999976158141 1.7299999737739564
			vertex 1.050000011920929 1.9299999976158142 1.7299999737739564
		endloop
	endfacet
	facet normal 0 1 0
		outer loop
			vertex 1.050000011920929 1.9299999976158142 1.6299999737739563
			vertex 1.050000011920929 1.9299999976158142 1.7299999737739564
			vertex 1.150000011920929 1.9299999976158142 1.6299999737739563
		endloop
	endfacet
	facet normal 0 1 0
		outer loop
			vertex 1.050000011920929 1.9299999976158142 1.7299999737739564
			vertex 1.150000011920929 1.9299999976158142 1.7299999737739564
			vertex 1.150000011920929 1.9299999976158142 1.6299999737739563
		endloop
	endfacet
	facet normal 0 -1 0
		outer loop
			vertex 1.050000011920929 1.8299999976158141 1.7299999737739564
			vertex 1.050000011920929 1.8299999976158141 1.6299999737739563
			vertex 1.150000011920929 1.8299999976158141 1.7299999737739564
		endloop
	endfacet
	facet normal 0 -1 0
		outer loop
			vertex 1.050000011920929 1.8299999976158141 1.6299999737739563
			vertex 1.150000011920929 1.8299999976158141 1.6299999737739563
			vertex 1.150000011920929 1.8299999976158141 1.7299999737739564
		endloop
	endfacet
	facet normal 0 0 1
		outer loop
			vertex 1.050000011920929 1.9299999976158142 1.7299999737739564
			vertex 1.050000011920929 1.8299999976158141 1.7299999737739564
			vertex 1.150000011920929 1.9299999976158142 1.7299999737739564
		endloop
	endfacet
	facet normal 0 0 1
		outer loop
			vertex 1.050000011920929 1.8299999976158141 1.7299999737739564
			vertex 1.150000011920929 1.8299999976158141 1.7299999737739564
			vertex 1.150000011920929 1.9299999976158142 1.7299999737739564
		endloop
	endfacet
	facet normal 0 0 -1
		outer loop
			vertex 1.150000011920929 1.9299999976158142 1.6299999737739563
			vertex 1.150000011920929 1.8299999976158141 1.6299999737739563
			vertex 1.050000011920929 1.9299999976158142 1.6299999737739563
		endloop
	endfacet
	facet normal 0 0 -1
		outer loop
			vertex 1.150000011920929 1.8299999976158141 1.6299999737739563
			vertex 1.050000011920929 1.8299999976158141 1.6299999737739563
			vertex 1.050000011920929 1.9299999976158142 1.6299999737739563
		endloop
	endfacet
	facet normal 1 0 0
		outer loop
			vertex 0.949999988079071 1.0300000095367432 1.569999990463257
			vertex 0.949999988079071 0.9300000095367431 1.569999990463257
			vertex 0.949999988079071 1.0300000095367432 1.4699999904632568
		endloop
	endfacet
	facet normal 1 0 0
		outer loop
			vertex 0.949999988079071 0.9300000095367431 1.569999990463257
			vertex 0.949999988079071 0.9300000095367431 1.4699999904632568
			vertex 0.949999988079071 1.0300000095367432 1.4699999904632568
		endloop
	endfacet
	facet normal -1 0 0
		outer loop
			vertex 0.8499999880790711 1.0300000095367432 1.4699999904632568
			vertex 0.8499999880790711 0.9300000095367431 1.4699999904632568
			vertex 0.8499999880790711 1.0300000095367432 1.569999990463257
		endloop
	endfacet
	facet normal -1 0 0
		outer loop
			vertex 0.8499999880790711 0.9300000095367431 1.4699999904632568
			vertex 0.8499999880790711 0.9300000095367431 1.569999990463257
			vertex 0.8499999880790711 1.0300000095367432 1.569999990463257
		endloop
	endfacet
	facet normal 0 1 0
		outer loop
			vertex 0.8499999880790711 1.0300000095367432 1.4699999904632568
			vertex 0.8499999880790711 1.0300000095367432 1.569999990463257
			vertex 0.949999988079071 1.0300000095367432 1.4699999904632568
		endloop
	endfacet
	facet normal 0 1 0
		outer loop
			vertex 0.8499999880790711 1.0300000095367432 1.569999990463257
			vertex 0.949999988079071 1.0300000095367432 1.569999990463257
			vertex 0.949999988079071 1.0300000095367432 1.4699999904632568
		endloop
	endfacet
	facet normal 0 -1 0
		outer loop
			vertex 0.8499999880790711 0.9300000095367431 1.569999990463257
			vertex 0.8499999880790711 0.9300000095367431 1.4699999904632568
			vertex 0.949999988079071 0.9300000095367431 1.569999990463257
		endloop
	endfacet
	facet normal 0 -1 0
		outer loop
			vertex 0.8499999880790711 0.9300000095367431 1.4699999904632568
			vertex 0.949999988079071 0.9300000095367431 1.4699999904632568
			vertex 0.949999988079071 0.9300000095367431 1.569999990463257
		endloop
	endfacet
	facet normal 0 0 1
		outer loop
			vertex 0.8499999880790711 1.0300000095367432 1.569999990463257
			vertex 0.8499999880790711 0.9300000095367431 1.569999990463257
			vertex 0.949999988079071 1.0300000095367432 1.569999990463257
		endloop
	endfacet
	facet normal 0 0 1
		outer loop
			vertex 0.8499999880790711 0.9300000095367431 1.569999990463257
			vertex 0.949999988079071 0.9300000095367431 1.569999990463257
			vertex 0.949999988079071 1.0300000095367432 1.569999990463257
		endloop
	endfacet
	facet normal 0 0 -1
		outer loop
			vertex 0.949999988079071 1.0300000095367432 1.4699999904632568
			vertex 0.949999988079071 0.9300000095367431 1.4699999904632568
			vertex 0.8499999880790711 1.0300000095367432 1.4699999904632568
		endloop
	endfacet
	facet normal 0 0 -1
		outer loop
			vertex 0.949999988079071 0.9300000095367431 1.4699999904632568
			vertex 0.8499999880790711 0.9300000095367431 1.4699999904632568
			vertex 0.8499999880790711 1.0300000095367432 1.4699999904632568
		endloop
	endfacet
	facet normal 1 0 0
		outer loop
			vertex 0.9100000071525574 1.1899999928474427 1.4900000286102295
			vertex 0.9100000071525574 1.0899999928474426 1.4900000286102295
			vertex 0.9100000071525574 1.1899999928474427 1.3900000286102294
		endloop
	endfacet
	facet normal 1 0 0
		outer loop
			vertex 0.9100000071525574 1.0899999928474426 1.4900000286102295
			vertex 0.9100000071525574 1.0899999928474426 1.3900000286102294
			vertex 0.9100000071525574 1.1899999928474427 1.3900000286102294
		endloop
	endfacet
	facet normal -1 0 0
		outer loop
			vertex 0.8100000071525574 1.1899999928474427 1.3900000286102294
			vertex 0.8100000071525574 1.0899999928474426 1.3900000286102294
			vertex 0.8100000071525574 1.1899999928474427 1.4900000286102295
		endloop
	endfacet
	facet normal -1 0 0
		outer loop
			vertex 0.8100000071525574 1.0899999928474426 1.3900000286102294
			vertex 0.8100000071525574 1.0899999928474426 1.4900000286102295
			vertex 0.8100000071525574 1.1899999928474427 1.4900000286102295
		endloop
	endfacet
	facet normal 0 1 0
		outer loop
			vertex 0.8100000071525574 1.1899999928474427 1.3900000286102294
			vertex 0.8100000071525574 1.1899999928474427 1.4900000286102295
			vertex 0.9100000071525574 1.1899999928474427 1.3900000286102294
		endloop
	endfacet
	facet normal 0 1 0
		outer loop
			vertex 0.8100000071525574 1.1899999928474427 1.4900000286102295
			vertex 0.9100000071525574 1.1899999928474427 1.4900000286102295
			vertex 0.9100000071525574 1.1899999928474427 1.3900000286102294
		endloop
	endfacet
	facet normal 0 -1 0
		outer loop
			vertex 0.8100000071525574 1.0899999928474426 1.4900000286102295
			vertex 0.8100000071525574 1.0899999928474426 1.3900000286102294
			vertex 0.9100000071525574 1.0899999928474426 1.4900000286102295
		endloop
	endfacet
	facet normal 0 -1 0
		outer loop
			vertex 0.8100000071525574 1.0899999928474426 1.3900000286102294
			vertex 0.9100000071525574 1.0899999928474426 1.3900000286102294
			vertex 0.9100000071525574 1.0899999928474426 1.4900000286102295
		endloop
	endfacet
	facet normal 0 0 1
		outer loop
			vertex 0.8100000071525574 1.1899999928474427 1.4900000286102295
			vertex 0.8100000071525574 1.0899999928474426 1.4900000286102295
			vertex 0.9100000071525574 1.1899999928474427 1.4900000286102295
		endloop
	endfacet
	facet normal 0 0 1
		outer loop
			vertex 0.8100000071525574 1.0899999928474426 1.4900000286102295
			vertex 0.9100000071525574 1.0899999928474426 1.4900000286102295
			vertex 0.9100000071525574 1.1899999928474427 1.4900000286102295
		endloop
	endfacet
	facet normal 0 0 -1
		outer loop
			vertex 0.9100000071525574 1.1899999928474427 1.3900000286102294
			vertex 0.9100000071525574 1.0899999928474426 1.3900000286102294
			vertex 0.8100000071525574 1.1899999928474427 1.3900000286102294
		endloop
	endfacet
	facet normal 0 0 -1
		outer loop
			vertex 0.9100000071525574 1.0899999928474426 1.3900000286102294
			vertex 0.8100000071525574 1.0899999928474426 1.3900000286102294
			vertex 0.8100000071525574 1.1899999928474427 1.3900000286102294
		endloop
	endfacet
	facet normal 1 0 0
		outer loop
			vertex 0.5100000041723252 0.8699999964237213 1.6899999928474427
			vertex 0.5100000041723252 0.7699999964237213 1.6899999928474427
			vertex 0.5100000041723252 0.8699999964237213 1.5899999928474426
		endloop
	endfacet
	facet normal 1 0 0
		outer loop
			vertex 0.5100000041723252 0.7699999964237213 1.6899999928474427
			vertex 0.5100000041723252 0.7699999964237213 1.5899999928474426
			vertex 0.5100000041723252 0.8699999964237213 1.5899999928474426
		endloop
	endfacet
	facet normal -1 0 0
		outer loop
			vertex 0.4100000041723252 0.8699999964237213 1.5899999928474426
			vertex 0.4100000041723252 0.7699999964237213 1.5899999928474426
			vertex 0.4100000041723252 0.8699999964237213 1.6899999928474427
		endloop
	endfacet
	facet normal -1 0 0
		outer loop
			vertex 0.4100000041723252 0.7699999964237213 1.5899999928474426
			vertex 0.4100000041723252 0.7699999964237213 1.6899999928474427
			vertex 0.4100000041723252 0.8699999964237213 1.6899999928474427
		endloop
	endfacet
	facet normal 0 1 0
		outer loop
			vertex 0.4100000041723252 0.8699999964237213 1.5899999928474426
			vertex 0.4100000041723252 0.8699999964237213 1.6899999928474427
			vertex 0.5100000041723252 0.8699999964237213 1.5899999928474426
		endloop
	endfacet
	facet normal 0 1 0
		outer loop
			vertex 0.4100000041723252 0.8699999964237213 1.6899999928474427
			vertex 0.5100000041723252 0.8699999964237213 1.6899999928474427
			vertex 0.5100000041723252 0.8699999964237213 1.5899999928474426
		endloop
	endfacet
	facet normal 0 -1 0
		outer loop
			vertex 0.4100000041723252 0.7699999964237213 1.6899999928474427
			vertex 0.4100000041723252 0.7699999964237213 1.5899999928474426
			vertex 0.5100000041723252 0.7699999964237213 1.6899999928474427
		endloop
	endfacet
	facet normal 0 -1 0
		outer loop
			vertex 0.4100000041723252 0.7699999964237213 1.5899999928474426
			vertex 0.5100000041723252 0.7699999964237213 1.5899999928474426
			vertex 0.5100000041723252 0.7699999964237213 1.6899999928474427
		endloop
	endfacet
	facet normal 0 0 1
		outer loop
			vertex 0.4100000041723252 0.8699999964237213 1.6899999928474427
			vertex 0.4100000041723252 0.7699999964237213 1.6899999928474427
			vertex 0.5100000041723252 0.8699999964237213 1.6899999928474427
		endloop
	endfacet
	facet normal 0 0 1
		outer loop
			vertex 0.4100000041723252 0.7699999964237213 1.6899999928474427
			vertex 0.5100000041723252 0.7699999964237213 1.6899999928474427
			vertex 0.5100000041723252 0.8699999964237213 1.6899999928474427
		endloop
	endfacet
	facet normal 0 0 -1
		outer loop
			vertex 0.5100000041723252 0.8699999964237213 1.5899999928474426
			vertex 0.5100000041723252 0.7699999964237213 1.5899999928474426
			vertex 0.4100000041723252 0.8699999964237213 1.5899999928474426
		endloop
	endfacet
	facet normal 0 0 -1
		outer loop
			vertex 0.5100000041723252 0.7699999964237213 1.5899999928474426
			vertex 0.4100000041723252 0.7699999964237213 1.5899999928474426
			vertex 0.4100000041723252 0.8699999964237213 1.5899999928474426
		endloop
	endfacet
	facet normal 1 0 0
		outer loop
			vertex 0.10999999932944775 1.9100000071525574 0.610000001192093
			vertex 0.10999999932944775 1.8100000071525573 0.610000001192093
			vertex 0.10999999932944775 1.9100000071525574 0.5100000011920929
		endloop
	endfacet
	facet normal 1 0 0
		outer loop
			vertex 0.10999999932944775 1.8100000071525573 0.610000001192093
			vertex 0.10999999932944775 1.8100000071525573 0.5100000011920929
			vertex 0.10999999932944775 1.9100000071525574 0.5100000011920929
		endloop
	endfacet
	facet normal -1 0 0
		outer loop
			vertex 0.009999999329447742 1.9100000071525574 0.5100000011920929
			vertex 0.009999999329447742 1.8100000071525573 0.5100000011920929
			vertex 0.009999999329447742 1.9100000071525574 0.610000001192093
		endloop
	endfacet
	facet normal -1 0 0
		outer loop
			vertex 0.009999999329447742 1.8100000071525573 0.5100000011920929
			vertex 0.009999999329447742 1.8100000071525573 0.610000001192093
			vertex 0.009999999329447742 1.9100000071525574 0.610000001192093
		endloop
	endfacet
	facet normal 0 1 0
		outer loop
			vertex 0.009999999329447742 1.9100000071525574 0.5100000011920929
			vertex 0.009999999329447742 1.9100000071525574 0.610000001192093
			vertex 0.10999999932944775 1.9100000071525574 0.5100000011920929
		endloop
	endfacet
	facet normal 0 1 0
		outer loop
			vertex 0.009999999329447742 1.9100000071525574 0.610000001192093
			vertex 0.10999999932944775 1.9100000071525574 0.610000001192093
			vertex 0.10999999932944775 1.9100000071525574 0.5100000011920929
		endloop
	endfacet
	facet normal 0 -1 0
		outer loop
			vertex 0.009999999329447742 1.8100000071525573 0.610000001192093
			vertex 0.009999999329447742 1.8100000071525573 0.5100000011920929
			vertex 0.10999999932944775 1.8100000071525573 0.610000001192093
		endloop
	endfacet
	facet normal 0 -1 0
		outer loop
			vertex 0.009999999329447742 1.8100000071525573 0.5100000011920929
			vertex 0.10999999932944775 1.8100000071525573 0.5100000011920929
			vertex 0.10999999932944775 1.8100000071525573 0.610000001192093
		endloop
	endfacet
	facet normal 0 0 1
		outer loop
			vertex 0.009999999329447742 1.9100000071525574 0.610000001192093
			vertex 0.009999999329447742 1.8100000071525573 0.610000001192093
			vertex 0.10999999932944775 1.9100000071525574 0.610000001192093
		endloop
	endfacet
	facet normal 0 0 1
		outer loop
			vertex 0.009999999329447742 1.8100000071525573 0.610000001192093
			vertex 0.10999999932944775 1.8100000071525573 0.610000001192093
			vertex 0.10999999932944775 1.9100000071525574 0.610000001192093
		endloop
	endfacet
	facet normal 0 0 -1
		outer loop
			vertex 0.10999999932944775 1.9100000071525574 0.5100000011920929
			vertex 0.10999999932944775 1.8100000071525573 0.5100000011920929
			vertex 0.009999999329447742 1.9100000071525574 0.5100000011920929
		endloop
	endfacet
	facet normal 0 0 -1
		outer loop
			vertex 0.10999999932944775 1.8100000071525573 0.5100000011920929
			vertex 0.009999999329447742 1.8100000071525573 0.5100000011920929
			vertex 0.009999999329447742 1.9100000071525574 0.5100000011920929
		endloop
	endfacet
	facet normal 0 0 0
		outer loop
			vertex 0.4600000041723251 2.055000009536743 0.9200000083446502
			vertex 0.4600000041723251 1.9050000095367432 1.0700000083446504
			vertex 0.4600000041723251 2.055000009536743 0.9200000083446502
		endloop
	endfacet
	facet normal 0.5773502691896257 0.5773502691896257 0.5773502691896257
		outer loop
			vertex 0.4600000041723251 1.9050000095367432 1.0700000083446504
			vertex 0.6100000041723251 1.9050000095367432 0.9200000083446502
			vertex 0.4600000041723251 2.055000009536743 0.9200000083446502
		endloop
	endfacet
	facet normal 0 0 0
		outer loop
			vertex 0.4600000041723251 2.055000009536743 0.9200000083446502
			vertex 0.6100000041723251 1.9050000095367432 0.9200000083446502
			vertex 0.4600000041723251 2.055000009536743 0.9200000083446502
		endloop
	endfacet
	facet normal 0.5773502691896258 0.5773502691896258 -0.5773502691896257
		outer loop
			vertex 0.6100000041723251 1.9050000095367432 0.9200000083446502
			vertex 0.46000000417232517 1.9050000095367432 0.7700000083446503
			vertex 0.4600000041723251 2.055000009536743 0.9200000083446502
		endloop
	endfacet
	facet normal 0 0 0
		outer loop
			vertex 0.4600000041723251 2.055000009536743 0.9200000083446502
			vertex 0.46000000417232517 1.9050000095367432 0.7700000083446503
			vertex 0.4600000041723251 2.055000009536743 0.9200000083446502
		endloop
	endfacet
	facet normal -0.5773502691896257 0.5773502691896258 -0.577350269189626
		outer loop
			vertex 0.46000000417232517 1.9050000095367432 0.7700000083446503
			vertex 0.31000000417232515 1.9050000095367432 0.9200000083446502
			vertex 0.4600000041723251 2.055000009536743 0.9200000083446502
		endloop
	endfacet
	facet normal 0 0 0
		outer loop
			vertex 0.4600000041723251 2.055000009536743 0.9200000083446502
			vertex 0.31000000417232515 1.9050000095367432 0.9200000083446502
			vertex 0.4600000041723251 2.055000009536743 0.9200000083446502
		endloop
	endfacet
	facet normal -0.5773502691896258 0.5773502691896258 0.5773502691896257
		outer loop
			vertex 0.31000000417232515 1.9050000095367432 0.9200000083446502
			vertex 0.4600000041723251 1.9050000095367432 1.0700000083446504
			vertex 0.4600000041723251 2.055000009536743 0.9200000083446502
		endloop
	endfacet
	facet normal 0 -0.9999999999999999 0
		outer loop
			vertex 0.6100000041723251 1.9050000095367432 0.9200000083446502
			vertex 0.4600000041723251 1.9050000095367432 1.0700000083446504
			vertex 0.4600000041723251 1.9050000095367432 0.9200000083446502
		endloop
	endfacet
	facet normal 0 -0.9999999999999999 0
		outer loop
			vertex 0.46000000417232517 1.9050000095367432 0.7700000083446503
			vertex 0.6100000041723251 1.9050000095367432 0.9200000083446502
			vertex 0.4600000041723251 1.9050000095367432 0.9200000083446502
		endloop
	endfacet
	facet normal 0 -0.9999999999999999 0
		outer loop
			vertex 0.31000000417232515 1.9050000095367432 0.9200000083446502
			vertex 0.46000000417232517 1.9050000095367432 0.7700000083446503
			vertex 0.4600000041723251 1.9050000095367432 0.9200000083446502
		endloop
	endfacet
	facet normal 0 -0.9999999999999999 0
		outer loop
			vertex 0.4600000041723251 1.9050000095367432 1.0700000083446504
			vertex 0.31000000417232515 1.9050000095367432 0.9200000083446502
			vertex 0.4600000041723251 1.9050000095367432 0.9200000083446502
		endloop
	endfacet
endsolid exported
