solid exported
	facet normal 1 0 0
		outer loop
			vertex 0.4899999988079071 0.10999999932944775 0.25000000149011614
			vertex 0.4899999988079071 0.009999999329447742 0.25000000149011614
			vertex 0.4899999988079071 0.10999999932944775 0.1500000014901161
		endloop
	endfacet
	facet normal 1 0 0
		outer loop
			vertex 0.4899999988079071 0.009999999329447742 0.25000000149011614
			vertex 0.4899999988079071 0.009999999329447742 0.1500000014901161
			vertex 0.4899999988079071 0.10999999932944775 0.1500000014901161
		endloop
	endfacet
	facet normal -1 0 0
		outer loop
			vertex 0.38999999880790714 0.10999999932944775 0.1500000014901161
			vertex 0.38999999880790714 0.009999999329447742 0.1500000014901161
			vertex 0.38999999880790714 0.10999999932944775 0.25000000149011614
		endloop
	endfacet
	facet normal -1 0 0
		outer loop
			vertex 0.38999999880790714 0.009999999329447742 0.1500000014901161
			vertex 0.38999999880790714 0.009999999329447742 0.25000000149011614
			vertex 0.38999999880790714 0.10999999932944775 0.25000000149011614
		endloop
	endfacet
	facet normal 0 1 0
		outer loop
			vertex 0.38999999880790714 0.10999999932944775 0.1500000014901161
			vertex 0.38999999880790714 0.10999999932944775 0.25000000149011614
			vertex 0.4899999988079071 0.10999999932944775 0.1500000014901161
		endloop
	endfacet
	facet normal 0 1 0
		outer loop
			vertex 0.38999999880790714 0.10999999932944775 0.25000000149011614
			vertex 0.4899999988079071 0.10999999932944775 0.25000000149011614
			vertex 0.4899999988079071 0.10999999932944775 0.1500000014901161
		endloop
	endfacet
	facet normal 0 -1 0
		outer loop
			vertex 0.38999999880790714 0.009999999329447742 0.25000000149011614
			vertex 0.38999999880790714 0.009999999329447742 0.1500000014901161
			vertex 0.4899999988079071 0.009999999329447742 0.25000000149011614
		endloop
	endfacet
	facet normal 0 -1 0
		outer loop
			vertex 0.38999999880790714 0.009999999329447742 0.1500000014901161
			vertex 0.4899999988079071 0.009999999329447742 0.1500000014901161
			vertex 0.4899999988079071 0.009999999329447742 0.25000000149011614
		endloop
	endfacet
	facet normal 0 0 1
		outer loop
			vertex 0.38999999880790714 0.10999999932944775 0.25000000149011614
			vertex 0.38999999880790714 0.009999999329447742 0.25000000149011614
			vertex 0.4899999988079071 0.10999999932944775 0.25000000149011614
		endloop
	endfacet
	facet normal 0 0 1
		outer loop
			vertex 0.38999999880790714 0.009999999329447742 0.25000000149011614
			vertex 0.4899999988079071 0.009999999329447742 0.25000000149011614
			vertex 0.4899999988079071 0.10999999932944775 0.25000000149011614
		endloop
	endfacet
	facet normal 0 0 -1
		outer loop
			vertex 0.4899999988079071 0.10999999932944775 0.1500000014901161
			vertex 0.4899999988079071 0.009999999329447742 0.1500000014901161
			vertex 0.38999999880790714 0.10999999932944775 0.1500000014901161
		endloop
	endfacet
	facet normal 0 0 -1
		outer loop
			vertex 0.4899999988079071 0.009999999329447742 0.1500000014901161
			vertex 0.38999999880790714 0.009999999329447742 0.1500000014901161
			vertex 0.38999999880790714 0.10999999932944775 0.1500000014901161
		endloop
	endfacet
	facet normal 1 0 0
		outer loop
			vertex 0.12999999910593033 1.8299999856948852 1.6099999713897706
			vertex 0.12999999910593033 1.7299999856948851 1.6099999713897706
			vertex 0.12999999910593033 1.8299999856948852 1.5099999713897705
		endloop
	endfacet
	facet normal 1 0 0
		outer loop
			vertex 0.12999999910593033 1.7299999856948851 1.6099999713897706
			vertex 0.12999999910593033 1.7299999856948851 1.5099999713897705
			vertex 0.12999999910593033 1.8299999856948852 1.5099999713897705
		endloop
	endfacet
	facet normal -1 0 0
		outer loop
			vertex 0.029999999105930326 1.8299999856948852 1.5099999713897705
			vertex 0.029999999105930326 1.7299999856948851 1.5099999713897705
			vertex 0.029999999105930326 1.8299999856948852 1.6099999713897706
		endloop
	endfacet
	facet normal -1 0 0
		outer loop
			vertex 0.029999999105930326 1.7299999856948851 1.5099999713897705
			vertex 0.029999999105930326 1.7299999856948851 1.6099999713897706
			vertex 0.029999999105930326 1.8299999856948852 1.6099999713897706
		endloop
	endfacet
	facet normal 0 1 0
		outer loop
			vertex 0.029999999105930326 1.8299999856948852 1.5099999713897705
			vertex 0.029999999105930326 1.8299999856948852 1.6099999713897706
			vertex 0.12999999910593033 1.8299999856948852 1.5099999713897705
		endloop
	endfacet
	facet normal 0 1 0
		outer loop
			vertex 0.029999999105930326 1.8299999856948852 1.6099999713897706
			vertex 0.12999999910593033 1.8299999856948852 1.6099999713897706
			vertex 0.12999999910593033 1.8299999856948852 1.5099999713897705
		endloop
	endfacet
	facet normal 0 -1 0
		outer loop
			vertex 0.029999999105930326 1.7299999856948851 1.6099999713897706
			vertex 0.029999999105930326 1.7299999856948851 1.5099999713897705
			vertex 0.12999999910593033 1.7299999856948851 1.6099999713897706
		endloop
	endfacet
	facet normal 0 -1 0
		outer loop
			vertex 0.029999999105930326 1.7299999856948851 1.5099999713897705
			vertex 0.12999999910593033 1.7299999856948851 1.5099999713897705
			vertex 0.12999999910593033 1.7299999856948851 1.6099999713897706
		endloop
	endfacet
	facet normal 0 0 1
		outer loop
			vertex 0.029999999105930326 1.8299999856948852 1.6099999713897706
			vertex 0.029999999105930326 1.7299999856948851 1.6099999713897706
			vertex 0.12999999910593033 1.8299999856948852 1.6099999713897706
		endloop
	endfacet
	facet normal 0 0 1
		outer loop
			vertex 0.029999999105930326 1.7299999856948851 1.6099999713897706
			vertex 0.12999999910593033 1.7299999856948851 1.6099999713897706
			vertex 0.12999999910593033 1.8299999856948852 1.6099999713897706
		endloop
	endfacet
	facet normal 0 0 -1
		outer loop
			vertex 0.12999999910593033 1.8299999856948852 1.5099999713897705
			vertex 0.12999999910593033 1.7299999856948851 1.5099999713897705
			vertex 0.029999999105930326 1.8299999856948852 1.5099999713897705
		endloop
	endfacet
	facet normal 0 0 -1
		outer loop
			vertex 0.12999999910593033 1.7299999856948851 1.5099999713897705
			vertex 0.029999999105930326 1.7299999856948851 1.5099999713897705
			vertex 0.029999999105930326 1.8299999856948852 1.5099999713897705
		endloop
	endfacet
	facet normal 1 0 0
		outer loop
			vertex 0.9100000071525574 0.5900000107288361 0.55
			vertex 0.9100000071525574 0.4900000107288361 0.55
			vertex 0.9100000071525574 0.5900000107288361 0.45
		endloop
	endfacet
	facet normal 1 0 0
		outer loop
			vertex 0.9100000071525574 0.4900000107288361 0.55
			vertex 0.9100000071525574 0.4900000107288361 0.45
			vertex 0.9100000071525574 0.5900000107288361 0.45
		endloop
	endfacet
	facet normal -1 0 0
		outer loop
			vertex 0.8100000071525574 0.5900000107288361 0.45
			vertex 0.8100000071525574 0.4900000107288361 0.45
			vertex 0.8100000071525574 0.5900000107288361 0.55
		endloop
	endfacet
	facet normal -1 0 0
		outer loop
			vertex 0.8100000071525574 0.4900000107288361 0.45
			vertex 0.8100000071525574 0.4900000107288361 0.55
			vertex 0.8100000071525574 0.5900000107288361 0.55
		endloop
	endfacet
	facet normal 0 1 0
		outer loop
			vertex 0.8100000071525574 0.5900000107288361 0.45
			vertex 0.8100000071525574 0.5900000107288361 0.55
			vertex 0.9100000071525574 0.5900000107288361 0.45
		endloop
	endfacet
	facet normal 0 1 0
		outer loop
			vertex 0.8100000071525574 0.5900000107288361 0.55
			vertex 0.9100000071525574 0.5900000107288361 0.55
			vertex 0.9100000071525574 0.5900000107288361 0.45
		endloop
	endfacet
	facet normal 0 -1 0
		outer loop
			vertex 0.8100000071525574 0.4900000107288361 0.55
			vertex 0.8100000071525574 0.4900000107288361 0.45
			vertex 0.9100000071525574 0.4900000107288361 0.55
		endloop
	endfacet
	facet normal 0 -1 0
		outer loop
			vertex 0.8100000071525574 0.4900000107288361 0.45
			vertex 0.9100000071525574 0.4900000107288361 0.45
			vertex 0.9100000071525574 0.4900000107288361 0.55
		endloop
	endfacet
	facet normal 0 0 1
		outer loop
			vertex 0.8100000071525574 0.5900000107288361 0.55
			vertex 0.8100000071525574 0.4900000107288361 0.55
			vertex 0.9100000071525574 0.5900000107288361 0.55
		endloop
	endfacet
	facet normal 0 0 1
		outer loop
			vertex 0.8100000071525574 0.4900000107288361 0.55
			vertex 0.9100000071525574 0.4900000107288361 0.55
			vertex 0.9100000071525574 0.5900000107288361 0.55
		endloop
	endfacet
	facet normal 0 0 -1
		outer loop
			vertex 0.9100000071525574 0.5900000107288361 0.45
			vertex 0.9100000071525574 0.4900000107288361 0.45
			vertex 0.8100000071525574 0.5900000107288361 0.45
		endloop
	endfacet
	facet normal 0 0 -1
		outer loop
			vertex 0.9100000071525574 0.4900000107288361 0.45
			vertex 0.8100000071525574 0.4900000107288361 0.45
			vertex 0.8100000071525574 0.5900000107288361 0.45
		endloop
	endfacet
	facet normal 1 0 0
		outer loop
			vertex 2.0100000190734866 0.949999988079071 0.3699999964237213
			vertex 2.0100000190734866 0.8499999880790711 0.3699999964237213
			vertex 2.0100000190734866 0.949999988079071 0.2699999964237213
		endloop
	endfacet
	facet normal 1 0 0
		outer loop
			vertex 2.0100000190734866 0.8499999880790711 0.3699999964237213
			vertex 2.0100000190734866 0.8499999880790711 0.2699999964237213
			vertex 2.0100000190734866 0.949999988079071 0.2699999964237213
		endloop
	endfacet
	facet normal -1 0 0
		outer loop
			vertex 1.9100000190734863 0.949999988079071 0.2699999964237213
			vertex 1.9100000190734863 0.8499999880790711 0.2699999964237213
			vertex 1.9100000190734863 0.949999988079071 0.3699999964237213
		endloop
	endfacet
	facet normal -1 0 0
		outer loop
			vertex 1.9100000190734863 0.8499999880790711 0.2699999964237213
			vertex 1.9100000190734863 0.8499999880790711 0.3699999964237213
			vertex 1.9100000190734863 0.949999988079071 0.3699999964237213
		endloop
	endfacet
	facet normal 0 1 0
		outer loop
			vertex 1.9100000190734863 0.949999988079071 0.2699999964237213
			vertex 1.9100000190734863 0.949999988079071 0.3699999964237213
			vertex 2.0100000190734866 0.949999988079071 0.2699999964237213
		endloop
	endfacet
	facet normal 0 1 0
		outer loop
			vertex 1.9100000190734863 0.949999988079071 0.3699999964237213
			vertex 2.0100000190734866 0.949999988079071 0.3699999964237213
			vertex 2.0100000190734866 0.949999988079071 0.2699999964237213
		endloop
	endfacet
	facet normal 0 -1 0
		outer loop
			vertex 1.9100000190734863 0.8499999880790711 0.3699999964237213
			vertex 1.9100000190734863 0.8499999880790711 0.2699999964237213
			vertex 2.0100000190734866 0.8499999880790711 0.3699999964237213
		endloop
	endfacet
	facet normal 0 -1 0
		outer loop
			vertex 1.9100000190734863 0.8499999880790711 0.2699999964237213
			vertex 2.0100000190734866 0.8499999880790711 0.2699999964237213
			vertex 2.0100000190734866 0.8499999880790711 0.3699999964237213
		endloop
	endfacet
	facet normal 0 0 1
		outer loop
			vertex 1.9100000190734863 0.949999988079071 0.3699999964237213
			vertex 1.9100000190734863 0.8499999880790711 0.3699999964237213
			vertex 2.0100000190734866 0.949999988079071 0.3699999964237213
		endloop
	endfacet
	facet normal 0 0 1
		outer loop
			vertex 1.9100000190734863 0.8499999880790711 0.3699999964237213
			vertex 2.0100000190734866 0.8499999880790711 0.3699999964237213
			vertex 2.0100000190734866 0.949999988079071 0.3699999964237213
		endloop
	endfacet
	facet normal 0 0 -1
		outer loop
			vertex 2.0100000190734866 0.949999988079071 0.2699999964237213
			vertex 2.0100000190734866 0.8499999880790711 0.2699999964237213
			vertex 1.9100000190734863 0.949999988079071 0.2699999964237213
		endloop
	endfacet
	facet normal 0 0 -1
		outer loop
			vertex 2.0100000190734866 0.8499999880790711 0.2699999964237213
			vertex 1.9100000190734863 0.8499999880790711 0.2699999964237213
			vertex 1.9100000190734863 0.949999988079071 0.2699999964237213
		endloop
	endfacet
endsolid exported
