solid exported
	facet normal 1 0 0
		outer loop
			vertex 0.41000000715255736 1.2500000238418578 0.8699999964237213
			vertex 0.41000000715255736 1.1500000238418577 0.8699999964237213
			vertex 0.41000000715255736 1.2500000238418578 0.7699999964237213
		endloop
	endfacet
	facet normal 1 0 0
		outer loop
			vertex 0.41000000715255736 1.1500000238418577 0.8699999964237213
			vertex 0.41000000715255736 1.1500000238418577 0.7699999964237213
			vertex 0.41000000715255736 1.2500000238418578 0.7699999964237213
		endloop
	endfacet
	facet normal -1 0 0
		outer loop
			vertex 0.3100000071525574 1.2500000238418578 0.7699999964237213
			vertex 0.3100000071525574 1.1500000238418577 0.7699999964237213
			vertex 0.3100000071525574 1.2500000238418578 0.8699999964237213
		endloop
	endfacet
	facet normal -1 0 0
		outer loop
			vertex 0.3100000071525574 1.1500000238418577 0.7699999964237213
			vertex 0.3100000071525574 1.1500000238418577 0.8699999964237213
			vertex 0.3100000071525574 1.2500000238418578 0.8699999964237213
		endloop
	endfacet
	facet normal 0 1 0
		outer loop
			vertex 0.3100000071525574 1.2500000238418578 0.7699999964237213
			vertex 0.3100000071525574 1.2500000238418578 0.8699999964237213
			vertex 0.41000000715255736 1.2500000238418578 0.7699999964237213
		endloop
	endfacet
	facet normal 0 1 0
		outer loop
			vertex 0.3100000071525574 1.2500000238418578 0.8699999964237213
			vertex 0.41000000715255736 1.2500000238418578 0.8699999964237213
			vertex 0.41000000715255736 1.2500000238418578 0.7699999964237213
		endloop
	endfacet
	facet normal 0 -1 0
		outer loop
			vertex 0.3100000071525574 1.1500000238418577 0.8699999964237213
			vertex 0.3100000071525574 1.1500000238418577 0.7699999964237213
			vertex 0.41000000715255736 1.1500000238418577 0.8699999964237213
		endloop
	endfacet
	facet normal 0 -1 0
		outer loop
			vertex 0.3100000071525574 1.1500000238418577 0.7699999964237213
			vertex 0.41000000715255736 1.1500000238418577 0.7699999964237213
			vertex 0.41000000715255736 1.1500000238418577 0.8699999964237213
		endloop
	endfacet
	facet normal 0 0 1
		outer loop
			vertex 0.3100000071525574 1.2500000238418578 0.8699999964237213
			vertex 0.3100000071525574 1.1500000238418577 0.8699999964237213
			vertex 0.41000000715255736 1.2500000238418578 0.8699999964237213
		endloop
	endfacet
	facet normal 0 0 1
		outer loop
			vertex 0.3100000071525574 1.1500000238418577 0.8699999964237213
			vertex 0.41000000715255736 1.1500000238418577 0.8699999964237213
			vertex 0.41000000715255736 1.2500000238418578 0.8699999964237213
		endloop
	endfacet
	facet normal 0 0 -1
		outer loop
			vertex 0.41000000715255736 1.2500000238418578 0.7699999964237213
			vertex 0.41000000715255736 1.1500000238418577 0.7699999964237213
			vertex 0.3100000071525574 1.2500000238418578 0.7699999964237213
		endloop
	endfacet
	facet normal 0 0 -1
		outer loop
			vertex 0.41000000715255736 1.1500000238418577 0.7699999964237213
			vertex 0.3100000071525574 1.1500000238418577 0.7699999964237213
			vertex 0.3100000071525574 1.2500000238418578 0.7699999964237213
		endloop
	endfacet
endsolid exported
