solid exported
	facet normal 1 0 0
		outer loop
			vertex 0.8099999952316284 0.28999999731779097 2.030000009536743
			vertex 0.8099999952316284 0.189999997317791 2.030000009536743
			vertex 0.8099999952316284 0.28999999731779097 1.930000009536743
		endloop
	endfacet
	facet normal 1 0 0
		outer loop
			vertex 0.8099999952316284 0.189999997317791 2.030000009536743
			vertex 0.8099999952316284 0.189999997317791 1.930000009536743
			vertex 0.8099999952316284 0.28999999731779097 1.930000009536743
		endloop
	endfacet
	facet normal -1 0 0
		outer loop
			vertex 0.7099999952316285 0.28999999731779097 1.930000009536743
			vertex 0.7099999952316285 0.189999997317791 1.930000009536743
			vertex 0.7099999952316285 0.28999999731779097 2.030000009536743
		endloop
	endfacet
	facet normal -1 0 0
		outer loop
			vertex 0.7099999952316285 0.189999997317791 1.930000009536743
			vertex 0.7099999952316285 0.189999997317791 2.030000009536743
			vertex 0.7099999952316285 0.28999999731779097 2.030000009536743
		endloop
	endfacet
	facet normal 0 1 0
		outer loop
			vertex 0.7099999952316285 0.28999999731779097 1.930000009536743
			vertex 0.7099999952316285 0.28999999731779097 2.030000009536743
			vertex 0.8099999952316284 0.28999999731779097 1.930000009536743
		endloop
	endfacet
	facet normal 0 1 0
		outer loop
			vertex 0.7099999952316285 0.28999999731779097 2.030000009536743
			vertex 0.8099999952316284 0.28999999731779097 2.030000009536743
			vertex 0.8099999952316284 0.28999999731779097 1.930000009536743
		endloop
	endfacet
	facet normal 0 -1 0
		outer loop
			vertex 0.7099999952316285 0.189999997317791 2.030000009536743
			vertex 0.7099999952316285 0.189999997317791 1.930000009536743
			vertex 0.8099999952316284 0.189999997317791 2.030000009536743
		endloop
	endfacet
	facet normal 0 -1 0
		outer loop
			vertex 0.7099999952316285 0.189999997317791 1.930000009536743
			vertex 0.8099999952316284 0.189999997317791 1.930000009536743
			vertex 0.8099999952316284 0.189999997317791 2.030000009536743
		endloop
	endfacet
	facet normal 0 0 1
		outer loop
			vertex 0.7099999952316285 0.28999999731779097 2.030000009536743
			vertex 0.7099999952316285 0.189999997317791 2.030000009536743
			vertex 0.8099999952316284 0.28999999731779097 2.030000009536743
		endloop
	endfacet
	facet normal 0 0 1
		outer loop
			vertex 0.7099999952316285 0.189999997317791 2.030000009536743
			vertex 0.8099999952316284 0.189999997317791 2.030000009536743
			vertex 0.8099999952316284 0.28999999731779097 2.030000009536743
		endloop
	endfacet
	facet normal 0 0 -1
		outer loop
			vertex 0.8099999952316284 0.28999999731779097 1.930000009536743
			vertex 0.8099999952316284 0.189999997317791 1.930000009536743
			vertex 0.7099999952316285 0.28999999731779097 1.930000009536743
		endloop
	endfacet
	facet normal 0 0 -1
		outer loop
			vertex 0.8099999952316284 0.189999997317791 1.930000009536743
			vertex 0.7099999952316285 0.189999997317791 1.930000009536743
			vertex 0.7099999952316285 0.28999999731779097 1.930000009536743
		endloop
	endfacet
	facet normal 1 0 0
		outer loop
			vertex 0.6500000119209289 0.4899999988079071 1.469999978542328
			vertex 0.6500000119209289 0.38999999880790714 1.469999978542328
			vertex 0.6500000119209289 0.4899999988079071 1.3699999785423278
		endloop
	endfacet
	facet normal 1 0 0
		outer loop
			vertex 0.6500000119209289 0.38999999880790714 1.469999978542328
			vertex 0.6500000119209289 0.38999999880790714 1.3699999785423278
			vertex 0.6500000119209289 0.4899999988079071 1.3699999785423278
		endloop
	endfacet
	facet normal -1 0 0
		outer loop
			vertex 0.550000011920929 0.4899999988079071 1.3699999785423278
			vertex 0.550000011920929 0.38999999880790714 1.3699999785423278
			vertex 0.550000011920929 0.4899999988079071 1.469999978542328
		endloop
	endfacet
	facet normal -1 0 0
		outer loop
			vertex 0.550000011920929 0.38999999880790714 1.3699999785423278
			vertex 0.550000011920929 0.38999999880790714 1.469999978542328
			vertex 0.550000011920929 0.4899999988079071 1.469999978542328
		endloop
	endfacet
	facet normal 0 1 0
		outer loop
			vertex 0.550000011920929 0.4899999988079071 1.3699999785423278
			vertex 0.550000011920929 0.4899999988079071 1.469999978542328
			vertex 0.6500000119209289 0.4899999988079071 1.3699999785423278
		endloop
	endfacet
	facet normal 0 1 0
		outer loop
			vertex 0.550000011920929 0.4899999988079071 1.469999978542328
			vertex 0.6500000119209289 0.4899999988079071 1.469999978542328
			vertex 0.6500000119209289 0.4899999988079071 1.3699999785423278
		endloop
	endfacet
	facet normal 0 -1 0
		outer loop
			vertex 0.550000011920929 0.38999999880790714 1.469999978542328
			vertex 0.550000011920929 0.38999999880790714 1.3699999785423278
			vertex 0.6500000119209289 0.38999999880790714 1.469999978542328
		endloop
	endfacet
	facet normal 0 -1 0
		outer loop
			vertex 0.550000011920929 0.38999999880790714 1.3699999785423278
			vertex 0.6500000119209289 0.38999999880790714 1.3699999785423278
			vertex 0.6500000119209289 0.38999999880790714 1.469999978542328
		endloop
	endfacet
	facet normal 0 0 1
		outer loop
			vertex 0.550000011920929 0.4899999988079071 1.469999978542328
			vertex 0.550000011920929 0.38999999880790714 1.469999978542328
			vertex 0.6500000119209289 0.4899999988079071 1.469999978542328
		endloop
	endfacet
	facet normal 0 0 1
		outer loop
			vertex 0.550000011920929 0.38999999880790714 1.469999978542328
			vertex 0.6500000119209289 0.38999999880790714 1.469999978542328
			vertex 0.6500000119209289 0.4899999988079071 1.469999978542328
		endloop
	endfacet
	facet normal 0 0 -1
		outer loop
			vertex 0.6500000119209289 0.4899999988079071 1.3699999785423278
			vertex 0.6500000119209289 0.38999999880790714 1.3699999785423278
			vertex 0.550000011920929 0.4899999988079071 1.3699999785423278
		endloop
	endfacet
	facet normal 0 0 -1
		outer loop
			vertex 0.6500000119209289 0.38999999880790714 1.3699999785423278
			vertex 0.550000011920929 0.38999999880790714 1.3699999785423278
			vertex 0.550000011920929 0.4899999988079071 1.3699999785423278
		endloop
	endfacet
	facet normal 1 0 0
		outer loop
			vertex 1.4100000071525574 0.05 0.5100000041723252
			vertex 1.4100000071525574 -0.05 0.5100000041723252
			vertex 1.4100000071525574 0.05 0.4100000041723252
		endloop
	endfacet
	facet normal 1 0 0
		outer loop
			vertex 1.4100000071525574 -0.05 0.5100000041723252
			vertex 1.4100000071525574 -0.05 0.4100000041723252
			vertex 1.4100000071525574 0.05 0.4100000041723252
		endloop
	endfacet
	facet normal -1 0 0
		outer loop
			vertex 1.3100000071525573 0.05 0.4100000041723252
			vertex 1.3100000071525573 -0.05 0.4100000041723252
			vertex 1.3100000071525573 0.05 0.5100000041723252
		endloop
	endfacet
	facet normal -1 0 0
		outer loop
			vertex 1.3100000071525573 -0.05 0.4100000041723252
			vertex 1.3100000071525573 -0.05 0.5100000041723252
			vertex 1.3100000071525573 0.05 0.5100000041723252
		endloop
	endfacet
	facet normal 0 1 0
		outer loop
			vertex 1.3100000071525573 0.05 0.4100000041723252
			vertex 1.3100000071525573 0.05 0.5100000041723252
			vertex 1.4100000071525574 0.05 0.4100000041723252
		endloop
	endfacet
	facet normal 0 1 0
		outer loop
			vertex 1.3100000071525573 0.05 0.5100000041723252
			vertex 1.4100000071525574 0.05 0.5100000041723252
			vertex 1.4100000071525574 0.05 0.4100000041723252
		endloop
	endfacet
	facet normal 0 -1 0
		outer loop
			vertex 1.3100000071525573 -0.05 0.5100000041723252
			vertex 1.3100000071525573 -0.05 0.4100000041723252
			vertex 1.4100000071525574 -0.05 0.5100000041723252
		endloop
	endfacet
	facet normal 0 -1 0
		outer loop
			vertex 1.3100000071525573 -0.05 0.4100000041723252
			vertex 1.4100000071525574 -0.05 0.4100000041723252
			vertex 1.4100000071525574 -0.05 0.5100000041723252
		endloop
	endfacet
	facet normal 0 0 1
		outer loop
			vertex 1.3100000071525573 0.05 0.5100000041723252
			vertex 1.3100000071525573 -0.05 0.5100000041723252
			vertex 1.4100000071525574 0.05 0.5100000041723252
		endloop
	endfacet
	facet normal 0 0 1
		outer loop
			vertex 1.3100000071525573 -0.05 0.5100000041723252
			vertex 1.4100000071525574 -0.05 0.5100000041723252
			vertex 1.4100000071525574 0.05 0.5100000041723252
		endloop
	endfacet
	facet normal 0 0 -1
		outer loop
			vertex 1.4100000071525574 0.05 0.4100000041723252
			vertex 1.4100000071525574 -0.05 0.4100000041723252
			vertex 1.3100000071525573 0.05 0.4100000041723252
		endloop
	endfacet
	facet normal 0 0 -1
		outer loop
			vertex 1.4100000071525574 -0.05 0.4100000041723252
			vertex 1.3100000071525573 -0.05 0.4100000041723252
			vertex 1.3100000071525573 0.05 0.4100000041723252
		endloop
	endfacet
	facet normal 1 0 0
		outer loop
			vertex 1.2700000143051149 1.6099999713897706 0.05
			vertex 1.2700000143051149 1.5099999713897705 0.05
			vertex 1.2700000143051149 1.6099999713897706 -0.05
		endloop
	endfacet
	facet normal 1 0 0
		outer loop
			vertex 1.2700000143051149 1.5099999713897705 0.05
			vertex 1.2700000143051149 1.5099999713897705 -0.05
			vertex 1.2700000143051149 1.6099999713897706 -0.05
		endloop
	endfacet
	facet normal -1 0 0
		outer loop
			vertex 1.1700000143051148 1.6099999713897706 -0.05
			vertex 1.1700000143051148 1.5099999713897705 -0.05
			vertex 1.1700000143051148 1.6099999713897706 0.05
		endloop
	endfacet
	facet normal -1 0 0
		outer loop
			vertex 1.1700000143051148 1.5099999713897705 -0.05
			vertex 1.1700000143051148 1.5099999713897705 0.05
			vertex 1.1700000143051148 1.6099999713897706 0.05
		endloop
	endfacet
	facet normal 0 1 0
		outer loop
			vertex 1.1700000143051148 1.6099999713897706 -0.05
			vertex 1.1700000143051148 1.6099999713897706 0.05
			vertex 1.2700000143051149 1.6099999713897706 -0.05
		endloop
	endfacet
	facet normal 0 1 0
		outer loop
			vertex 1.1700000143051148 1.6099999713897706 0.05
			vertex 1.2700000143051149 1.6099999713897706 0.05
			vertex 1.2700000143051149 1.6099999713897706 -0.05
		endloop
	endfacet
	facet normal 0 -1 0
		outer loop
			vertex 1.1700000143051148 1.5099999713897705 0.05
			vertex 1.1700000143051148 1.5099999713897705 -0.05
			vertex 1.2700000143051149 1.5099999713897705 0.05
		endloop
	endfacet
	facet normal 0 -1 0
		outer loop
			vertex 1.1700000143051148 1.5099999713897705 -0.05
			vertex 1.2700000143051149 1.5099999713897705 -0.05
			vertex 1.2700000143051149 1.5099999713897705 0.05
		endloop
	endfacet
	facet normal 0 0 1
		outer loop
			vertex 1.1700000143051148 1.6099999713897706 0.05
			vertex 1.1700000143051148 1.5099999713897705 0.05
			vertex 1.2700000143051149 1.6099999713897706 0.05
		endloop
	endfacet
	facet normal 0 0 1
		outer loop
			vertex 1.1700000143051148 1.5099999713897705 0.05
			vertex 1.2700000143051149 1.5099999713897705 0.05
			vertex 1.2700000143051149 1.6099999713897706 0.05
		endloop
	endfacet
	facet normal 0 0 -1
		outer loop
			vertex 1.2700000143051149 1.6099999713897706 -0.05
			vertex 1.2700000143051149 1.5099999713897705 -0.05
			vertex 1.1700000143051148 1.6099999713897706 -0.05
		endloop
	endfacet
	facet normal 0 0 -1
		outer loop
			vertex 1.2700000143051149 1.5099999713897705 -0.05
			vertex 1.1700000143051148 1.5099999713897705 -0.05
			vertex 1.1700000143051148 1.6099999713897706 -0.05
		endloop
	endfacet
	facet normal 1 0 0
		outer loop
			vertex 1.009999989271164 0.35000000596046443 1.0300000095367432
			vertex 1.009999989271164 0.25000000596046446 1.0300000095367432
			vertex 1.009999989271164 0.35000000596046443 0.9300000095367431
		endloop
	endfacet
	facet normal 1 0 0
		outer loop
			vertex 1.009999989271164 0.25000000596046446 1.0300000095367432
			vertex 1.009999989271164 0.25000000596046446 0.9300000095367431
			vertex 1.009999989271164 0.35000000596046443 0.9300000095367431
		endloop
	endfacet
	facet normal -1 0 0
		outer loop
			vertex 0.9099999892711639 0.35000000596046443 0.9300000095367431
			vertex 0.9099999892711639 0.25000000596046446 0.9300000095367431
			vertex 0.9099999892711639 0.35000000596046443 1.0300000095367432
		endloop
	endfacet
	facet normal -1 0 0
		outer loop
			vertex 0.9099999892711639 0.25000000596046446 0.9300000095367431
			vertex 0.9099999892711639 0.25000000596046446 1.0300000095367432
			vertex 0.9099999892711639 0.35000000596046443 1.0300000095367432
		endloop
	endfacet
	facet normal 0 1 0
		outer loop
			vertex 0.9099999892711639 0.35000000596046443 0.9300000095367431
			vertex 0.9099999892711639 0.35000000596046443 1.0300000095367432
			vertex 1.009999989271164 0.35000000596046443 0.9300000095367431
		endloop
	endfacet
	facet normal 0 1 0
		outer loop
			vertex 0.9099999892711639 0.35000000596046443 1.0300000095367432
			vertex 1.009999989271164 0.35000000596046443 1.0300000095367432
			vertex 1.009999989271164 0.35000000596046443 0.9300000095367431
		endloop
	endfacet
	facet normal 0 -1 0
		outer loop
			vertex 0.9099999892711639 0.25000000596046446 1.0300000095367432
			vertex 0.9099999892711639 0.25000000596046446 0.9300000095367431
			vertex 1.009999989271164 0.25000000596046446 1.0300000095367432
		endloop
	endfacet
	facet normal 0 -1 0
		outer loop
			vertex 0.9099999892711639 0.25000000596046446 0.9300000095367431
			vertex 1.009999989271164 0.25000000596046446 0.9300000095367431
			vertex 1.009999989271164 0.25000000596046446 1.0300000095367432
		endloop
	endfacet
	facet normal 0 0 1
		outer loop
			vertex 0.9099999892711639 0.35000000596046443 1.0300000095367432
			vertex 0.9099999892711639 0.25000000596046446 1.0300000095367432
			vertex 1.009999989271164 0.35000000596046443 1.0300000095367432
		endloop
	endfacet
	facet normal 0 0 1
		outer loop
			vertex 0.9099999892711639 0.25000000596046446 1.0300000095367432
			vertex 1.009999989271164 0.25000000596046446 1.0300000095367432
			vertex 1.009999989271164 0.35000000596046443 1.0300000095367432
		endloop
	endfacet
	facet normal 0 0 -1
		outer loop
			vertex 1.009999989271164 0.35000000596046443 0.9300000095367431
			vertex 1.009999989271164 0.25000000596046446 0.9300000095367431
			vertex 0.9099999892711639 0.35000000596046443 0.9300000095367431
		endloop
	endfacet
	facet normal 0 0 -1
		outer loop
			vertex 1.009999989271164 0.25000000596046446 0.9300000095367431
			vertex 0.9099999892711639 0.25000000596046446 0.9300000095367431
			vertex 0.9099999892711639 0.35000000596046443 0.9300000095367431
		endloop
	endfacet
	facet normal 1 0 0
		outer loop
			vertex 1.150000011920929 0.26999999940395353 1.3299999856948852
			vertex 1.150000011920929 0.16999999940395355 1.3299999856948852
			vertex 1.150000011920929 0.26999999940395353 1.2299999856948851
		endloop
	endfacet
	facet normal 1 0 0
		outer loop
			vertex 1.150000011920929 0.16999999940395355 1.3299999856948852
			vertex 1.150000011920929 0.16999999940395355 1.2299999856948851
			vertex 1.150000011920929 0.26999999940395353 1.2299999856948851
		endloop
	endfacet
	facet normal -1 0 0
		outer loop
			vertex 1.050000011920929 0.26999999940395353 1.2299999856948851
			vertex 1.050000011920929 0.16999999940395355 1.2299999856948851
			vertex 1.050000011920929 0.26999999940395353 1.3299999856948852
		endloop
	endfacet
	facet normal -1 0 0
		outer loop
			vertex 1.050000011920929 0.16999999940395355 1.2299999856948851
			vertex 1.050000011920929 0.16999999940395355 1.3299999856948852
			vertex 1.050000011920929 0.26999999940395353 1.3299999856948852
		endloop
	endfacet
	facet normal 0 1 0
		outer loop
			vertex 1.050000011920929 0.26999999940395353 1.2299999856948851
			vertex 1.050000011920929 0.26999999940395353 1.3299999856948852
			vertex 1.150000011920929 0.26999999940395353 1.2299999856948851
		endloop
	endfacet
	facet normal 0 1 0
		outer loop
			vertex 1.050000011920929 0.26999999940395353 1.3299999856948852
			vertex 1.150000011920929 0.26999999940395353 1.3299999856948852
			vertex 1.150000011920929 0.26999999940395353 1.2299999856948851
		endloop
	endfacet
	facet normal 0 -1 0
		outer loop
			vertex 1.050000011920929 0.16999999940395355 1.3299999856948852
			vertex 1.050000011920929 0.16999999940395355 1.2299999856948851
			vertex 1.150000011920929 0.16999999940395355 1.3299999856948852
		endloop
	endfacet
	facet normal 0 -1 0
		outer loop
			vertex 1.050000011920929 0.16999999940395355 1.2299999856948851
			vertex 1.150000011920929 0.16999999940395355 1.2299999856948851
			vertex 1.150000011920929 0.16999999940395355 1.3299999856948852
		endloop
	endfacet
	facet normal 0 0 1
		outer loop
			vertex 1.050000011920929 0.26999999940395353 1.3299999856948852
			vertex 1.050000011920929 0.16999999940395355 1.3299999856948852
			vertex 1.150000011920929 0.26999999940395353 1.3299999856948852
		endloop
	endfacet
	facet normal 0 0 1
		outer loop
			vertex 1.050000011920929 0.16999999940395355 1.3299999856948852
			vertex 1.150000011920929 0.16999999940395355 1.3299999856948852
			vertex 1.150000011920929 0.26999999940395353 1.3299999856948852
		endloop
	endfacet
	facet normal 0 0 -1
		outer loop
			vertex 1.150000011920929 0.26999999940395353 1.2299999856948851
			vertex 1.150000011920929 0.16999999940395355 1.2299999856948851
			vertex 1.050000011920929 0.26999999940395353 1.2299999856948851
		endloop
	endfacet
	facet normal 0 0 -1
		outer loop
			vertex 1.150000011920929 0.16999999940395355 1.2299999856948851
			vertex 1.050000011920929 0.16999999940395355 1.2299999856948851
			vertex 1.050000011920929 0.26999999940395353 1.2299999856948851
		endloop
	endfacet
	facet normal 1 0 0
		outer loop
			vertex 1.2099999833106994 1.4100000071525574 1.949999988079071
			vertex 1.2099999833106994 1.3100000071525573 1.949999988079071
			vertex 1.2099999833106994 1.4100000071525574 1.849999988079071
		endloop
	endfacet
	facet normal 1 0 0
		outer loop
			vertex 1.2099999833106994 1.3100000071525573 1.949999988079071
			vertex 1.2099999833106994 1.3100000071525573 1.849999988079071
			vertex 1.2099999833106994 1.4100000071525574 1.849999988079071
		endloop
	endfacet
	facet normal -1 0 0
		outer loop
			vertex 1.1099999833106993 1.4100000071525574 1.849999988079071
			vertex 1.1099999833106993 1.3100000071525573 1.849999988079071
			vertex 1.1099999833106993 1.4100000071525574 1.949999988079071
		endloop
	endfacet
	facet normal -1 0 0
		outer loop
			vertex 1.1099999833106993 1.3100000071525573 1.849999988079071
			vertex 1.1099999833106993 1.3100000071525573 1.949999988079071
			vertex 1.1099999833106993 1.4100000071525574 1.949999988079071
		endloop
	endfacet
	facet normal 0 1 0
		outer loop
			vertex 1.1099999833106993 1.4100000071525574 1.849999988079071
			vertex 1.1099999833106993 1.4100000071525574 1.949999988079071
			vertex 1.2099999833106994 1.4100000071525574 1.849999988079071
		endloop
	endfacet
	facet normal 0 1 0
		outer loop
			vertex 1.1099999833106993 1.4100000071525574 1.949999988079071
			vertex 1.2099999833106994 1.4100000071525574 1.949999988079071
			vertex 1.2099999833106994 1.4100000071525574 1.849999988079071
		endloop
	endfacet
	facet normal 0 -1 0
		outer loop
			vertex 1.1099999833106993 1.3100000071525573 1.949999988079071
			vertex 1.1099999833106993 1.3100000071525573 1.849999988079071
			vertex 1.2099999833106994 1.3100000071525573 1.949999988079071
		endloop
	endfacet
	facet normal 0 -1 0
		outer loop
			vertex 1.1099999833106993 1.3100000071525573 1.849999988079071
			vertex 1.2099999833106994 1.3100000071525573 1.849999988079071
			vertex 1.2099999833106994 1.3100000071525573 1.949999988079071
		endloop
	endfacet
	facet normal 0 0 1
		outer loop
			vertex 1.1099999833106993 1.4100000071525574 1.949999988079071
			vertex 1.1099999833106993 1.3100000071525573 1.949999988079071
			vertex 1.2099999833106994 1.4100000071525574 1.949999988079071
		endloop
	endfacet
	facet normal 0 0 1
		outer loop
			vertex 1.1099999833106993 1.3100000071525573 1.949999988079071
			vertex 1.2099999833106994 1.3100000071525573 1.949999988079071
			vertex 1.2099999833106994 1.4100000071525574 1.949999988079071
		endloop
	endfacet
	facet normal 0 0 -1
		outer loop
			vertex 1.2099999833106994 1.4100000071525574 1.849999988079071
			vertex 1.2099999833106994 1.3100000071525573 1.849999988079071
			vertex 1.1099999833106993 1.4100000071525574 1.849999988079071
		endloop
	endfacet
	facet normal 0 0 -1
		outer loop
			vertex 1.2099999833106994 1.3100000071525573 1.849999988079071
			vertex 1.1099999833106993 1.3100000071525573 1.849999988079071
			vertex 1.1099999833106993 1.4100000071525574 1.849999988079071
		endloop
	endfacet
	facet normal 1 0 0
		outer loop
			vertex 0.3900000017881393 0.4699999934434891 1.9100000071525574
			vertex 0.3900000017881393 0.3699999934434891 1.9100000071525574
			vertex 0.3900000017881393 0.4699999934434891 1.8100000071525573
		endloop
	endfacet
	facet normal 1 0 0
		outer loop
			vertex 0.3900000017881393 0.3699999934434891 1.9100000071525574
			vertex 0.3900000017881393 0.3699999934434891 1.8100000071525573
			vertex 0.3900000017881393 0.4699999934434891 1.8100000071525573
		endloop
	endfacet
	facet normal -1 0 0
		outer loop
			vertex 0.29000000178813934 0.4699999934434891 1.8100000071525573
			vertex 0.29000000178813934 0.3699999934434891 1.8100000071525573
			vertex 0.29000000178813934 0.4699999934434891 1.9100000071525574
		endloop
	endfacet
	facet normal -1 0 0
		outer loop
			vertex 0.29000000178813934 0.3699999934434891 1.8100000071525573
			vertex 0.29000000178813934 0.3699999934434891 1.9100000071525574
			vertex 0.29000000178813934 0.4699999934434891 1.9100000071525574
		endloop
	endfacet
	facet normal 0 1 0
		outer loop
			vertex 0.29000000178813934 0.4699999934434891 1.8100000071525573
			vertex 0.29000000178813934 0.4699999934434891 1.9100000071525574
			vertex 0.3900000017881393 0.4699999934434891 1.8100000071525573
		endloop
	endfacet
	facet normal 0 1 0
		outer loop
			vertex 0.29000000178813934 0.4699999934434891 1.9100000071525574
			vertex 0.3900000017881393 0.4699999934434891 1.9100000071525574
			vertex 0.3900000017881393 0.4699999934434891 1.8100000071525573
		endloop
	endfacet
	facet normal 0 -1 0
		outer loop
			vertex 0.29000000178813934 0.3699999934434891 1.9100000071525574
			vertex 0.29000000178813934 0.3699999934434891 1.8100000071525573
			vertex 0.3900000017881393 0.3699999934434891 1.9100000071525574
		endloop
	endfacet
	facet normal 0 -1 0
		outer loop
			vertex 0.29000000178813934 0.3699999934434891 1.8100000071525573
			vertex 0.3900000017881393 0.3699999934434891 1.8100000071525573
			vertex 0.3900000017881393 0.3699999934434891 1.9100000071525574
		endloop
	endfacet
	facet normal 0 0 1
		outer loop
			vertex 0.29000000178813934 0.4699999934434891 1.9100000071525574
			vertex 0.29000000178813934 0.3699999934434891 1.9100000071525574
			vertex 0.3900000017881393 0.4699999934434891 1.9100000071525574
		endloop
	endfacet
	facet normal 0 0 1
		outer loop
			vertex 0.29000000178813934 0.3699999934434891 1.9100000071525574
			vertex 0.3900000017881393 0.3699999934434891 1.9100000071525574
			vertex 0.3900000017881393 0.4699999934434891 1.9100000071525574
		endloop
	endfacet
	facet normal 0 0 -1
		outer loop
			vertex 0.3900000017881393 0.4699999934434891 1.8100000071525573
			vertex 0.3900000017881393 0.3699999934434891 1.8100000071525573
			vertex 0.29000000178813934 0.4699999934434891 1.8100000071525573
		endloop
	endfacet
	facet normal 0 0 -1
		outer loop
			vertex 0.3900000017881393 0.3699999934434891 1.8100000071525573
			vertex 0.29000000178813934 0.3699999934434891 1.8100000071525573
			vertex 0.29000000178813934 0.4699999934434891 1.8100000071525573
		endloop
	endfacet
endsolid exported
