solid exported
	facet normal 1 0 0
		outer loop
			vertex 0.8899999868869781 0.529999994635582 1.8499999761581423
			vertex 0.8899999868869781 0.429999994635582 1.8499999761581423
			vertex 0.8899999868869781 0.529999994635582 1.7499999761581422
		endloop
	endfacet
	facet normal 1 0 0
		outer loop
			vertex 0.8899999868869781 0.429999994635582 1.8499999761581423
			vertex 0.8899999868869781 0.429999994635582 1.7499999761581422
			vertex 0.8899999868869781 0.529999994635582 1.7499999761581422
		endloop
	endfacet
	facet normal -1 0 0
		outer loop
			vertex 0.7899999868869781 0.529999994635582 1.7499999761581422
			vertex 0.7899999868869781 0.429999994635582 1.7499999761581422
			vertex 0.7899999868869781 0.529999994635582 1.8499999761581423
		endloop
	endfacet
	facet normal -1 0 0
		outer loop
			vertex 0.7899999868869781 0.429999994635582 1.7499999761581422
			vertex 0.7899999868869781 0.429999994635582 1.8499999761581423
			vertex 0.7899999868869781 0.529999994635582 1.8499999761581423
		endloop
	endfacet
	facet normal 0 1 0
		outer loop
			vertex 0.7899999868869781 0.529999994635582 1.7499999761581422
			vertex 0.7899999868869781 0.529999994635582 1.8499999761581423
			vertex 0.8899999868869781 0.529999994635582 1.7499999761581422
		endloop
	endfacet
	facet normal 0 1 0
		outer loop
			vertex 0.7899999868869781 0.529999994635582 1.8499999761581423
			vertex 0.8899999868869781 0.529999994635582 1.8499999761581423
			vertex 0.8899999868869781 0.529999994635582 1.7499999761581422
		endloop
	endfacet
	facet normal 0 -1 0
		outer loop
			vertex 0.7899999868869781 0.429999994635582 1.8499999761581423
			vertex 0.7899999868869781 0.429999994635582 1.7499999761581422
			vertex 0.8899999868869781 0.429999994635582 1.8499999761581423
		endloop
	endfacet
	facet normal 0 -1 0
		outer loop
			vertex 0.7899999868869781 0.429999994635582 1.7499999761581422
			vertex 0.8899999868869781 0.429999994635582 1.7499999761581422
			vertex 0.8899999868869781 0.429999994635582 1.8499999761581423
		endloop
	endfacet
	facet normal 0 0 1
		outer loop
			vertex 0.7899999868869781 0.529999994635582 1.8499999761581423
			vertex 0.7899999868869781 0.429999994635582 1.8499999761581423
			vertex 0.8899999868869781 0.529999994635582 1.8499999761581423
		endloop
	endfacet
	facet normal 0 0 1
		outer loop
			vertex 0.7899999868869781 0.429999994635582 1.8499999761581423
			vertex 0.8899999868869781 0.429999994635582 1.8499999761581423
			vertex 0.8899999868869781 0.529999994635582 1.8499999761581423
		endloop
	endfacet
	facet normal 0 0 -1
		outer loop
			vertex 0.8899999868869781 0.529999994635582 1.7499999761581422
			vertex 0.8899999868869781 0.429999994635582 1.7499999761581422
			vertex 0.7899999868869781 0.529999994635582 1.7499999761581422
		endloop
	endfacet
	facet normal 0 0 -1
		outer loop
			vertex 0.8899999868869781 0.429999994635582 1.7499999761581422
			vertex 0.7899999868869781 0.429999994635582 1.7499999761581422
			vertex 0.7899999868869781 0.529999994635582 1.7499999761581422
		endloop
	endfacet
	facet normal 1 0 0
		outer loop
			vertex 0.06999999977648258 1.4900000286102295 1.9100000071525574
			vertex 0.06999999977648258 1.3900000286102294 1.9100000071525574
			vertex 0.06999999977648258 1.4900000286102295 1.8100000071525573
		endloop
	endfacet
	facet normal 1 0 0
		outer loop
			vertex 0.06999999977648258 1.3900000286102294 1.9100000071525574
			vertex 0.06999999977648258 1.3900000286102294 1.8100000071525573
			vertex 0.06999999977648258 1.4900000286102295 1.8100000071525573
		endloop
	endfacet
	facet normal -1 0 0
		outer loop
			vertex -0.03000000022351742 1.4900000286102295 1.8100000071525573
			vertex -0.03000000022351742 1.3900000286102294 1.8100000071525573
			vertex -0.03000000022351742 1.4900000286102295 1.9100000071525574
		endloop
	endfacet
	facet normal -1 0 0
		outer loop
			vertex -0.03000000022351742 1.3900000286102294 1.8100000071525573
			vertex -0.03000000022351742 1.3900000286102294 1.9100000071525574
			vertex -0.03000000022351742 1.4900000286102295 1.9100000071525574
		endloop
	endfacet
	facet normal 0 1 0
		outer loop
			vertex -0.03000000022351742 1.4900000286102295 1.8100000071525573
			vertex -0.03000000022351742 1.4900000286102295 1.9100000071525574
			vertex 0.06999999977648258 1.4900000286102295 1.8100000071525573
		endloop
	endfacet
	facet normal 0 1 0
		outer loop
			vertex -0.03000000022351742 1.4900000286102295 1.9100000071525574
			vertex 0.06999999977648258 1.4900000286102295 1.9100000071525574
			vertex 0.06999999977648258 1.4900000286102295 1.8100000071525573
		endloop
	endfacet
	facet normal 0 -1 0
		outer loop
			vertex -0.03000000022351742 1.3900000286102294 1.9100000071525574
			vertex -0.03000000022351742 1.3900000286102294 1.8100000071525573
			vertex 0.06999999977648258 1.3900000286102294 1.9100000071525574
		endloop
	endfacet
	facet normal 0 -1 0
		outer loop
			vertex -0.03000000022351742 1.3900000286102294 1.8100000071525573
			vertex 0.06999999977648258 1.3900000286102294 1.8100000071525573
			vertex 0.06999999977648258 1.3900000286102294 1.9100000071525574
		endloop
	endfacet
	facet normal 0 0 1
		outer loop
			vertex -0.03000000022351742 1.4900000286102295 1.9100000071525574
			vertex -0.03000000022351742 1.3900000286102294 1.9100000071525574
			vertex 0.06999999977648258 1.4900000286102295 1.9100000071525574
		endloop
	endfacet
	facet normal 0 0 1
		outer loop
			vertex -0.03000000022351742 1.3900000286102294 1.9100000071525574
			vertex 0.06999999977648258 1.3900000286102294 1.9100000071525574
			vertex 0.06999999977648258 1.4900000286102295 1.9100000071525574
		endloop
	endfacet
	facet normal 0 0 -1
		outer loop
			vertex 0.06999999977648258 1.4900000286102295 1.8100000071525573
			vertex 0.06999999977648258 1.3900000286102294 1.8100000071525573
			vertex -0.03000000022351742 1.4900000286102295 1.8100000071525573
		endloop
	endfacet
	facet normal 0 0 -1
		outer loop
			vertex 0.06999999977648258 1.3900000286102294 1.8100000071525573
			vertex -0.03000000022351742 1.3900000286102294 1.8100000071525573
			vertex -0.03000000022351742 1.4900000286102295 1.8100000071525573
		endloop
	endfacet
	facet normal 1 0 0
		outer loop
			vertex 0.4899999988079071 1.1099999713897706 0.7499999940395354
			vertex 0.4899999988079071 1.0099999713897705 0.7499999940395354
			vertex 0.4899999988079071 1.1099999713897706 0.6499999940395356
		endloop
	endfacet
	facet normal 1 0 0
		outer loop
			vertex 0.4899999988079071 1.0099999713897705 0.7499999940395354
			vertex 0.4899999988079071 1.0099999713897705 0.6499999940395356
			vertex 0.4899999988079071 1.1099999713897706 0.6499999940395356
		endloop
	endfacet
	facet normal -1 0 0
		outer loop
			vertex 0.38999999880790714 1.1099999713897706 0.6499999940395356
			vertex 0.38999999880790714 1.0099999713897705 0.6499999940395356
			vertex 0.38999999880790714 1.1099999713897706 0.7499999940395354
		endloop
	endfacet
	facet normal -1 0 0
		outer loop
			vertex 0.38999999880790714 1.0099999713897705 0.6499999940395356
			vertex 0.38999999880790714 1.0099999713897705 0.7499999940395354
			vertex 0.38999999880790714 1.1099999713897706 0.7499999940395354
		endloop
	endfacet
	facet normal 0 1 0
		outer loop
			vertex 0.38999999880790714 1.1099999713897706 0.6499999940395356
			vertex 0.38999999880790714 1.1099999713897706 0.7499999940395354
			vertex 0.4899999988079071 1.1099999713897706 0.6499999940395356
		endloop
	endfacet
	facet normal 0 1 0
		outer loop
			vertex 0.38999999880790714 1.1099999713897706 0.7499999940395354
			vertex 0.4899999988079071 1.1099999713897706 0.7499999940395354
			vertex 0.4899999988079071 1.1099999713897706 0.6499999940395356
		endloop
	endfacet
	facet normal 0 -1 0
		outer loop
			vertex 0.38999999880790714 1.0099999713897705 0.7499999940395354
			vertex 0.38999999880790714 1.0099999713897705 0.6499999940395356
			vertex 0.4899999988079071 1.0099999713897705 0.7499999940395354
		endloop
	endfacet
	facet normal 0 -1 0
		outer loop
			vertex 0.38999999880790714 1.0099999713897705 0.6499999940395356
			vertex 0.4899999988079071 1.0099999713897705 0.6499999940395356
			vertex 0.4899999988079071 1.0099999713897705 0.7499999940395354
		endloop
	endfacet
	facet normal 0 0 1
		outer loop
			vertex 0.38999999880790714 1.1099999713897706 0.7499999940395354
			vertex 0.38999999880790714 1.0099999713897705 0.7499999940395354
			vertex 0.4899999988079071 1.1099999713897706 0.7499999940395354
		endloop
	endfacet
	facet normal 0 0 1
		outer loop
			vertex 0.38999999880790714 1.0099999713897705 0.7499999940395354
			vertex 0.4899999988079071 1.0099999713897705 0.7499999940395354
			vertex 0.4899999988079071 1.1099999713897706 0.7499999940395354
		endloop
	endfacet
	facet normal 0 0 -1
		outer loop
			vertex 0.4899999988079071 1.1099999713897706 0.6499999940395356
			vertex 0.4899999988079071 1.0099999713897705 0.6499999940395356
			vertex 0.38999999880790714 1.1099999713897706 0.6499999940395356
		endloop
	endfacet
	facet normal 0 0 -1
		outer loop
			vertex 0.4899999988079071 1.0099999713897705 0.6499999940395356
			vertex 0.38999999880790714 1.0099999713897705 0.6499999940395356
			vertex 0.38999999880790714 1.1099999713897706 0.6499999940395356
		endloop
	endfacet
	facet normal 1 0 0
		outer loop
			vertex 1.449999988079071 0.4299999976158142 0.9700000083446503
			vertex 1.449999988079071 0.3299999976158142 0.9700000083446503
			vertex 1.449999988079071 0.4299999976158142 0.8700000083446503
		endloop
	endfacet
	facet normal 1 0 0
		outer loop
			vertex 1.449999988079071 0.3299999976158142 0.9700000083446503
			vertex 1.449999988079071 0.3299999976158142 0.8700000083446503
			vertex 1.449999988079071 0.4299999976158142 0.8700000083446503
		endloop
	endfacet
	facet normal -1 0 0
		outer loop
			vertex 1.349999988079071 0.4299999976158142 0.8700000083446503
			vertex 1.349999988079071 0.3299999976158142 0.8700000083446503
			vertex 1.349999988079071 0.4299999976158142 0.9700000083446503
		endloop
	endfacet
	facet normal -1 0 0
		outer loop
			vertex 1.349999988079071 0.3299999976158142 0.8700000083446503
			vertex 1.349999988079071 0.3299999976158142 0.9700000083446503
			vertex 1.349999988079071 0.4299999976158142 0.9700000083446503
		endloop
	endfacet
	facet normal 0 1 0
		outer loop
			vertex 1.349999988079071 0.4299999976158142 0.8700000083446503
			vertex 1.349999988079071 0.4299999976158142 0.9700000083446503
			vertex 1.449999988079071 0.4299999976158142 0.8700000083446503
		endloop
	endfacet
	facet normal 0 1 0
		outer loop
			vertex 1.349999988079071 0.4299999976158142 0.9700000083446503
			vertex 1.449999988079071 0.4299999976158142 0.9700000083446503
			vertex 1.449999988079071 0.4299999976158142 0.8700000083446503
		endloop
	endfacet
	facet normal 0 -1 0
		outer loop
			vertex 1.349999988079071 0.3299999976158142 0.9700000083446503
			vertex 1.349999988079071 0.3299999976158142 0.8700000083446503
			vertex 1.449999988079071 0.3299999976158142 0.9700000083446503
		endloop
	endfacet
	facet normal 0 -1 0
		outer loop
			vertex 1.349999988079071 0.3299999976158142 0.8700000083446503
			vertex 1.449999988079071 0.3299999976158142 0.8700000083446503
			vertex 1.449999988079071 0.3299999976158142 0.9700000083446503
		endloop
	endfacet
	facet normal 0 0 1
		outer loop
			vertex 1.349999988079071 0.4299999976158142 0.9700000083446503
			vertex 1.349999988079071 0.3299999976158142 0.9700000083446503
			vertex 1.449999988079071 0.4299999976158142 0.9700000083446503
		endloop
	endfacet
	facet normal 0 0 1
		outer loop
			vertex 1.349999988079071 0.3299999976158142 0.9700000083446503
			vertex 1.449999988079071 0.3299999976158142 0.9700000083446503
			vertex 1.449999988079071 0.4299999976158142 0.9700000083446503
		endloop
	endfacet
	facet normal 0 0 -1
		outer loop
			vertex 1.449999988079071 0.4299999976158142 0.8700000083446503
			vertex 1.449999988079071 0.3299999976158142 0.8700000083446503
			vertex 1.349999988079071 0.4299999976158142 0.8700000083446503
		endloop
	endfacet
	facet normal 0 0 -1
		outer loop
			vertex 1.449999988079071 0.3299999976158142 0.8700000083446503
			vertex 1.349999988079071 0.3299999976158142 0.8700000083446503
			vertex 1.349999988079071 0.4299999976158142 0.8700000083446503
		endloop
	endfacet
	facet normal 1 0 0
		outer loop
			vertex 0.6299999916553497 0.610000001192093 0.3699999964237213
			vertex 0.6299999916553497 0.5100000011920929 0.3699999964237213
			vertex 0.6299999916553497 0.610000001192093 0.2699999964237213
		endloop
	endfacet
	facet normal 1 0 0
		outer loop
			vertex 0.6299999916553497 0.5100000011920929 0.3699999964237213
			vertex 0.6299999916553497 0.5100000011920929 0.2699999964237213
			vertex 0.6299999916553497 0.610000001192093 0.2699999964237213
		endloop
	endfacet
	facet normal -1 0 0
		outer loop
			vertex 0.5299999916553497 0.610000001192093 0.2699999964237213
			vertex 0.5299999916553497 0.5100000011920929 0.2699999964237213
			vertex 0.5299999916553497 0.610000001192093 0.3699999964237213
		endloop
	endfacet
	facet normal -1 0 0
		outer loop
			vertex 0.5299999916553497 0.5100000011920929 0.2699999964237213
			vertex 0.5299999916553497 0.5100000011920929 0.3699999964237213
			vertex 0.5299999916553497 0.610000001192093 0.3699999964237213
		endloop
	endfacet
	facet normal 0 1 0
		outer loop
			vertex 0.5299999916553497 0.610000001192093 0.2699999964237213
			vertex 0.5299999916553497 0.610000001192093 0.3699999964237213
			vertex 0.6299999916553497 0.610000001192093 0.2699999964237213
		endloop
	endfacet
	facet normal 0 1 0
		outer loop
			vertex 0.5299999916553497 0.610000001192093 0.3699999964237213
			vertex 0.6299999916553497 0.610000001192093 0.3699999964237213
			vertex 0.6299999916553497 0.610000001192093 0.2699999964237213
		endloop
	endfacet
	facet normal 0 -1 0
		outer loop
			vertex 0.5299999916553497 0.5100000011920929 0.3699999964237213
			vertex 0.5299999916553497 0.5100000011920929 0.2699999964237213
			vertex 0.6299999916553497 0.5100000011920929 0.3699999964237213
		endloop
	endfacet
	facet normal 0 -1 0
		outer loop
			vertex 0.5299999916553497 0.5100000011920929 0.2699999964237213
			vertex 0.6299999916553497 0.5100000011920929 0.2699999964237213
			vertex 0.6299999916553497 0.5100000011920929 0.3699999964237213
		endloop
	endfacet
	facet normal 0 0 1
		outer loop
			vertex 0.5299999916553497 0.610000001192093 0.3699999964237213
			vertex 0.5299999916553497 0.5100000011920929 0.3699999964237213
			vertex 0.6299999916553497 0.610000001192093 0.3699999964237213
		endloop
	endfacet
	facet normal 0 0 1
		outer loop
			vertex 0.5299999916553497 0.5100000011920929 0.3699999964237213
			vertex 0.6299999916553497 0.5100000011920929 0.3699999964237213
			vertex 0.6299999916553497 0.610000001192093 0.3699999964237213
		endloop
	endfacet
	facet normal 0 0 -1
		outer loop
			vertex 0.6299999916553497 0.610000001192093 0.2699999964237213
			vertex 0.6299999916553497 0.5100000011920929 0.2699999964237213
			vertex 0.5299999916553497 0.610000001192093 0.2699999964237213
		endloop
	endfacet
	facet normal 0 0 -1
		outer loop
			vertex 0.6299999916553497 0.5100000011920929 0.2699999964237213
			vertex 0.5299999916553497 0.5100000011920929 0.2699999964237213
			vertex 0.5299999916553497 0.610000001192093 0.2699999964237213
		endloop
	endfacet
	facet normal 1 0 0
		outer loop
			vertex 0.5100000041723252 1.9900000286102295 0.16999999865889548
			vertex 0.5100000041723252 1.8900000286102294 0.16999999865889548
			vertex 0.5100000041723252 1.9900000286102295 0.06999999865889549
		endloop
	endfacet
	facet normal 1 0 0
		outer loop
			vertex 0.5100000041723252 1.8900000286102294 0.16999999865889548
			vertex 0.5100000041723252 1.8900000286102294 0.06999999865889549
			vertex 0.5100000041723252 1.9900000286102295 0.06999999865889549
		endloop
	endfacet
	facet normal -1 0 0
		outer loop
			vertex 0.4100000041723252 1.9900000286102295 0.06999999865889549
			vertex 0.4100000041723252 1.8900000286102294 0.06999999865889549
			vertex 0.4100000041723252 1.9900000286102295 0.16999999865889548
		endloop
	endfacet
	facet normal -1 0 0
		outer loop
			vertex 0.4100000041723252 1.8900000286102294 0.06999999865889549
			vertex 0.4100000041723252 1.8900000286102294 0.16999999865889548
			vertex 0.4100000041723252 1.9900000286102295 0.16999999865889548
		endloop
	endfacet
	facet normal 0 1 0
		outer loop
			vertex 0.4100000041723252 1.9900000286102295 0.06999999865889549
			vertex 0.4100000041723252 1.9900000286102295 0.16999999865889548
			vertex 0.5100000041723252 1.9900000286102295 0.06999999865889549
		endloop
	endfacet
	facet normal 0 1 0
		outer loop
			vertex 0.4100000041723252 1.9900000286102295 0.16999999865889548
			vertex 0.5100000041723252 1.9900000286102295 0.16999999865889548
			vertex 0.5100000041723252 1.9900000286102295 0.06999999865889549
		endloop
	endfacet
	facet normal 0 -1 0
		outer loop
			vertex 0.4100000041723252 1.8900000286102294 0.16999999865889548
			vertex 0.4100000041723252 1.8900000286102294 0.06999999865889549
			vertex 0.5100000041723252 1.8900000286102294 0.16999999865889548
		endloop
	endfacet
	facet normal 0 -1 0
		outer loop
			vertex 0.4100000041723252 1.8900000286102294 0.06999999865889549
			vertex 0.5100000041723252 1.8900000286102294 0.06999999865889549
			vertex 0.5100000041723252 1.8900000286102294 0.16999999865889548
		endloop
	endfacet
	facet normal 0 0 1
		outer loop
			vertex 0.4100000041723252 1.9900000286102295 0.16999999865889548
			vertex 0.4100000041723252 1.8900000286102294 0.16999999865889548
			vertex 0.5100000041723252 1.9900000286102295 0.16999999865889548
		endloop
	endfacet
	facet normal 0 0 1
		outer loop
			vertex 0.4100000041723252 1.8900000286102294 0.16999999865889548
			vertex 0.5100000041723252 1.8900000286102294 0.16999999865889548
			vertex 0.5100000041723252 1.9900000286102295 0.16999999865889548
		endloop
	endfacet
	facet normal 0 0 -1
		outer loop
			vertex 0.5100000041723252 1.9900000286102295 0.06999999865889549
			vertex 0.5100000041723252 1.8900000286102294 0.06999999865889549
			vertex 0.4100000041723252 1.9900000286102295 0.06999999865889549
		endloop
	endfacet
	facet normal 0 0 -1
		outer loop
			vertex 0.5100000041723252 1.8900000286102294 0.06999999865889549
			vertex 0.4100000041723252 1.8900000286102294 0.06999999865889549
			vertex 0.4100000041723252 1.9900000286102295 0.06999999865889549
		endloop
	endfacet
	facet normal 0 0 0
		outer loop
			vertex 1.200000023841858 2.035000019073486 1.1399999928474425
			vertex 1.200000023841858 1.8850000190734864 1.2899999928474426
			vertex 1.200000023841858 2.035000019073486 1.1399999928474425
		endloop
	endfacet
	facet normal 0.5773502691896257 0.5773502691896257 0.5773502691896257
		outer loop
			vertex 1.200000023841858 1.8850000190734864 1.2899999928474426
			vertex 1.350000023841858 1.8850000190734864 1.1399999928474425
			vertex 1.200000023841858 2.035000019073486 1.1399999928474425
		endloop
	endfacet
	facet normal 0 0 0
		outer loop
			vertex 1.200000023841858 2.035000019073486 1.1399999928474425
			vertex 1.350000023841858 1.8850000190734864 1.1399999928474425
			vertex 1.200000023841858 2.035000019073486 1.1399999928474425
		endloop
	endfacet
	facet normal 0.5773502691896258 0.5773502691896258 -0.5773502691896257
		outer loop
			vertex 1.350000023841858 1.8850000190734864 1.1399999928474425
			vertex 1.200000023841858 1.8850000190734864 0.9899999928474426
			vertex 1.200000023841858 2.035000019073486 1.1399999928474425
		endloop
	endfacet
	facet normal 0 0 0
		outer loop
			vertex 1.200000023841858 2.035000019073486 1.1399999928474425
			vertex 1.200000023841858 1.8850000190734864 0.9899999928474426
			vertex 1.200000023841858 2.035000019073486 1.1399999928474425
		endloop
	endfacet
	facet normal -0.5773502691896257 0.5773502691896258 -0.577350269189626
		outer loop
			vertex 1.200000023841858 1.8850000190734864 0.9899999928474426
			vertex 1.0500000238418579 1.8850000190734864 1.1399999928474425
			vertex 1.200000023841858 2.035000019073486 1.1399999928474425
		endloop
	endfacet
	facet normal 0 0 0
		outer loop
			vertex 1.200000023841858 2.035000019073486 1.1399999928474425
			vertex 1.0500000238418579 1.8850000190734864 1.1399999928474425
			vertex 1.200000023841858 2.035000019073486 1.1399999928474425
		endloop
	endfacet
	facet normal -0.5773502691896258 0.5773502691896258 0.5773502691896257
		outer loop
			vertex 1.0500000238418579 1.8850000190734864 1.1399999928474425
			vertex 1.200000023841858 1.8850000190734864 1.2899999928474426
			vertex 1.200000023841858 2.035000019073486 1.1399999928474425
		endloop
	endfacet
	facet normal 0 -0.9999999999999999 0
		outer loop
			vertex 1.350000023841858 1.8850000190734864 1.1399999928474425
			vertex 1.200000023841858 1.8850000190734864 1.2899999928474426
			vertex 1.200000023841858 1.8850000190734864 1.1399999928474425
		endloop
	endfacet
	facet normal 0 -0.9999999999999999 0
		outer loop
			vertex 1.200000023841858 1.8850000190734864 0.9899999928474426
			vertex 1.350000023841858 1.8850000190734864 1.1399999928474425
			vertex 1.200000023841858 1.8850000190734864 1.1399999928474425
		endloop
	endfacet
	facet normal 0 -0.9999999999999999 0
		outer loop
			vertex 1.0500000238418579 1.8850000190734864 1.1399999928474425
			vertex 1.200000023841858 1.8850000190734864 0.9899999928474426
			vertex 1.200000023841858 1.8850000190734864 1.1399999928474425
		endloop
	endfacet
	facet normal 0 -0.9999999999999999 0
		outer loop
			vertex 1.200000023841858 1.8850000190734864 1.2899999928474426
			vertex 1.0500000238418579 1.8850000190734864 1.1399999928474425
			vertex 1.200000023841858 1.8850000190734864 1.1399999928474425
		endloop
	endfacet
	facet normal 0 0 0
		outer loop
			vertex 1.9199999785423278 0.4549999976158142 1.3200000262260438
			vertex 1.9199999785423278 0.3049999976158142 1.4700000262260438
			vertex 1.9199999785423278 0.4549999976158142 1.3200000262260438
		endloop
	endfacet
	facet normal 0.5773502691896257 0.5773502691896257 0.5773502691896257
		outer loop
			vertex 1.9199999785423278 0.3049999976158142 1.4700000262260438
			vertex 2.0699999785423278 0.3049999976158142 1.3200000262260438
			vertex 1.9199999785423278 0.4549999976158142 1.3200000262260438
		endloop
	endfacet
	facet normal 0 0 0
		outer loop
			vertex 1.9199999785423278 0.4549999976158142 1.3200000262260438
			vertex 2.0699999785423278 0.3049999976158142 1.3200000262260438
			vertex 1.9199999785423278 0.4549999976158142 1.3200000262260438
		endloop
	endfacet
	facet normal 0.5773502691896258 0.5773502691896258 -0.5773502691896257
		outer loop
			vertex 2.0699999785423278 0.3049999976158142 1.3200000262260438
			vertex 1.9199999785423278 0.3049999976158142 1.1700000262260437
			vertex 1.9199999785423278 0.4549999976158142 1.3200000262260438
		endloop
	endfacet
	facet normal 0 0 0
		outer loop
			vertex 1.9199999785423278 0.4549999976158142 1.3200000262260438
			vertex 1.9199999785423278 0.3049999976158142 1.1700000262260437
			vertex 1.9199999785423278 0.4549999976158142 1.3200000262260438
		endloop
	endfacet
	facet normal -0.5773502691896257 0.5773502691896258 -0.577350269189626
		outer loop
			vertex 1.9199999785423278 0.3049999976158142 1.1700000262260437
			vertex 1.769999978542328 0.3049999976158142 1.3200000262260438
			vertex 1.9199999785423278 0.4549999976158142 1.3200000262260438
		endloop
	endfacet
	facet normal 0 0 0
		outer loop
			vertex 1.9199999785423278 0.4549999976158142 1.3200000262260438
			vertex 1.769999978542328 0.3049999976158142 1.3200000262260438
			vertex 1.9199999785423278 0.4549999976158142 1.3200000262260438
		endloop
	endfacet
	facet normal -0.5773502691896258 0.5773502691896258 0.5773502691896257
		outer loop
			vertex 1.769999978542328 0.3049999976158142 1.3200000262260438
			vertex 1.9199999785423278 0.3049999976158142 1.4700000262260438
			vertex 1.9199999785423278 0.4549999976158142 1.3200000262260438
		endloop
	endfacet
	facet normal 0 -0.9999999999999999 0
		outer loop
			vertex 2.0699999785423278 0.3049999976158142 1.3200000262260438
			vertex 1.9199999785423278 0.3049999976158142 1.4700000262260438
			vertex 1.9199999785423278 0.3049999976158142 1.3200000262260438
		endloop
	endfacet
	facet normal 0 -0.9999999999999999 0
		outer loop
			vertex 1.9199999785423278 0.3049999976158142 1.1700000262260437
			vertex 2.0699999785423278 0.3049999976158142 1.3200000262260438
			vertex 1.9199999785423278 0.3049999976158142 1.3200000262260438
		endloop
	endfacet
	facet normal 0 -0.9999999999999999 0
		outer loop
			vertex 1.769999978542328 0.3049999976158142 1.3200000262260438
			vertex 1.9199999785423278 0.3049999976158142 1.1700000262260437
			vertex 1.9199999785423278 0.3049999976158142 1.3200000262260438
		endloop
	endfacet
	facet normal 0 -0.9999999999999999 0
		outer loop
			vertex 1.9199999785423278 0.3049999976158142 1.4700000262260438
			vertex 1.769999978542328 0.3049999976158142 1.3200000262260438
			vertex 1.9199999785423278 0.3049999976158142 1.3200000262260438
		endloop
	endfacet
	facet normal 0 0 0
		outer loop
			vertex 0.41999999344348904 1.5949999904632568 1.0599999713897705
			vertex 0.41999999344348904 1.444999990463257 1.2099999713897707
			vertex 0.41999999344348904 1.5949999904632568 1.0599999713897705
		endloop
	endfacet
	facet normal 0.5773502691896257 0.5773502691896257 0.5773502691896257
		outer loop
			vertex 0.41999999344348904 1.444999990463257 1.2099999713897707
			vertex 0.5699999934434891 1.444999990463257 1.0599999713897705
			vertex 0.41999999344348904 1.5949999904632568 1.0599999713897705
		endloop
	endfacet
	facet normal 0 0 0
		outer loop
			vertex 0.41999999344348904 1.5949999904632568 1.0599999713897705
			vertex 0.5699999934434891 1.444999990463257 1.0599999713897705
			vertex 0.41999999344348904 1.5949999904632568 1.0599999713897705
		endloop
	endfacet
	facet normal 0.5773502691896258 0.5773502691896258 -0.5773502691896257
		outer loop
			vertex 0.5699999934434891 1.444999990463257 1.0599999713897705
			vertex 0.4199999934434891 1.444999990463257 0.9099999713897705
			vertex 0.41999999344348904 1.5949999904632568 1.0599999713897705
		endloop
	endfacet
	facet normal 0 0 0
		outer loop
			vertex 0.41999999344348904 1.5949999904632568 1.0599999713897705
			vertex 0.4199999934434891 1.444999990463257 0.9099999713897705
			vertex 0.41999999344348904 1.5949999904632568 1.0599999713897705
		endloop
	endfacet
	facet normal -0.5773502691896257 0.5773502691896258 -0.577350269189626
		outer loop
			vertex 0.4199999934434891 1.444999990463257 0.9099999713897705
			vertex 0.2699999934434891 1.444999990463257 1.0599999713897705
			vertex 0.41999999344348904 1.5949999904632568 1.0599999713897705
		endloop
	endfacet
	facet normal 0 0 0
		outer loop
			vertex 0.41999999344348904 1.5949999904632568 1.0599999713897705
			vertex 0.2699999934434891 1.444999990463257 1.0599999713897705
			vertex 0.41999999344348904 1.5949999904632568 1.0599999713897705
		endloop
	endfacet
	facet normal -0.5773502691896258 0.5773502691896258 0.5773502691896257
		outer loop
			vertex 0.2699999934434891 1.444999990463257 1.0599999713897705
			vertex 0.41999999344348904 1.444999990463257 1.2099999713897707
			vertex 0.41999999344348904 1.5949999904632568 1.0599999713897705
		endloop
	endfacet
	facet normal 0 -0.9999999999999999 0
		outer loop
			vertex 0.5699999934434891 1.444999990463257 1.0599999713897705
			vertex 0.41999999344348904 1.444999990463257 1.2099999713897707
			vertex 0.41999999344348904 1.444999990463257 1.0599999713897705
		endloop
	endfacet
	facet normal 0 -0.9999999999999999 0
		outer loop
			vertex 0.4199999934434891 1.444999990463257 0.9099999713897705
			vertex 0.5699999934434891 1.444999990463257 1.0599999713897705
			vertex 0.41999999344348904 1.444999990463257 1.0599999713897705
		endloop
	endfacet
	facet normal 0 -0.9999999999999999 0
		outer loop
			vertex 0.2699999934434891 1.444999990463257 1.0599999713897705
			vertex 0.4199999934434891 1.444999990463257 0.9099999713897705
			vertex 0.41999999344348904 1.444999990463257 1.0599999713897705
		endloop
	endfacet
	facet normal 0 -0.9999999999999999 0
		outer loop
			vertex 0.41999999344348904 1.444999990463257 1.2099999713897707
			vertex 0.2699999934434891 1.444999990463257 1.0599999713897705
			vertex 0.41999999344348904 1.444999990463257 1.0599999713897705
		endloop
	endfacet
	facet normal 0 0 0
		outer loop
			vertex 0 1.974999988079071 0
			vertex 0 1.824999988079071 0.15
			vertex 0 1.974999988079071 0
		endloop
	endfacet
	facet normal 0.5773502691896257 0.5773502691896257 0.5773502691896257
		outer loop
			vertex 0 1.824999988079071 0.15
			vertex 0.15 1.824999988079071 9.184547653667829e-18
			vertex 0 1.974999988079071 0
		endloop
	endfacet
	facet normal 0 0 0
		outer loop
			vertex 0 1.974999988079071 0
			vertex 0.15 1.824999988079071 9.184547653667829e-18
			vertex 0 1.974999988079071 0
		endloop
	endfacet
	facet normal 0.5773502691896258 0.5773502691896258 -0.5773502691896257
		outer loop
			vertex 0.15 1.824999988079071 9.184547653667829e-18
			vertex 1.8369095307335657e-17 1.824999988079071 -0.15
			vertex 0 1.974999988079071 0
		endloop
	endfacet
	facet normal 0 0 0
		outer loop
			vertex 0 1.974999988079071 0
			vertex 1.8369095307335657e-17 1.824999988079071 -0.15
			vertex 0 1.974999988079071 0
		endloop
	endfacet
	facet normal -0.5773502691896257 0.5773502691896258 -0.577350269189626
		outer loop
			vertex 1.8369095307335657e-17 1.824999988079071 -0.15
			vertex -0.15 1.824999988079071 -2.7553642961003487e-17
			vertex 0 1.974999988079071 0
		endloop
	endfacet
	facet normal 0 0 0
		outer loop
			vertex 0 1.974999988079071 0
			vertex -0.15 1.824999988079071 -2.7553642961003487e-17
			vertex 0 1.974999988079071 0
		endloop
	endfacet
	facet normal -0.5773502691896258 0.5773502691896258 0.5773502691896257
		outer loop
			vertex -0.15 1.824999988079071 -2.7553642961003487e-17
			vertex -3.6738190614671314e-17 1.824999988079071 0.15
			vertex 0 1.974999988079071 0
		endloop
	endfacet
	facet normal 0 -0.9999999999999999 0
		outer loop
			vertex 0.15 1.824999988079071 9.184547653667829e-18
			vertex 0 1.824999988079071 0.15
			vertex 0 1.824999988079071 0
		endloop
	endfacet
	facet normal 0 -0.9999999999999999 0
		outer loop
			vertex 1.8369095307335657e-17 1.824999988079071 -0.15
			vertex 0.15 1.824999988079071 9.184547653667829e-18
			vertex 0 1.824999988079071 0
		endloop
	endfacet
	facet normal 0 -0.9999999999999999 0
		outer loop
			vertex -0.15 1.824999988079071 -2.7553642961003487e-17
			vertex 1.8369095307335657e-17 1.824999988079071 -0.15
			vertex 0 1.824999988079071 0
		endloop
	endfacet
	facet normal 0 -0.9999999999999999 0
		outer loop
			vertex -3.6738190614671314e-17 1.824999988079071 0.15
			vertex -0.15 1.824999988079071 -2.7553642961003487e-17
			vertex 0 1.824999988079071 0
		endloop
	endfacet
	facet normal 0 0 0
		outer loop
			vertex 0.6800000035762788 1.3749999761581422 1.8799999976158142
			vertex 0.6800000035762788 1.2249999761581423 2.029999997615814
			vertex 0.6800000035762788 1.3749999761581422 1.8799999976158142
		endloop
	endfacet
	facet normal 0.5773502691896257 0.5773502691896257 0.5773502691896257
		outer loop
			vertex 0.6800000035762788 1.2249999761581423 2.029999997615814
			vertex 0.8300000035762787 1.2249999761581423 1.8799999976158142
			vertex 0.6800000035762788 1.3749999761581422 1.8799999976158142
		endloop
	endfacet
	facet normal 0 0 0
		outer loop
			vertex 0.6800000035762788 1.3749999761581422 1.8799999976158142
			vertex 0.8300000035762787 1.2249999761581423 1.8799999976158142
			vertex 0.6800000035762788 1.3749999761581422 1.8799999976158142
		endloop
	endfacet
	facet normal 0.5773502691896258 0.5773502691896258 -0.5773502691896257
		outer loop
			vertex 0.8300000035762787 1.2249999761581423 1.8799999976158142
			vertex 0.6800000035762788 1.2249999761581423 1.7299999976158142
			vertex 0.6800000035762788 1.3749999761581422 1.8799999976158142
		endloop
	endfacet
	facet normal 0 0 0
		outer loop
			vertex 0.6800000035762788 1.3749999761581422 1.8799999976158142
			vertex 0.6800000035762788 1.2249999761581423 1.7299999976158142
			vertex 0.6800000035762788 1.3749999761581422 1.8799999976158142
		endloop
	endfacet
	facet normal -0.5773502691896257 0.5773502691896258 -0.577350269189626
		outer loop
			vertex 0.6800000035762788 1.2249999761581423 1.7299999976158142
			vertex 0.5300000035762787 1.2249999761581423 1.8799999976158142
			vertex 0.6800000035762788 1.3749999761581422 1.8799999976158142
		endloop
	endfacet
	facet normal 0 0 0
		outer loop
			vertex 0.6800000035762788 1.3749999761581422 1.8799999976158142
			vertex 0.5300000035762787 1.2249999761581423 1.8799999976158142
			vertex 0.6800000035762788 1.3749999761581422 1.8799999976158142
		endloop
	endfacet
	facet normal -0.5773502691896258 0.5773502691896258 0.5773502691896257
		outer loop
			vertex 0.5300000035762787 1.2249999761581423 1.8799999976158142
			vertex 0.6800000035762787 1.2249999761581423 2.029999997615814
			vertex 0.6800000035762788 1.3749999761581422 1.8799999976158142
		endloop
	endfacet
	facet normal 0 -0.9999999999999999 0
		outer loop
			vertex 0.8300000035762787 1.2249999761581423 1.8799999976158142
			vertex 0.6800000035762788 1.2249999761581423 2.029999997615814
			vertex 0.6800000035762788 1.2249999761581423 1.8799999976158142
		endloop
	endfacet
	facet normal 0 -0.9999999999999999 0
		outer loop
			vertex 0.6800000035762788 1.2249999761581423 1.7299999976158142
			vertex 0.8300000035762787 1.2249999761581423 1.8799999976158142
			vertex 0.6800000035762788 1.2249999761581423 1.8799999976158142
		endloop
	endfacet
	facet normal 0 -0.9999999999999999 0
		outer loop
			vertex 0.5300000035762787 1.2249999761581423 1.8799999976158142
			vertex 0.6800000035762788 1.2249999761581423 1.7299999976158142
			vertex 0.6800000035762788 1.2249999761581423 1.8799999976158142
		endloop
	endfacet
	facet normal 0 -0.9999999999999999 0
		outer loop
			vertex 0.6800000035762787 1.2249999761581423 2.029999997615814
			vertex 0.5300000035762787 1.2249999761581423 1.8799999976158142
			vertex 0.6800000035762788 1.2249999761581423 1.8799999976158142
		endloop
	endfacet
	facet normal 0 0 0
		outer loop
			vertex 1.700000023841858 1.0349999892711639 1.5
			vertex 1.700000023841858 0.884999989271164 1.65
			vertex 1.700000023841858 1.0349999892711639 1.5
		endloop
	endfacet
	facet normal 0.5773502691896257 0.5773502691896257 0.5773502691896257
		outer loop
			vertex 1.700000023841858 0.884999989271164 1.65
			vertex 1.850000023841858 0.884999989271164 1.5
			vertex 1.700000023841858 1.0349999892711639 1.5
		endloop
	endfacet
	facet normal 0 0 0
		outer loop
			vertex 1.700000023841858 1.0349999892711639 1.5
			vertex 1.850000023841858 0.884999989271164 1.5
			vertex 1.700000023841858 1.0349999892711639 1.5
		endloop
	endfacet
	facet normal 0.5773502691896258 0.5773502691896258 -0.5773502691896257
		outer loop
			vertex 1.850000023841858 0.884999989271164 1.5
			vertex 1.700000023841858 0.884999989271164 1.35
			vertex 1.700000023841858 1.0349999892711639 1.5
		endloop
	endfacet
	facet normal 0 0 0
		outer loop
			vertex 1.700000023841858 1.0349999892711639 1.5
			vertex 1.700000023841858 0.884999989271164 1.35
			vertex 1.700000023841858 1.0349999892711639 1.5
		endloop
	endfacet
	facet normal -0.5773502691896257 0.5773502691896258 -0.577350269189626
		outer loop
			vertex 1.700000023841858 0.884999989271164 1.35
			vertex 1.5500000238418579 0.884999989271164 1.5
			vertex 1.700000023841858 1.0349999892711639 1.5
		endloop
	endfacet
	facet normal 0 0 0
		outer loop
			vertex 1.700000023841858 1.0349999892711639 1.5
			vertex 1.5500000238418579 0.884999989271164 1.5
			vertex 1.700000023841858 1.0349999892711639 1.5
		endloop
	endfacet
	facet normal -0.5773502691896258 0.5773502691896258 0.5773502691896257
		outer loop
			vertex 1.5500000238418579 0.884999989271164 1.5
			vertex 1.700000023841858 0.884999989271164 1.65
			vertex 1.700000023841858 1.0349999892711639 1.5
		endloop
	endfacet
	facet normal 0 -0.9999999999999999 0
		outer loop
			vertex 1.850000023841858 0.884999989271164 1.5
			vertex 1.700000023841858 0.884999989271164 1.65
			vertex 1.700000023841858 0.884999989271164 1.5
		endloop
	endfacet
	facet normal 0 -0.9999999999999999 0
		outer loop
			vertex 1.700000023841858 0.884999989271164 1.35
			vertex 1.850000023841858 0.884999989271164 1.5
			vertex 1.700000023841858 0.884999989271164 1.5
		endloop
	endfacet
	facet normal 0 -0.9999999999999999 0
		outer loop
			vertex 1.5500000238418579 0.884999989271164 1.5
			vertex 1.700000023841858 0.884999989271164 1.35
			vertex 1.700000023841858 0.884999989271164 1.5
		endloop
	endfacet
	facet normal 0 -0.9999999999999999 0
		outer loop
			vertex 1.700000023841858 0.884999989271164 1.65
			vertex 1.5500000238418579 0.884999989271164 1.5
			vertex 1.700000023841858 0.884999989271164 1.5
		endloop
	endfacet
	facet normal 1 0 0
		outer loop
			vertex 1.3299999856948852 0.3699999964237213 0.10999999932944775
			vertex 1.3299999856948852 0.2699999964237213 0.10999999932944775
			vertex 1.3299999856948852 0.3699999964237213 0.009999999329447742
		endloop
	endfacet
	facet normal 1 0 0
		outer loop
			vertex 1.3299999856948852 0.2699999964237213 0.10999999932944775
			vertex 1.3299999856948852 0.2699999964237213 0.009999999329447742
			vertex 1.3299999856948852 0.3699999964237213 0.009999999329447742
		endloop
	endfacet
	facet normal -1 0 0
		outer loop
			vertex 1.2299999856948851 0.3699999964237213 0.009999999329447742
			vertex 1.2299999856948851 0.2699999964237213 0.009999999329447742
			vertex 1.2299999856948851 0.3699999964237213 0.10999999932944775
		endloop
	endfacet
	facet normal -1 0 0
		outer loop
			vertex 1.2299999856948851 0.2699999964237213 0.009999999329447742
			vertex 1.2299999856948851 0.2699999964237213 0.10999999932944775
			vertex 1.2299999856948851 0.3699999964237213 0.10999999932944775
		endloop
	endfacet
	facet normal 0 1 0
		outer loop
			vertex 1.2299999856948851 0.3699999964237213 0.009999999329447742
			vertex 1.2299999856948851 0.3699999964237213 0.10999999932944775
			vertex 1.3299999856948852 0.3699999964237213 0.009999999329447742
		endloop
	endfacet
	facet normal 0 1 0
		outer loop
			vertex 1.2299999856948851 0.3699999964237213 0.10999999932944775
			vertex 1.3299999856948852 0.3699999964237213 0.10999999932944775
			vertex 1.3299999856948852 0.3699999964237213 0.009999999329447742
		endloop
	endfacet
	facet normal 0 -1 0
		outer loop
			vertex 1.2299999856948851 0.2699999964237213 0.10999999932944775
			vertex 1.2299999856948851 0.2699999964237213 0.009999999329447742
			vertex 1.3299999856948852 0.2699999964237213 0.10999999932944775
		endloop
	endfacet
	facet normal 0 -1 0
		outer loop
			vertex 1.2299999856948851 0.2699999964237213 0.009999999329447742
			vertex 1.3299999856948852 0.2699999964237213 0.009999999329447742
			vertex 1.3299999856948852 0.2699999964237213 0.10999999932944775
		endloop
	endfacet
	facet normal 0 0 1
		outer loop
			vertex 1.2299999856948851 0.3699999964237213 0.10999999932944775
			vertex 1.2299999856948851 0.2699999964237213 0.10999999932944775
			vertex 1.3299999856948852 0.3699999964237213 0.10999999932944775
		endloop
	endfacet
	facet normal 0 0 1
		outer loop
			vertex 1.2299999856948851 0.2699999964237213 0.10999999932944775
			vertex 1.3299999856948852 0.2699999964237213 0.10999999932944775
			vertex 1.3299999856948852 0.3699999964237213 0.10999999932944775
		endloop
	endfacet
	facet normal 0 0 -1
		outer loop
			vertex 1.3299999856948852 0.3699999964237213 0.009999999329447742
			vertex 1.3299999856948852 0.2699999964237213 0.009999999329447742
			vertex 1.2299999856948851 0.3699999964237213 0.009999999329447742
		endloop
	endfacet
	facet normal 0 0 -1
		outer loop
			vertex 1.3299999856948852 0.2699999964237213 0.009999999329447742
			vertex 1.2299999856948851 0.2699999964237213 0.009999999329447742
			vertex 1.2299999856948851 0.3699999964237213 0.009999999329447742
		endloop
	endfacet
	facet normal 0 0 0
		outer loop
			vertex 0.019999999776482584 0.075 1.5199999904632568
			vertex 0.019999999776482584 -0.075 1.669999990463257
			vertex 0.019999999776482584 0.075 1.5199999904632568
		endloop
	endfacet
	facet normal 0.5773502691896257 0.5773502691896257 0.5773502691896257
		outer loop
			vertex 0.019999999776482584 -0.075 1.669999990463257
			vertex 0.16999999977648259 -0.075 1.5199999904632568
			vertex 0.019999999776482584 0.075 1.5199999904632568
		endloop
	endfacet
	facet normal 0 0 0
		outer loop
			vertex 0.019999999776482584 0.075 1.5199999904632568
			vertex 0.16999999977648259 -0.075 1.5199999904632568
			vertex 0.019999999776482584 0.075 1.5199999904632568
		endloop
	endfacet
	facet normal 0.5773502691896258 0.5773502691896258 -0.5773502691896257
		outer loop
			vertex 0.16999999977648259 -0.075 1.5199999904632568
			vertex 0.0199999997764826 -0.075 1.3699999904632567
			vertex 0.019999999776482584 0.075 1.5199999904632568
		endloop
	endfacet
	facet normal 0 0 0
		outer loop
			vertex 0.019999999776482584 0.075 1.5199999904632568
			vertex 0.0199999997764826 -0.075 1.3699999904632567
			vertex 0.019999999776482584 0.075 1.5199999904632568
		endloop
	endfacet
	facet normal -0.5773502691896257 0.5773502691896258 -0.577350269189626
		outer loop
			vertex 0.0199999997764826 -0.075 1.3699999904632567
			vertex -0.1300000002235174 -0.075 1.5199999904632568
			vertex 0.019999999776482584 0.075 1.5199999904632568
		endloop
	endfacet
	facet normal 0 0 0
		outer loop
			vertex 0.019999999776482584 0.075 1.5199999904632568
			vertex -0.1300000002235174 -0.075 1.5199999904632568
			vertex 0.019999999776482584 0.075 1.5199999904632568
		endloop
	endfacet
	facet normal -0.5773502691896258 0.5773502691896258 0.5773502691896257
		outer loop
			vertex -0.1300000002235174 -0.075 1.5199999904632568
			vertex 0.019999999776482546 -0.075 1.669999990463257
			vertex 0.019999999776482584 0.075 1.5199999904632568
		endloop
	endfacet
	facet normal 0 -0.9999999999999999 0
		outer loop
			vertex 0.16999999977648259 -0.075 1.5199999904632568
			vertex 0.019999999776482584 -0.075 1.669999990463257
			vertex 0.019999999776482584 -0.075 1.5199999904632568
		endloop
	endfacet
	facet normal 0 -0.9999999999999999 0
		outer loop
			vertex 0.0199999997764826 -0.075 1.3699999904632567
			vertex 0.16999999977648259 -0.075 1.5199999904632568
			vertex 0.019999999776482584 -0.075 1.5199999904632568
		endloop
	endfacet
	facet normal 0 -0.9999999999999999 0
		outer loop
			vertex -0.1300000002235174 -0.075 1.5199999904632568
			vertex 0.0199999997764826 -0.075 1.3699999904632567
			vertex 0.019999999776482584 -0.075 1.5199999904632568
		endloop
	endfacet
	facet normal 0 -0.9999999999999999 0
		outer loop
			vertex 0.019999999776482546 -0.075 1.669999990463257
			vertex -0.1300000002235174 -0.075 1.5199999904632568
			vertex 0.019999999776482584 -0.075 1.5199999904632568
		endloop
	endfacet
	facet normal 0 0 0
		outer loop
			vertex 0.23999999731779098 1.055000009536743 1.5800000214576722
			vertex 0.23999999731779098 0.9050000095367432 1.730000021457672
			vertex 0.23999999731779098 1.055000009536743 1.5800000214576722
		endloop
	endfacet
	facet normal 0.5773502691896257 0.5773502691896257 0.5773502691896257
		outer loop
			vertex 0.23999999731779098 0.9050000095367432 1.730000021457672
			vertex 0.389999997317791 0.9050000095367432 1.5800000214576722
			vertex 0.23999999731779098 1.055000009536743 1.5800000214576722
		endloop
	endfacet
	facet normal 0 0 0
		outer loop
			vertex 0.23999999731779098 1.055000009536743 1.5800000214576722
			vertex 0.389999997317791 0.9050000095367432 1.5800000214576722
			vertex 0.23999999731779098 1.055000009536743 1.5800000214576722
		endloop
	endfacet
	facet normal 0.5773502691896258 0.5773502691896258 -0.5773502691896257
		outer loop
			vertex 0.389999997317791 0.9050000095367432 1.5800000214576722
			vertex 0.23999999731779098 0.9050000095367432 1.4300000214576722
			vertex 0.23999999731779098 1.055000009536743 1.5800000214576722
		endloop
	endfacet
	facet normal 0 0 0
		outer loop
			vertex 0.23999999731779098 1.055000009536743 1.5800000214576722
			vertex 0.23999999731779098 0.9050000095367432 1.4300000214576722
			vertex 0.23999999731779098 1.055000009536743 1.5800000214576722
		endloop
	endfacet
	facet normal -0.5773502691896257 0.5773502691896258 -0.577350269189626
		outer loop
			vertex 0.23999999731779098 0.9050000095367432 1.4300000214576722
			vertex 0.08999999731779099 0.9050000095367432 1.5800000214576722
			vertex 0.23999999731779098 1.055000009536743 1.5800000214576722
		endloop
	endfacet
	facet normal 0 0 0
		outer loop
			vertex 0.23999999731779098 1.055000009536743 1.5800000214576722
			vertex 0.08999999731779099 0.9050000095367432 1.5800000214576722
			vertex 0.23999999731779098 1.055000009536743 1.5800000214576722
		endloop
	endfacet
	facet normal -0.5773502691896258 0.5773502691896258 0.5773502691896257
		outer loop
			vertex 0.08999999731779099 0.9050000095367432 1.5800000214576722
			vertex 0.23999999731779093 0.9050000095367432 1.730000021457672
			vertex 0.23999999731779098 1.055000009536743 1.5800000214576722
		endloop
	endfacet
	facet normal 0 -0.9999999999999999 0
		outer loop
			vertex 0.389999997317791 0.9050000095367432 1.5800000214576722
			vertex 0.23999999731779098 0.9050000095367432 1.730000021457672
			vertex 0.23999999731779098 0.9050000095367432 1.5800000214576722
		endloop
	endfacet
	facet normal 0 -0.9999999999999999 0
		outer loop
			vertex 0.23999999731779098 0.9050000095367432 1.4300000214576722
			vertex 0.389999997317791 0.9050000095367432 1.5800000214576722
			vertex 0.23999999731779098 0.9050000095367432 1.5800000214576722
		endloop
	endfacet
	facet normal 0 -0.9999999999999999 0
		outer loop
			vertex 0.08999999731779099 0.9050000095367432 1.5800000214576722
			vertex 0.23999999731779098 0.9050000095367432 1.4300000214576722
			vertex 0.23999999731779098 0.9050000095367432 1.5800000214576722
		endloop
	endfacet
	facet normal 0 -0.9999999999999999 0
		outer loop
			vertex 0.23999999731779093 0.9050000095367432 1.730000021457672
			vertex 0.08999999731779099 0.9050000095367432 1.5800000214576722
			vertex 0.23999999731779098 0.9050000095367432 1.5800000214576722
		endloop
	endfacet
	facet normal 0 0 0
		outer loop
			vertex 0.40000000298023225 1.8749999761581422 0.20000000149011612
			vertex 0.40000000298023225 1.7249999761581423 0.3500000014901161
			vertex 0.40000000298023225 1.8749999761581422 0.20000000149011612
		endloop
	endfacet
	facet normal 0.5773502691896257 0.5773502691896257 0.5773502691896257
		outer loop
			vertex 0.40000000298023225 1.7249999761581423 0.3500000014901161
			vertex 0.5500000029802323 1.7249999761581423 0.20000000149011615
			vertex 0.40000000298023225 1.8749999761581422 0.20000000149011612
		endloop
	endfacet
	facet normal 0 0 0
		outer loop
			vertex 0.40000000298023225 1.8749999761581422 0.20000000149011612
			vertex 0.5500000029802323 1.7249999761581423 0.20000000149011615
			vertex 0.40000000298023225 1.8749999761581422 0.20000000149011612
		endloop
	endfacet
	facet normal 0.5773502691896258 0.5773502691896258 -0.5773502691896257
		outer loop
			vertex 0.5500000029802323 1.7249999761581423 0.20000000149011615
			vertex 0.4000000029802323 1.7249999761581423 0.05000000149011613
			vertex 0.40000000298023225 1.8749999761581422 0.20000000149011612
		endloop
	endfacet
	facet normal 0 0 0
		outer loop
			vertex 0.40000000298023225 1.8749999761581422 0.20000000149011612
			vertex 0.4000000029802323 1.7249999761581423 0.05000000149011613
			vertex 0.40000000298023225 1.8749999761581422 0.20000000149011612
		endloop
	endfacet
	facet normal -0.5773502691896257 0.5773502691896258 -0.577350269189626
		outer loop
			vertex 0.4000000029802323 1.7249999761581423 0.05000000149011613
			vertex 0.2500000029802323 1.7249999761581423 0.2000000014901161
			vertex 0.40000000298023225 1.8749999761581422 0.20000000149011612
		endloop
	endfacet
	facet normal 0 0 0
		outer loop
			vertex 0.40000000298023225 1.8749999761581422 0.20000000149011612
			vertex 0.2500000029802323 1.7249999761581423 0.2000000014901161
			vertex 0.40000000298023225 1.8749999761581422 0.20000000149011612
		endloop
	endfacet
	facet normal -0.5773502691896258 0.5773502691896258 0.5773502691896257
		outer loop
			vertex 0.2500000029802323 1.7249999761581423 0.2000000014901161
			vertex 0.4000000029802322 1.7249999761581423 0.3500000014901161
			vertex 0.40000000298023225 1.8749999761581422 0.20000000149011612
		endloop
	endfacet
	facet normal 0 -0.9999999999999999 0
		outer loop
			vertex 0.5500000029802323 1.7249999761581423 0.20000000149011615
			vertex 0.40000000298023225 1.7249999761581423 0.3500000014901161
			vertex 0.40000000298023225 1.7249999761581423 0.20000000149011612
		endloop
	endfacet
	facet normal 0 -0.9999999999999999 0
		outer loop
			vertex 0.4000000029802323 1.7249999761581423 0.05000000149011613
			vertex 0.5500000029802323 1.7249999761581423 0.20000000149011615
			vertex 0.40000000298023225 1.7249999761581423 0.20000000149011612
		endloop
	endfacet
	facet normal 0 -0.9999999999999999 0
		outer loop
			vertex 0.2500000029802323 1.7249999761581423 0.2000000014901161
			vertex 0.4000000029802323 1.7249999761581423 0.05000000149011613
			vertex 0.40000000298023225 1.7249999761581423 0.20000000149011612
		endloop
	endfacet
	facet normal 0 -0.9999999999999999 0
		outer loop
			vertex 0.4000000029802322 1.7249999761581423 0.3500000014901161
			vertex 0.2500000029802323 1.7249999761581423 0.2000000014901161
			vertex 0.40000000298023225 1.7249999761581423 0.20000000149011612
		endloop
	endfacet
	facet normal 1 0 0
		outer loop
			vertex 0.55 1.4900000286102295 1.8099999952316286
			vertex 0.55 1.3900000286102294 1.8099999952316286
			vertex 0.55 1.4900000286102295 1.7099999952316285
		endloop
	endfacet
	facet normal 1 0 0
		outer loop
			vertex 0.55 1.3900000286102294 1.8099999952316286
			vertex 0.55 1.3900000286102294 1.7099999952316285
			vertex 0.55 1.4900000286102295 1.7099999952316285
		endloop
	endfacet
	facet normal -1 0 0
		outer loop
			vertex 0.45 1.4900000286102295 1.7099999952316285
			vertex 0.45 1.3900000286102294 1.7099999952316285
			vertex 0.45 1.4900000286102295 1.8099999952316286
		endloop
	endfacet
	facet normal -1 0 0
		outer loop
			vertex 0.45 1.3900000286102294 1.7099999952316285
			vertex 0.45 1.3900000286102294 1.8099999952316286
			vertex 0.45 1.4900000286102295 1.8099999952316286
		endloop
	endfacet
	facet normal 0 1 0
		outer loop
			vertex 0.45 1.4900000286102295 1.7099999952316285
			vertex 0.45 1.4900000286102295 1.8099999952316286
			vertex 0.55 1.4900000286102295 1.7099999952316285
		endloop
	endfacet
	facet normal 0 1 0
		outer loop
			vertex 0.45 1.4900000286102295 1.8099999952316286
			vertex 0.55 1.4900000286102295 1.8099999952316286
			vertex 0.55 1.4900000286102295 1.7099999952316285
		endloop
	endfacet
	facet normal 0 -1 0
		outer loop
			vertex 0.45 1.3900000286102294 1.8099999952316286
			vertex 0.45 1.3900000286102294 1.7099999952316285
			vertex 0.55 1.3900000286102294 1.8099999952316286
		endloop
	endfacet
	facet normal 0 -1 0
		outer loop
			vertex 0.45 1.3900000286102294 1.7099999952316285
			vertex 0.55 1.3900000286102294 1.7099999952316285
			vertex 0.55 1.3900000286102294 1.8099999952316286
		endloop
	endfacet
	facet normal 0 0 1
		outer loop
			vertex 0.45 1.4900000286102295 1.8099999952316286
			vertex 0.45 1.3900000286102294 1.8099999952316286
			vertex 0.55 1.4900000286102295 1.8099999952316286
		endloop
	endfacet
	facet normal 0 0 1
		outer loop
			vertex 0.45 1.3900000286102294 1.8099999952316286
			vertex 0.55 1.3900000286102294 1.8099999952316286
			vertex 0.55 1.4900000286102295 1.8099999952316286
		endloop
	endfacet
	facet normal 0 0 -1
		outer loop
			vertex 0.55 1.4900000286102295 1.7099999952316285
			vertex 0.55 1.3900000286102294 1.7099999952316285
			vertex 0.45 1.4900000286102295 1.7099999952316285
		endloop
	endfacet
	facet normal 0 0 -1
		outer loop
			vertex 0.55 1.3900000286102294 1.7099999952316285
			vertex 0.45 1.3900000286102294 1.7099999952316285
			vertex 0.45 1.4900000286102295 1.7099999952316285
		endloop
	endfacet
	facet normal 1 0 0
		outer loop
			vertex 0.5699999904632569 0.55 1.150000011920929
			vertex 0.5699999904632569 0.45 1.150000011920929
			vertex 0.5699999904632569 0.55 1.050000011920929
		endloop
	endfacet
	facet normal 1 0 0
		outer loop
			vertex 0.5699999904632569 0.45 1.150000011920929
			vertex 0.5699999904632569 0.45 1.050000011920929
			vertex 0.5699999904632569 0.55 1.050000011920929
		endloop
	endfacet
	facet normal -1 0 0
		outer loop
			vertex 0.46999999046325686 0.55 1.050000011920929
			vertex 0.46999999046325686 0.45 1.050000011920929
			vertex 0.46999999046325686 0.55 1.150000011920929
		endloop
	endfacet
	facet normal -1 0 0
		outer loop
			vertex 0.46999999046325686 0.45 1.050000011920929
			vertex 0.46999999046325686 0.45 1.150000011920929
			vertex 0.46999999046325686 0.55 1.150000011920929
		endloop
	endfacet
	facet normal 0 1 0
		outer loop
			vertex 0.46999999046325686 0.55 1.050000011920929
			vertex 0.46999999046325686 0.55 1.150000011920929
			vertex 0.5699999904632569 0.55 1.050000011920929
		endloop
	endfacet
	facet normal 0 1 0
		outer loop
			vertex 0.46999999046325686 0.55 1.150000011920929
			vertex 0.5699999904632569 0.55 1.150000011920929
			vertex 0.5699999904632569 0.55 1.050000011920929
		endloop
	endfacet
	facet normal 0 -1 0
		outer loop
			vertex 0.46999999046325686 0.45 1.150000011920929
			vertex 0.46999999046325686 0.45 1.050000011920929
			vertex 0.5699999904632569 0.45 1.150000011920929
		endloop
	endfacet
	facet normal 0 -1 0
		outer loop
			vertex 0.46999999046325686 0.45 1.050000011920929
			vertex 0.5699999904632569 0.45 1.050000011920929
			vertex 0.5699999904632569 0.45 1.150000011920929
		endloop
	endfacet
	facet normal 0 0 1
		outer loop
			vertex 0.46999999046325686 0.55 1.150000011920929
			vertex 0.46999999046325686 0.45 1.150000011920929
			vertex 0.5699999904632569 0.55 1.150000011920929
		endloop
	endfacet
	facet normal 0 0 1
		outer loop
			vertex 0.46999999046325686 0.45 1.150000011920929
			vertex 0.5699999904632569 0.45 1.150000011920929
			vertex 0.5699999904632569 0.55 1.150000011920929
		endloop
	endfacet
	facet normal 0 0 -1
		outer loop
			vertex 0.5699999904632569 0.55 1.050000011920929
			vertex 0.5699999904632569 0.45 1.050000011920929
			vertex 0.46999999046325686 0.55 1.050000011920929
		endloop
	endfacet
	facet normal 0 0 -1
		outer loop
			vertex 0.5699999904632569 0.45 1.050000011920929
			vertex 0.46999999046325686 0.45 1.050000011920929
			vertex 0.46999999046325686 0.55 1.050000011920929
		endloop
	endfacet
endsolid exported
