solid exported
	facet normal 1 0 0
		outer loop
			vertex 0.610000001192093 0.3900000017881393 0.45000000298023224
			vertex 0.610000001192093 0.29000000178813934 0.45000000298023224
			vertex 0.610000001192093 0.3900000017881393 0.35000000298023226
		endloop
	endfacet
	facet normal 1 0 0
		outer loop
			vertex 0.610000001192093 0.29000000178813934 0.45000000298023224
			vertex 0.610000001192093 0.29000000178813934 0.35000000298023226
			vertex 0.610000001192093 0.3900000017881393 0.35000000298023226
		endloop
	endfacet
	facet normal -1 0 0
		outer loop
			vertex 0.5100000011920929 0.3900000017881393 0.35000000298023226
			vertex 0.5100000011920929 0.29000000178813934 0.35000000298023226
			vertex 0.5100000011920929 0.3900000017881393 0.45000000298023224
		endloop
	endfacet
	facet normal -1 0 0
		outer loop
			vertex 0.5100000011920929 0.29000000178813934 0.35000000298023226
			vertex 0.5100000011920929 0.29000000178813934 0.45000000298023224
			vertex 0.5100000011920929 0.3900000017881393 0.45000000298023224
		endloop
	endfacet
	facet normal 0 1 0
		outer loop
			vertex 0.5100000011920929 0.3900000017881393 0.35000000298023226
			vertex 0.5100000011920929 0.3900000017881393 0.45000000298023224
			vertex 0.610000001192093 0.3900000017881393 0.35000000298023226
		endloop
	endfacet
	facet normal 0 1 0
		outer loop
			vertex 0.5100000011920929 0.3900000017881393 0.45000000298023224
			vertex 0.610000001192093 0.3900000017881393 0.45000000298023224
			vertex 0.610000001192093 0.3900000017881393 0.35000000298023226
		endloop
	endfacet
	facet normal 0 -1 0
		outer loop
			vertex 0.5100000011920929 0.29000000178813934 0.45000000298023224
			vertex 0.5100000011920929 0.29000000178813934 0.35000000298023226
			vertex 0.610000001192093 0.29000000178813934 0.45000000298023224
		endloop
	endfacet
	facet normal 0 -1 0
		outer loop
			vertex 0.5100000011920929 0.29000000178813934 0.35000000298023226
			vertex 0.610000001192093 0.29000000178813934 0.35000000298023226
			vertex 0.610000001192093 0.29000000178813934 0.45000000298023224
		endloop
	endfacet
	facet normal 0 0 1
		outer loop
			vertex 0.5100000011920929 0.3900000017881393 0.45000000298023224
			vertex 0.5100000011920929 0.29000000178813934 0.45000000298023224
			vertex 0.610000001192093 0.3900000017881393 0.45000000298023224
		endloop
	endfacet
	facet normal 0 0 1
		outer loop
			vertex 0.5100000011920929 0.29000000178813934 0.45000000298023224
			vertex 0.610000001192093 0.29000000178813934 0.45000000298023224
			vertex 0.610000001192093 0.3900000017881393 0.45000000298023224
		endloop
	endfacet
	facet normal 0 0 -1
		outer loop
			vertex 0.610000001192093 0.3900000017881393 0.35000000298023226
			vertex 0.610000001192093 0.29000000178813934 0.35000000298023226
			vertex 0.5100000011920929 0.3900000017881393 0.35000000298023226
		endloop
	endfacet
	facet normal 0 0 -1
		outer loop
			vertex 0.610000001192093 0.29000000178813934 0.35000000298023226
			vertex 0.5100000011920929 0.29000000178813934 0.35000000298023226
			vertex 0.5100000011920929 0.3900000017881393 0.35000000298023226
		endloop
	endfacet
	facet normal 1 0 0
		outer loop
			vertex 0.4699999934434891 0.25000000149011614 0.8699999964237213
			vertex 0.4699999934434891 0.1500000014901161 0.8699999964237213
			vertex 0.4699999934434891 0.25000000149011614 0.7699999964237213
		endloop
	endfacet
	facet normal 1 0 0
		outer loop
			vertex 0.4699999934434891 0.1500000014901161 0.8699999964237213
			vertex 0.4699999934434891 0.1500000014901161 0.7699999964237213
			vertex 0.4699999934434891 0.25000000149011614 0.7699999964237213
		endloop
	endfacet
	facet normal -1 0 0
		outer loop
			vertex 0.3699999934434891 0.25000000149011614 0.7699999964237213
			vertex 0.3699999934434891 0.1500000014901161 0.7699999964237213
			vertex 0.3699999934434891 0.25000000149011614 0.8699999964237213
		endloop
	endfacet
	facet normal -1 0 0
		outer loop
			vertex 0.3699999934434891 0.1500000014901161 0.7699999964237213
			vertex 0.3699999934434891 0.1500000014901161 0.8699999964237213
			vertex 0.3699999934434891 0.25000000149011614 0.8699999964237213
		endloop
	endfacet
	facet normal 0 1 0
		outer loop
			vertex 0.3699999934434891 0.25000000149011614 0.7699999964237213
			vertex 0.3699999934434891 0.25000000149011614 0.8699999964237213
			vertex 0.4699999934434891 0.25000000149011614 0.7699999964237213
		endloop
	endfacet
	facet normal 0 1 0
		outer loop
			vertex 0.3699999934434891 0.25000000149011614 0.8699999964237213
			vertex 0.4699999934434891 0.25000000149011614 0.8699999964237213
			vertex 0.4699999934434891 0.25000000149011614 0.7699999964237213
		endloop
	endfacet
	facet normal 0 -1 0
		outer loop
			vertex 0.3699999934434891 0.1500000014901161 0.8699999964237213
			vertex 0.3699999934434891 0.1500000014901161 0.7699999964237213
			vertex 0.4699999934434891 0.1500000014901161 0.8699999964237213
		endloop
	endfacet
	facet normal 0 -1 0
		outer loop
			vertex 0.3699999934434891 0.1500000014901161 0.7699999964237213
			vertex 0.4699999934434891 0.1500000014901161 0.7699999964237213
			vertex 0.4699999934434891 0.1500000014901161 0.8699999964237213
		endloop
	endfacet
	facet normal 0 0 1
		outer loop
			vertex 0.3699999934434891 0.25000000149011614 0.8699999964237213
			vertex 0.3699999934434891 0.1500000014901161 0.8699999964237213
			vertex 0.4699999934434891 0.25000000149011614 0.8699999964237213
		endloop
	endfacet
	facet normal 0 0 1
		outer loop
			vertex 0.3699999934434891 0.1500000014901161 0.8699999964237213
			vertex 0.4699999934434891 0.1500000014901161 0.8699999964237213
			vertex 0.4699999934434891 0.25000000149011614 0.8699999964237213
		endloop
	endfacet
	facet normal 0 0 -1
		outer loop
			vertex 0.4699999934434891 0.25000000149011614 0.7699999964237213
			vertex 0.4699999934434891 0.1500000014901161 0.7699999964237213
			vertex 0.3699999934434891 0.25000000149011614 0.7699999964237213
		endloop
	endfacet
	facet normal 0 0 -1
		outer loop
			vertex 0.4699999934434891 0.1500000014901161 0.7699999964237213
			vertex 0.3699999934434891 0.1500000014901161 0.7699999964237213
			vertex 0.3699999934434891 0.25000000149011614 0.7699999964237213
		endloop
	endfacet
	facet normal 0 0 0
		outer loop
			vertex 1.8600000071525575 1.055000009536743 1.9400000286102295
			vertex 1.8600000071525575 0.9050000095367432 2.0900000286102296
			vertex 1.8600000071525575 1.055000009536743 1.9400000286102295
		endloop
	endfacet
	facet normal 0.5773502691896257 0.5773502691896257 0.5773502691896257
		outer loop
			vertex 1.8600000071525575 0.9050000095367432 2.0900000286102296
			vertex 2.0100000071525574 0.9050000095367432 1.9400000286102295
			vertex 1.8600000071525575 1.055000009536743 1.9400000286102295
		endloop
	endfacet
	facet normal 0 0 0
		outer loop
			vertex 1.8600000071525575 1.055000009536743 1.9400000286102295
			vertex 2.0100000071525574 0.9050000095367432 1.9400000286102295
			vertex 1.8600000071525575 1.055000009536743 1.9400000286102295
		endloop
	endfacet
	facet normal 0.5773502691896258 0.5773502691896258 -0.5773502691896257
		outer loop
			vertex 2.0100000071525574 0.9050000095367432 1.9400000286102295
			vertex 1.8600000071525575 0.9050000095367432 1.7900000286102293
			vertex 1.8600000071525575 1.055000009536743 1.9400000286102295
		endloop
	endfacet
	facet normal 0 0 0
		outer loop
			vertex 1.8600000071525575 1.055000009536743 1.9400000286102295
			vertex 1.8600000071525575 0.9050000095367432 1.7900000286102293
			vertex 1.8600000071525575 1.055000009536743 1.9400000286102295
		endloop
	endfacet
	facet normal -0.5773502691896257 0.5773502691896258 -0.577350269189626
		outer loop
			vertex 1.8600000071525575 0.9050000095367432 1.7900000286102293
			vertex 1.7100000071525574 0.9050000095367432 1.9400000286102295
			vertex 1.8600000071525575 1.055000009536743 1.9400000286102295
		endloop
	endfacet
	facet normal 0 0 0
		outer loop
			vertex 1.8600000071525575 1.055000009536743 1.9400000286102295
			vertex 1.7100000071525574 0.9050000095367432 1.9400000286102295
			vertex 1.8600000071525575 1.055000009536743 1.9400000286102295
		endloop
	endfacet
	facet normal -0.5773502691896258 0.5773502691896258 0.5773502691896257
		outer loop
			vertex 1.7100000071525574 0.9050000095367432 1.9400000286102295
			vertex 1.8600000071525575 0.9050000095367432 2.0900000286102296
			vertex 1.8600000071525575 1.055000009536743 1.9400000286102295
		endloop
	endfacet
	facet normal 0 -0.9999999999999999 0
		outer loop
			vertex 2.0100000071525574 0.9050000095367432 1.9400000286102295
			vertex 1.8600000071525575 0.9050000095367432 2.0900000286102296
			vertex 1.8600000071525575 0.9050000095367432 1.9400000286102295
		endloop
	endfacet
	facet normal 0 -0.9999999999999999 0
		outer loop
			vertex 1.8600000071525575 0.9050000095367432 1.7900000286102293
			vertex 2.0100000071525574 0.9050000095367432 1.9400000286102295
			vertex 1.8600000071525575 0.9050000095367432 1.9400000286102295
		endloop
	endfacet
	facet normal 0 -0.9999999999999999 0
		outer loop
			vertex 1.7100000071525574 0.9050000095367432 1.9400000286102295
			vertex 1.8600000071525575 0.9050000095367432 1.7900000286102293
			vertex 1.8600000071525575 0.9050000095367432 1.9400000286102295
		endloop
	endfacet
	facet normal 0 -0.9999999999999999 0
		outer loop
			vertex 1.8600000071525575 0.9050000095367432 2.0900000286102296
			vertex 1.7100000071525574 0.9050000095367432 1.9400000286102295
			vertex 1.8600000071525575 0.9050000095367432 1.9400000286102295
		endloop
	endfacet
	facet normal 0 0 0
		outer loop
			vertex 0.8799999976158142 1.3549999856948851 0.07999999910593034
			vertex 0.8799999976158142 1.2049999856948852 0.22999999910593033
			vertex 0.8799999976158142 1.3549999856948851 0.07999999910593034
		endloop
	endfacet
	facet normal 0.5773502691896257 0.5773502691896257 0.5773502691896257
		outer loop
			vertex 0.8799999976158142 1.2049999856948852 0.22999999910593033
			vertex 1.0299999976158143 1.2049999856948852 0.07999999910593034
			vertex 0.8799999976158142 1.3549999856948851 0.07999999910593034
		endloop
	endfacet
	facet normal 0 0 0
		outer loop
			vertex 0.8799999976158142 1.3549999856948851 0.07999999910593034
			vertex 1.0299999976158143 1.2049999856948852 0.07999999910593034
			vertex 0.8799999976158142 1.3549999856948851 0.07999999910593034
		endloop
	endfacet
	facet normal 0.5773502691896258 0.5773502691896258 -0.5773502691896257
		outer loop
			vertex 1.0299999976158143 1.2049999856948852 0.07999999910593034
			vertex 0.8799999976158142 1.2049999856948852 -0.07000000089406966
			vertex 0.8799999976158142 1.3549999856948851 0.07999999910593034
		endloop
	endfacet
	facet normal 0 0 0
		outer loop
			vertex 0.8799999976158142 1.3549999856948851 0.07999999910593034
			vertex 0.8799999976158142 1.2049999856948852 -0.07000000089406966
			vertex 0.8799999976158142 1.3549999856948851 0.07999999910593034
		endloop
	endfacet
	facet normal -0.5773502691896257 0.5773502691896258 -0.577350269189626
		outer loop
			vertex 0.8799999976158142 1.2049999856948852 -0.07000000089406966
			vertex 0.7299999976158142 1.2049999856948852 0.07999999910593031
			vertex 0.8799999976158142 1.3549999856948851 0.07999999910593034
		endloop
	endfacet
	facet normal 0 0 0
		outer loop
			vertex 0.8799999976158142 1.3549999856948851 0.07999999910593034
			vertex 0.7299999976158142 1.2049999856948852 0.07999999910593031
			vertex 0.8799999976158142 1.3549999856948851 0.07999999910593034
		endloop
	endfacet
	facet normal -0.5773502691896258 0.5773502691896258 0.5773502691896257
		outer loop
			vertex 0.7299999976158142 1.2049999856948852 0.07999999910593031
			vertex 0.8799999976158142 1.2049999856948852 0.22999999910593033
			vertex 0.8799999976158142 1.3549999856948851 0.07999999910593034
		endloop
	endfacet
	facet normal 0 -0.9999999999999999 0
		outer loop
			vertex 1.0299999976158143 1.2049999856948852 0.07999999910593034
			vertex 0.8799999976158142 1.2049999856948852 0.22999999910593033
			vertex 0.8799999976158142 1.2049999856948852 0.07999999910593034
		endloop
	endfacet
	facet normal 0 -0.9999999999999999 0
		outer loop
			vertex 0.8799999976158142 1.2049999856948852 -0.07000000089406966
			vertex 1.0299999976158143 1.2049999856948852 0.07999999910593034
			vertex 0.8799999976158142 1.2049999856948852 0.07999999910593034
		endloop
	endfacet
	facet normal 0 -0.9999999999999999 0
		outer loop
			vertex 0.7299999976158142 1.2049999856948852 0.07999999910593031
			vertex 0.8799999976158142 1.2049999856948852 -0.07000000089406966
			vertex 0.8799999976158142 1.2049999856948852 0.07999999910593034
		endloop
	endfacet
	facet normal 0 -0.9999999999999999 0
		outer loop
			vertex 0.8799999976158142 1.2049999856948852 0.22999999910593033
			vertex 0.7299999976158142 1.2049999856948852 0.07999999910593031
			vertex 0.8799999976158142 1.2049999856948852 0.07999999910593034
		endloop
	endfacet
endsolid exported
