solid exported
	facet normal 1 0 0
		outer loop
			vertex 1.05 1.469999978542328 0.23000000357627867
			vertex 1.05 1.3699999785423278 0.23000000357627867
			vertex 1.05 1.469999978542328 0.13000000357627867
		endloop
	endfacet
	facet normal 1 0 0
		outer loop
			vertex 1.05 1.3699999785423278 0.23000000357627867
			vertex 1.05 1.3699999785423278 0.13000000357627867
			vertex 1.05 1.469999978542328 0.13000000357627867
		endloop
	endfacet
	facet normal -1 0 0
		outer loop
			vertex 0.95 1.469999978542328 0.13000000357627867
			vertex 0.95 1.3699999785423278 0.13000000357627867
			vertex 0.95 1.469999978542328 0.23000000357627867
		endloop
	endfacet
	facet normal -1 0 0
		outer loop
			vertex 0.95 1.3699999785423278 0.13000000357627867
			vertex 0.95 1.3699999785423278 0.23000000357627867
			vertex 0.95 1.469999978542328 0.23000000357627867
		endloop
	endfacet
	facet normal 0 1 0
		outer loop
			vertex 0.95 1.469999978542328 0.13000000357627867
			vertex 0.95 1.469999978542328 0.23000000357627867
			vertex 1.05 1.469999978542328 0.13000000357627867
		endloop
	endfacet
	facet normal 0 1 0
		outer loop
			vertex 0.95 1.469999978542328 0.23000000357627867
			vertex 1.05 1.469999978542328 0.23000000357627867
			vertex 1.05 1.469999978542328 0.13000000357627867
		endloop
	endfacet
	facet normal 0 -1 0
		outer loop
			vertex 0.95 1.3699999785423278 0.23000000357627867
			vertex 0.95 1.3699999785423278 0.13000000357627867
			vertex 1.05 1.3699999785423278 0.23000000357627867
		endloop
	endfacet
	facet normal 0 -1 0
		outer loop
			vertex 0.95 1.3699999785423278 0.13000000357627867
			vertex 1.05 1.3699999785423278 0.13000000357627867
			vertex 1.05 1.3699999785423278 0.23000000357627867
		endloop
	endfacet
	facet normal 0 0 1
		outer loop
			vertex 0.95 1.469999978542328 0.23000000357627867
			vertex 0.95 1.3699999785423278 0.23000000357627867
			vertex 1.05 1.469999978542328 0.23000000357627867
		endloop
	endfacet
	facet normal 0 0 1
		outer loop
			vertex 0.95 1.3699999785423278 0.23000000357627867
			vertex 1.05 1.3699999785423278 0.23000000357627867
			vertex 1.05 1.469999978542328 0.23000000357627867
		endloop
	endfacet
	facet normal 0 0 -1
		outer loop
			vertex 1.05 1.469999978542328 0.13000000357627867
			vertex 1.05 1.3699999785423278 0.13000000357627867
			vertex 0.95 1.469999978542328 0.13000000357627867
		endloop
	endfacet
	facet normal 0 0 -1
		outer loop
			vertex 1.05 1.3699999785423278 0.13000000357627867
			vertex 0.95 1.3699999785423278 0.13000000357627867
			vertex 0.95 1.469999978542328 0.13000000357627867
		endloop
	endfacet
endsolid exported
