solid exported
	facet normal 1 0 0
		outer loop
			vertex 0.7499999940395354 1.4900000286102295 1.6899999928474427
			vertex 0.7499999940395354 1.3900000286102294 1.6899999928474427
			vertex 0.7499999940395354 1.4900000286102295 1.5899999928474426
		endloop
	endfacet
	facet normal 1 0 0
		outer loop
			vertex 0.7499999940395354 1.3900000286102294 1.6899999928474427
			vertex 0.7499999940395354 1.3900000286102294 1.5899999928474426
			vertex 0.7499999940395354 1.4900000286102295 1.5899999928474426
		endloop
	endfacet
	facet normal -1 0 0
		outer loop
			vertex 0.6499999940395356 1.4900000286102295 1.5899999928474426
			vertex 0.6499999940395356 1.3900000286102294 1.5899999928474426
			vertex 0.6499999940395356 1.4900000286102295 1.6899999928474427
		endloop
	endfacet
	facet normal -1 0 0
		outer loop
			vertex 0.6499999940395356 1.3900000286102294 1.5899999928474426
			vertex 0.6499999940395356 1.3900000286102294 1.6899999928474427
			vertex 0.6499999940395356 1.4900000286102295 1.6899999928474427
		endloop
	endfacet
	facet normal 0 1 0
		outer loop
			vertex 0.6499999940395356 1.4900000286102295 1.5899999928474426
			vertex 0.6499999940395356 1.4900000286102295 1.6899999928474427
			vertex 0.7499999940395354 1.4900000286102295 1.5899999928474426
		endloop
	endfacet
	facet normal 0 1 0
		outer loop
			vertex 0.6499999940395356 1.4900000286102295 1.6899999928474427
			vertex 0.7499999940395354 1.4900000286102295 1.6899999928474427
			vertex 0.7499999940395354 1.4900000286102295 1.5899999928474426
		endloop
	endfacet
	facet normal 0 -1 0
		outer loop
			vertex 0.6499999940395356 1.3900000286102294 1.6899999928474427
			vertex 0.6499999940395356 1.3900000286102294 1.5899999928474426
			vertex 0.7499999940395354 1.3900000286102294 1.6899999928474427
		endloop
	endfacet
	facet normal 0 -1 0
		outer loop
			vertex 0.6499999940395356 1.3900000286102294 1.5899999928474426
			vertex 0.7499999940395354 1.3900000286102294 1.5899999928474426
			vertex 0.7499999940395354 1.3900000286102294 1.6899999928474427
		endloop
	endfacet
	facet normal 0 0 1
		outer loop
			vertex 0.6499999940395356 1.4900000286102295 1.6899999928474427
			vertex 0.6499999940395356 1.3900000286102294 1.6899999928474427
			vertex 0.7499999940395354 1.4900000286102295 1.6899999928474427
		endloop
	endfacet
	facet normal 0 0 1
		outer loop
			vertex 0.6499999940395356 1.3900000286102294 1.6899999928474427
			vertex 0.7499999940395354 1.3900000286102294 1.6899999928474427
			vertex 0.7499999940395354 1.4900000286102295 1.6899999928474427
		endloop
	endfacet
	facet normal 0 0 -1
		outer loop
			vertex 0.7499999940395354 1.4900000286102295 1.5899999928474426
			vertex 0.7499999940395354 1.3900000286102294 1.5899999928474426
			vertex 0.6499999940395356 1.4900000286102295 1.5899999928474426
		endloop
	endfacet
	facet normal 0 0 -1
		outer loop
			vertex 0.7499999940395354 1.3900000286102294 1.5899999928474426
			vertex 0.6499999940395356 1.3900000286102294 1.5899999928474426
			vertex 0.6499999940395356 1.4900000286102295 1.5899999928474426
		endloop
	endfacet
	facet normal 0 0 0
		outer loop
			vertex 1.9600000190734863 0.13499999932944773 1.2599999952316283
			vertex 1.9600000190734863 -0.015000000670552252 1.4099999952316284
			vertex 1.9600000190734863 0.13499999932944773 1.2599999952316283
		endloop
	endfacet
	facet normal 0.5773502691896257 0.5773502691896257 0.5773502691896257
		outer loop
			vertex 1.9600000190734863 -0.015000000670552252 1.4099999952316284
			vertex 2.110000019073486 -0.015000000670552252 1.2599999952316283
			vertex 1.9600000190734863 0.13499999932944773 1.2599999952316283
		endloop
	endfacet
	facet normal 0 0 0
		outer loop
			vertex 1.9600000190734863 0.13499999932944773 1.2599999952316283
			vertex 2.110000019073486 -0.015000000670552252 1.2599999952316283
			vertex 1.9600000190734863 0.13499999932944773 1.2599999952316283
		endloop
	endfacet
	facet normal 0.5773502691896258 0.5773502691896258 -0.5773502691896257
		outer loop
			vertex 2.110000019073486 -0.015000000670552252 1.2599999952316283
			vertex 1.9600000190734863 -0.015000000670552252 1.1099999952316284
			vertex 1.9600000190734863 0.13499999932944773 1.2599999952316283
		endloop
	endfacet
	facet normal 0 0 0
		outer loop
			vertex 1.9600000190734863 0.13499999932944773 1.2599999952316283
			vertex 1.9600000190734863 -0.015000000670552252 1.1099999952316284
			vertex 1.9600000190734863 0.13499999932944773 1.2599999952316283
		endloop
	endfacet
	facet normal -0.5773502691896257 0.5773502691896258 -0.577350269189626
		outer loop
			vertex 1.9600000190734863 -0.015000000670552252 1.1099999952316284
			vertex 1.8100000190734864 -0.015000000670552252 1.2599999952316283
			vertex 1.9600000190734863 0.13499999932944773 1.2599999952316283
		endloop
	endfacet
	facet normal 0 0 0
		outer loop
			vertex 1.9600000190734863 0.13499999932944773 1.2599999952316283
			vertex 1.8100000190734864 -0.015000000670552252 1.2599999952316283
			vertex 1.9600000190734863 0.13499999932944773 1.2599999952316283
		endloop
	endfacet
	facet normal -0.5773502691896258 0.5773502691896258 0.5773502691896257
		outer loop
			vertex 1.8100000190734864 -0.015000000670552252 1.2599999952316283
			vertex 1.9600000190734863 -0.015000000670552252 1.4099999952316284
			vertex 1.9600000190734863 0.13499999932944773 1.2599999952316283
		endloop
	endfacet
	facet normal 0 -0.9999999999999999 0
		outer loop
			vertex 2.110000019073486 -0.015000000670552252 1.2599999952316283
			vertex 1.9600000190734863 -0.015000000670552252 1.4099999952316284
			vertex 1.9600000190734863 -0.015000000670552252 1.2599999952316283
		endloop
	endfacet
	facet normal 0 -0.9999999999999999 0
		outer loop
			vertex 1.9600000190734863 -0.015000000670552252 1.1099999952316284
			vertex 2.110000019073486 -0.015000000670552252 1.2599999952316283
			vertex 1.9600000190734863 -0.015000000670552252 1.2599999952316283
		endloop
	endfacet
	facet normal 0 -0.9999999999999999 0
		outer loop
			vertex 1.8100000190734864 -0.015000000670552252 1.2599999952316283
			vertex 1.9600000190734863 -0.015000000670552252 1.1099999952316284
			vertex 1.9600000190734863 -0.015000000670552252 1.2599999952316283
		endloop
	endfacet
	facet normal 0 -0.9999999999999999 0
		outer loop
			vertex 1.9600000190734863 -0.015000000670552252 1.4099999952316284
			vertex 1.8100000190734864 -0.015000000670552252 1.2599999952316283
			vertex 1.9600000190734863 -0.015000000670552252 1.2599999952316283
		endloop
	endfacet
	facet normal 0 0 0
		outer loop
			vertex 0.8399999868869781 0.9149999868869781 1.8200000262260438
			vertex 0.8399999868869781 0.7649999868869781 1.9700000262260438
			vertex 0.8399999868869781 0.9149999868869781 1.8200000262260438
		endloop
	endfacet
	facet normal 0.5773502691896257 0.5773502691896257 0.5773502691896257
		outer loop
			vertex 0.8399999868869781 0.7649999868869781 1.9700000262260438
			vertex 0.9899999868869782 0.7649999868869781 1.8200000262260438
			vertex 0.8399999868869781 0.9149999868869781 1.8200000262260438
		endloop
	endfacet
	facet normal 0 0 0
		outer loop
			vertex 0.8399999868869781 0.9149999868869781 1.8200000262260438
			vertex 0.9899999868869782 0.7649999868869781 1.8200000262260438
			vertex 0.8399999868869781 0.9149999868869781 1.8200000262260438
		endloop
	endfacet
	facet normal 0.5773502691896258 0.5773502691896258 -0.5773502691896257
		outer loop
			vertex 0.9899999868869782 0.7649999868869781 1.8200000262260438
			vertex 0.8399999868869781 0.7649999868869781 1.6700000262260437
			vertex 0.8399999868869781 0.9149999868869781 1.8200000262260438
		endloop
	endfacet
	facet normal 0 0 0
		outer loop
			vertex 0.8399999868869781 0.9149999868869781 1.8200000262260438
			vertex 0.8399999868869781 0.7649999868869781 1.6700000262260437
			vertex 0.8399999868869781 0.9149999868869781 1.8200000262260438
		endloop
	endfacet
	facet normal -0.5773502691896257 0.5773502691896258 -0.577350269189626
		outer loop
			vertex 0.8399999868869781 0.7649999868869781 1.6700000262260437
			vertex 0.6899999868869782 0.7649999868869781 1.8200000262260438
			vertex 0.8399999868869781 0.9149999868869781 1.8200000262260438
		endloop
	endfacet
	facet normal 0 0 0
		outer loop
			vertex 0.8399999868869781 0.9149999868869781 1.8200000262260438
			vertex 0.6899999868869782 0.7649999868869781 1.8200000262260438
			vertex 0.8399999868869781 0.9149999868869781 1.8200000262260438
		endloop
	endfacet
	facet normal -0.5773502691896258 0.5773502691896258 0.5773502691896257
		outer loop
			vertex 0.6899999868869782 0.7649999868869781 1.8200000262260438
			vertex 0.8399999868869781 0.7649999868869781 1.9700000262260438
			vertex 0.8399999868869781 0.9149999868869781 1.8200000262260438
		endloop
	endfacet
	facet normal 0 -0.9999999999999999 0
		outer loop
			vertex 0.9899999868869782 0.7649999868869781 1.8200000262260438
			vertex 0.8399999868869781 0.7649999868869781 1.9700000262260438
			vertex 0.8399999868869781 0.7649999868869781 1.8200000262260438
		endloop
	endfacet
	facet normal 0 -0.9999999999999999 0
		outer loop
			vertex 0.8399999868869781 0.7649999868869781 1.6700000262260437
			vertex 0.9899999868869782 0.7649999868869781 1.8200000262260438
			vertex 0.8399999868869781 0.7649999868869781 1.8200000262260438
		endloop
	endfacet
	facet normal 0 -0.9999999999999999 0
		outer loop
			vertex 0.6899999868869782 0.7649999868869781 1.8200000262260438
			vertex 0.8399999868869781 0.7649999868869781 1.6700000262260437
			vertex 0.8399999868869781 0.7649999868869781 1.8200000262260438
		endloop
	endfacet
	facet normal 0 -0.9999999999999999 0
		outer loop
			vertex 0.8399999868869781 0.7649999868869781 1.9700000262260438
			vertex 0.6899999868869782 0.7649999868869781 1.8200000262260438
			vertex 0.8399999868869781 0.7649999868869781 1.8200000262260438
		endloop
	endfacet
	facet normal 0 0 0
		outer loop
			vertex 0.059999999329447745 0.8750000059604646 1.3200000262260438
			vertex 0.059999999329447745 0.7250000059604644 1.4700000262260438
			vertex 0.059999999329447745 0.8750000059604646 1.3200000262260438
		endloop
	endfacet
	facet normal 0.5773502691896257 0.5773502691896257 0.5773502691896257
		outer loop
			vertex 0.059999999329447745 0.7250000059604644 1.4700000262260438
			vertex 0.20999999932944774 0.7250000059604644 1.3200000262260438
			vertex 0.059999999329447745 0.8750000059604646 1.3200000262260438
		endloop
	endfacet
	facet normal 0 0 0
		outer loop
			vertex 0.059999999329447745 0.8750000059604646 1.3200000262260438
			vertex 0.20999999932944774 0.7250000059604644 1.3200000262260438
			vertex 0.059999999329447745 0.8750000059604646 1.3200000262260438
		endloop
	endfacet
	facet normal 0.5773502691896258 0.5773502691896258 -0.5773502691896257
		outer loop
			vertex 0.20999999932944774 0.7250000059604644 1.3200000262260438
			vertex 0.05999999932944776 0.7250000059604644 1.1700000262260437
			vertex 0.059999999329447745 0.8750000059604646 1.3200000262260438
		endloop
	endfacet
	facet normal 0 0 0
		outer loop
			vertex 0.059999999329447745 0.8750000059604646 1.3200000262260438
			vertex 0.05999999932944776 0.7250000059604644 1.1700000262260437
			vertex 0.059999999329447745 0.8750000059604646 1.3200000262260438
		endloop
	endfacet
	facet normal -0.5773502691896257 0.5773502691896258 -0.577350269189626
		outer loop
			vertex 0.05999999932944776 0.7250000059604644 1.1700000262260437
			vertex -0.09000000067055225 0.7250000059604644 1.3200000262260438
			vertex 0.059999999329447745 0.8750000059604646 1.3200000262260438
		endloop
	endfacet
	facet normal 0 0 0
		outer loop
			vertex 0.059999999329447745 0.8750000059604646 1.3200000262260438
			vertex -0.09000000067055225 0.7250000059604644 1.3200000262260438
			vertex 0.059999999329447745 0.8750000059604646 1.3200000262260438
		endloop
	endfacet
	facet normal -0.5773502691896258 0.5773502691896258 0.5773502691896257
		outer loop
			vertex -0.09000000067055225 0.7250000059604644 1.3200000262260438
			vertex 0.059999999329447704 0.7250000059604644 1.4700000262260438
			vertex 0.059999999329447745 0.8750000059604646 1.3200000262260438
		endloop
	endfacet
	facet normal 0 -0.9999999999999999 0
		outer loop
			vertex 0.20999999932944774 0.7250000059604644 1.3200000262260438
			vertex 0.059999999329447745 0.7250000059604644 1.4700000262260438
			vertex 0.059999999329447745 0.7250000059604644 1.3200000262260438
		endloop
	endfacet
	facet normal 0 -0.9999999999999999 0
		outer loop
			vertex 0.05999999932944776 0.7250000059604644 1.1700000262260437
			vertex 0.20999999932944774 0.7250000059604644 1.3200000262260438
			vertex 0.059999999329447745 0.7250000059604644 1.3200000262260438
		endloop
	endfacet
	facet normal 0 -0.9999999999999999 0
		outer loop
			vertex -0.09000000067055225 0.7250000059604644 1.3200000262260438
			vertex 0.05999999932944776 0.7250000059604644 1.1700000262260437
			vertex 0.059999999329447745 0.7250000059604644 1.3200000262260438
		endloop
	endfacet
	facet normal 0 -0.9999999999999999 0
		outer loop
			vertex 0.059999999329447704 0.7250000059604644 1.4700000262260438
			vertex -0.09000000067055225 0.7250000059604644 1.3200000262260438
			vertex 0.059999999329447745 0.7250000059604644 1.3200000262260438
		endloop
	endfacet
endsolid exported
