solid exported
	facet normal 1 0 0
		outer loop
			vertex 1.05 1.469999978542328 0.23000000357627867
			vertex 1.05 1.3699999785423278 0.23000000357627867
			vertex 1.05 1.469999978542328 0.13000000357627867
		endloop
	endfacet
	facet normal 1 0 0
		outer loop
			vertex 1.05 1.3699999785423278 0.23000000357627867
			vertex 1.05 1.3699999785423278 0.13000000357627867
			vertex 1.05 1.469999978542328 0.13000000357627867
		endloop
	endfacet
	facet normal -1 0 0
		outer loop
			vertex 0.95 1.469999978542328 0.13000000357627867
			vertex 0.95 1.3699999785423278 0.13000000357627867
			vertex 0.95 1.469999978542328 0.23000000357627867
		endloop
	endfacet
	facet normal -1 0 0
		outer loop
			vertex 0.95 1.3699999785423278 0.13000000357627867
			vertex 0.95 1.3699999785423278 0.23000000357627867
			vertex 0.95 1.469999978542328 0.23000000357627867
		endloop
	endfacet
	facet normal 0 1 0
		outer loop
			vertex 0.95 1.469999978542328 0.13000000357627867
			vertex 0.95 1.469999978542328 0.23000000357627867
			vertex 1.05 1.469999978542328 0.13000000357627867
		endloop
	endfacet
	facet normal 0 1 0
		outer loop
			vertex 0.95 1.469999978542328 0.23000000357627867
			vertex 1.05 1.469999978542328 0.23000000357627867
			vertex 1.05 1.469999978542328 0.13000000357627867
		endloop
	endfacet
	facet normal 0 -1 0
		outer loop
			vertex 0.95 1.3699999785423278 0.23000000357627867
			vertex 0.95 1.3699999785423278 0.13000000357627867
			vertex 1.05 1.3699999785423278 0.23000000357627867
		endloop
	endfacet
	facet normal 0 -1 0
		outer loop
			vertex 0.95 1.3699999785423278 0.13000000357627867
			vertex 1.05 1.3699999785423278 0.13000000357627867
			vertex 1.05 1.3699999785423278 0.23000000357627867
		endloop
	endfacet
	facet normal 0 0 1
		outer loop
			vertex 0.95 1.469999978542328 0.23000000357627867
			vertex 0.95 1.3699999785423278 0.23000000357627867
			vertex 1.05 1.469999978542328 0.23000000357627867
		endloop
	endfacet
	facet normal 0 0 1
		outer loop
			vertex 0.95 1.3699999785423278 0.23000000357627867
			vertex 1.05 1.3699999785423278 0.23000000357627867
			vertex 1.05 1.469999978542328 0.23000000357627867
		endloop
	endfacet
	facet normal 0 0 -1
		outer loop
			vertex 1.05 1.469999978542328 0.13000000357627867
			vertex 1.05 1.3699999785423278 0.13000000357627867
			vertex 0.95 1.469999978542328 0.13000000357627867
		endloop
	endfacet
	facet normal 0 0 -1
		outer loop
			vertex 1.05 1.3699999785423278 0.13000000357627867
			vertex 0.95 1.3699999785423278 0.13000000357627867
			vertex 0.95 1.469999978542328 0.13000000357627867
		endloop
	endfacet
	facet normal 1 0 0
		outer loop
			vertex 1.2099999833106994 0.529999994635582 0.05
			vertex 1.2099999833106994 0.429999994635582 0.05
			vertex 1.2099999833106994 0.529999994635582 -0.05
		endloop
	endfacet
	facet normal 1 0 0
		outer loop
			vertex 1.2099999833106994 0.429999994635582 0.05
			vertex 1.2099999833106994 0.429999994635582 -0.05
			vertex 1.2099999833106994 0.529999994635582 -0.05
		endloop
	endfacet
	facet normal -1 0 0
		outer loop
			vertex 1.1099999833106993 0.529999994635582 -0.05
			vertex 1.1099999833106993 0.429999994635582 -0.05
			vertex 1.1099999833106993 0.529999994635582 0.05
		endloop
	endfacet
	facet normal -1 0 0
		outer loop
			vertex 1.1099999833106993 0.429999994635582 -0.05
			vertex 1.1099999833106993 0.429999994635582 0.05
			vertex 1.1099999833106993 0.529999994635582 0.05
		endloop
	endfacet
	facet normal 0 1 0
		outer loop
			vertex 1.1099999833106993 0.529999994635582 -0.05
			vertex 1.1099999833106993 0.529999994635582 0.05
			vertex 1.2099999833106994 0.529999994635582 -0.05
		endloop
	endfacet
	facet normal 0 1 0
		outer loop
			vertex 1.1099999833106993 0.529999994635582 0.05
			vertex 1.2099999833106994 0.529999994635582 0.05
			vertex 1.2099999833106994 0.529999994635582 -0.05
		endloop
	endfacet
	facet normal 0 -1 0
		outer loop
			vertex 1.1099999833106993 0.429999994635582 0.05
			vertex 1.1099999833106993 0.429999994635582 -0.05
			vertex 1.2099999833106994 0.429999994635582 0.05
		endloop
	endfacet
	facet normal 0 -1 0
		outer loop
			vertex 1.1099999833106993 0.429999994635582 -0.05
			vertex 1.2099999833106994 0.429999994635582 -0.05
			vertex 1.2099999833106994 0.429999994635582 0.05
		endloop
	endfacet
	facet normal 0 0 1
		outer loop
			vertex 1.1099999833106993 0.529999994635582 0.05
			vertex 1.1099999833106993 0.429999994635582 0.05
			vertex 1.2099999833106994 0.529999994635582 0.05
		endloop
	endfacet
	facet normal 0 0 1
		outer loop
			vertex 1.1099999833106993 0.429999994635582 0.05
			vertex 1.2099999833106994 0.429999994635582 0.05
			vertex 1.2099999833106994 0.529999994635582 0.05
		endloop
	endfacet
	facet normal 0 0 -1
		outer loop
			vertex 1.2099999833106994 0.529999994635582 -0.05
			vertex 1.2099999833106994 0.429999994635582 -0.05
			vertex 1.1099999833106993 0.529999994635582 -0.05
		endloop
	endfacet
	facet normal 0 0 -1
		outer loop
			vertex 1.2099999833106994 0.429999994635582 -0.05
			vertex 1.1099999833106993 0.429999994635582 -0.05
			vertex 1.1099999833106993 0.529999994635582 -0.05
		endloop
	endfacet
	facet normal 1 0 0
		outer loop
			vertex 0.06999999977648258 1.2299999737739564 1.009999989271164
			vertex 0.06999999977648258 1.1299999737739563 1.009999989271164
			vertex 0.06999999977648258 1.2299999737739564 0.9099999892711639
		endloop
	endfacet
	facet normal 1 0 0
		outer loop
			vertex 0.06999999977648258 1.1299999737739563 1.009999989271164
			vertex 0.06999999977648258 1.1299999737739563 0.9099999892711639
			vertex 0.06999999977648258 1.2299999737739564 0.9099999892711639
		endloop
	endfacet
	facet normal -1 0 0
		outer loop
			vertex -0.03000000022351742 1.2299999737739564 0.9099999892711639
			vertex -0.03000000022351742 1.1299999737739563 0.9099999892711639
			vertex -0.03000000022351742 1.2299999737739564 1.009999989271164
		endloop
	endfacet
	facet normal -1 0 0
		outer loop
			vertex -0.03000000022351742 1.1299999737739563 0.9099999892711639
			vertex -0.03000000022351742 1.1299999737739563 1.009999989271164
			vertex -0.03000000022351742 1.2299999737739564 1.009999989271164
		endloop
	endfacet
	facet normal 0 1 0
		outer loop
			vertex -0.03000000022351742 1.2299999737739564 0.9099999892711639
			vertex -0.03000000022351742 1.2299999737739564 1.009999989271164
			vertex 0.06999999977648258 1.2299999737739564 0.9099999892711639
		endloop
	endfacet
	facet normal 0 1 0
		outer loop
			vertex -0.03000000022351742 1.2299999737739564 1.009999989271164
			vertex 0.06999999977648258 1.2299999737739564 1.009999989271164
			vertex 0.06999999977648258 1.2299999737739564 0.9099999892711639
		endloop
	endfacet
	facet normal 0 -1 0
		outer loop
			vertex -0.03000000022351742 1.1299999737739563 1.009999989271164
			vertex -0.03000000022351742 1.1299999737739563 0.9099999892711639
			vertex 0.06999999977648258 1.1299999737739563 1.009999989271164
		endloop
	endfacet
	facet normal 0 -1 0
		outer loop
			vertex -0.03000000022351742 1.1299999737739563 0.9099999892711639
			vertex 0.06999999977648258 1.1299999737739563 0.9099999892711639
			vertex 0.06999999977648258 1.1299999737739563 1.009999989271164
		endloop
	endfacet
	facet normal 0 0 1
		outer loop
			vertex -0.03000000022351742 1.2299999737739564 1.009999989271164
			vertex -0.03000000022351742 1.1299999737739563 1.009999989271164
			vertex 0.06999999977648258 1.2299999737739564 1.009999989271164
		endloop
	endfacet
	facet normal 0 0 1
		outer loop
			vertex -0.03000000022351742 1.1299999737739563 1.009999989271164
			vertex 0.06999999977648258 1.1299999737739563 1.009999989271164
			vertex 0.06999999977648258 1.2299999737739564 1.009999989271164
		endloop
	endfacet
	facet normal 0 0 -1
		outer loop
			vertex 0.06999999977648258 1.2299999737739564 0.9099999892711639
			vertex 0.06999999977648258 1.1299999737739563 0.9099999892711639
			vertex -0.03000000022351742 1.2299999737739564 0.9099999892711639
		endloop
	endfacet
	facet normal 0 0 -1
		outer loop
			vertex 0.06999999977648258 1.1299999737739563 0.9099999892711639
			vertex -0.03000000022351742 1.1299999737739563 0.9099999892711639
			vertex -0.03000000022351742 1.2299999737739564 0.9099999892711639
		endloop
	endfacet
endsolid exported
